<svg version="1.1" viewBox="0.0 0.0 1280.0 720.0" fill="none" stroke="none" stroke-linecap="square" stroke-miterlimit="10" xmlns:xlink="http://www.w3.org/1999/xlink" xmlns="http://www.w3.org/2000/svg"><clipPath id="p3.0"><path d="m0 0l1280.0 0l0 720.0l-1280.0 0l0 -720.0z" clip-rule="nonzero"/></clipPath><g clip-path="url(#p3.0)"><path fill="#ffffff" d="m0 0l1280.0 0l0 720.0l-1280.0 0z" fill-rule="evenodd"/><path fill="#000000" fill-opacity="0.0" d="m70.39107 251.88452l1092.3464 0l0 106.834625l-1092.3464 0z" fill-rule="evenodd"/><path fill="#d01279" d="m82.25044 316.46915l11.109375 -1.3125q1.875 13.171875 12.28125 13.171875q5.15625 0 8.109375 -2.6875q2.953125 -2.703125 2.953125 -6.6875q0 -2.34375 -1.03125 -3.984375q-1.03125 -1.640625 -3.140625 -2.6875q-2.109375 -1.0625 -10.21875 -3.546875q-7.265625 -2.203125 -10.640625 -4.78125q-3.375 -2.578125 -5.375 -6.765625q-1.984375 -4.203125 -1.984375 -9.03125q0 -5.625 2.546875 -10.125q2.5625 -4.5 7.0625 -6.796875q4.5 -2.296875 11.109375 -2.296875q9.9375 0 15.515625 5.390625q5.578125 5.390625 5.90625 15.421875l-11.390625 0.609375q-0.75 -5.53125 -3.234375 -7.734375q-2.484375 -2.203125 -7.078125 -2.203125q-4.59375 0 -7.078125 1.921875q-2.484375 1.921875 -2.484375 4.78125q0 2.8125 2.25 4.734375q2.25 1.921875 10.359375 4.21875q8.578125 2.484375 12.390625 5.234375q3.828125 2.734375 5.84375 7.078125q2.015625 4.328125 2.015625 10.515625q0 8.953125 -5.515625 15.046875q-5.5 6.09375 -17.21875 6.09375q-20.71875 0 -23.0625 -23.578125zm68.0625 22.359375l0 -57.09375l-16.734375 0l0 -11.625l44.765625 0l0 11.625l-16.6875 0l0 57.09375l-11.34375 0zm86.203125 0l-12.375 0l-4.921875 -15.609375l-22.5 0l-4.640625 15.609375l-12.09375 0l21.9375 -68.71875l12.046875 0l22.546875 68.71875zm-20.953125 -27.1875l-7.734375 -25.5l-7.640625 25.5l15.375 0zm41.76564 27.1875l0 -28.921875l-20.625015 -39.796875l13.3125 0l13.26564 27.1875l13.03125 -27.1875l13.078125 0l-20.71875 39.890625l0 28.828125l-11.34375 0zm59.484375 -68.71875l11.34375 0l0 37.21875q0 8.671875 0.421875 11.296875q0.75 4.546875 3.578125 7.03125q2.84375 2.484375 7.484375 2.484375q3.9375 0 6.421875 -1.75q2.484375 -1.765625 3.390625 -4.875q0.921875 -3.125 0.921875 -13.390625l0 -38.015625l11.390625 0l0 36.09375q0 13.828125 -1.484375 20.0q-1.46875 6.15625 -6.65625 9.984375q-5.171875 3.8125 -13.65625 3.8125q-8.8125 0 -13.765625 -3.15625q-4.9375 -3.171875 -7.171875 -8.90625q-2.21875 -5.75 -2.21875 -21.171875l0 -36.65625zm56.90625 68.71875l0 -68.71875l18.28125 0q10.21875 0 13.359375 0.984375q5.015625 1.59375 8.265625 6.796875q3.265625 5.203125 3.265625 13.40625q0 7.453125 -2.8125 12.5q-2.8125 5.03125 -7.03125 7.078125q-4.21875 2.03125 -14.53125 2.03125l-7.453125 0l0 25.921875l-11.34375 0zm11.34375 -57.09375l0 19.5l6.28125 0q6.328125 0 8.59375 -0.890625q2.28125 -0.890625 3.734375 -3.203125q1.453125 -2.328125 1.453125 -5.703125q0 -3.421875 -1.5 -5.765625q-1.5 -2.34375 -3.703125 -3.140625q-2.203125 -0.796875 -9.328125 -0.796875l-5.53125 0zm75.75 57.09375l0 -57.09375l-16.734375 0l0 -11.625l44.765625 0l0 11.625l-16.6875 0l0 57.09375l-11.34375 0zm33.140625 -33.9375q0 -12.28125 3.625 -20.21875q3.640625 -7.953125 9.5 -11.84375q5.8593445 -3.890625 14.2030945 -3.890625q12.09375 0 19.703125 9.234375q7.625 9.234375 7.625 26.296875q0 17.25 -8.0625 26.953125q-7.078125 8.578125 -19.21875 8.578125q-12.2343445 0 -19.31247 -8.484375q-8.0625 -9.703125 -8.0625 -26.625zm11.71875 -0.46875q0 11.859375 4.5 17.796875q4.4999695 5.921875 11.1562195 5.921875q6.703125 0 11.109375 -5.875q4.40625 -5.890625 4.40625 -18.078125q0 -11.953125 -4.296875 -17.671875q-4.28125 -5.71875 -11.21875 -5.71875q-6.9375 0 -11.2968445 5.765625q-4.359375 5.765625 -4.359375 17.859375zm73.640594 -34.3125l20.765625 0q7.875 0 11.875 1.765625q4.015625 1.75 7.390625 5.921875q3.375 4.171875 5.296875 10.828125q1.921875 6.65625 1.921875 16.546875q0 8.90625 -2.015625 15.5q-2.015625 6.578125 -5.109375 10.421875q-3.09375 3.84375 -7.484375 5.796875q-4.375 1.9375 -11.265625 1.9375l-21.375 0l0 -68.71875zm11.34375 11.625l0 45.515625l8.53125 0q5.484375 0 7.9375 -1.03125q2.46875 -1.03125 4.03125 -3.109375q1.578125 -2.09375 2.609375 -6.59375q1.03125 -4.5 1.03125 -11.859375q0 -7.640625 -1.0625 -12.046875q-1.046875 -4.40625 -3.28125 -6.9375q-2.21875 -2.53125 -5.40625 -3.328125q-2.390625 -0.609375 -9.234375 -0.609375l-5.15625 0zm96.328125 57.09375l-12.375 0l-4.921875 -15.609375l-22.5 0l-4.640625 15.609375l-12.09375 0l21.9375 -68.71875l12.046875 0l22.546875 68.71875zm-20.953125 -27.1875l-7.734375 -25.5l-7.640625 25.5l15.375 0zm39.65625 27.1875l0 -57.09375l-16.734375 0l0 -11.625l44.765625 0l0 11.625l-16.6875 0l0 57.09375l-11.34375 0zm35.4375 0l0 -68.71875l41.8125 0l0 11.625l-30.46875 0l0 15.234375l28.3125 0l0 11.578125l-28.3125 0l0 18.703125l31.5 0l0 11.578125l-42.84375 0z" fill-rule="nonzero"/><path fill="#000000" fill-opacity="0.0" d="m58.747402 180.60724l1103.9999 0l0 106.821106l-1103.9999 0z" fill-rule="evenodd"/><path fill="#d01279" fill-opacity="0.29803923" d="m934.8097 -1.9140241c0.26239014 240.03789 -1.0492554 480.8627 -0.78686523 720.9006l82.95709 0.7866821l0 -310.16245l27.841248 309.60233l90.02588 0.78686523l23.573486 -307.69507c0.25390625 102.37451 0.50805664 204.74902 0.7619629 307.12347l81.04956 -0.19683838c0.3441162 -239.81949 0.68811035 -481.9996 1.0322266 -721.8191l-132.01123 0l-20.879272 240.44904l-20.20581 -239.77554l-133.35828 0z" fill-rule="evenodd"/><path fill="#000000" fill-opacity="0.0" d="m70.39108 449.45407l795.0552 0l0 213.82675l-795.0552 0z" fill-rule="evenodd"/><path fill="#595959" d="m88.07858 458.19583l3.796875 0l0 14.5q0 3.515625 -0.703125 5.234375q-0.703125 1.71875 -2.109375 2.640625q-1.390625 0.921875 -3.4375 0.921875q-2.703125 0 -4.234375 -1.859375q-1.53125 -1.859375 -1.546875 -5.609375l3.578125 -0.5q0.0625 2.015625 0.515625 2.859375q0.609375 1.15625 1.828125 1.15625q1.1875 0 1.75 -0.828125q0.5625 -0.84375 0.5625 -3.71875l0 -14.796875zm7.0625 11.59375q0 -4.09375 1.203125 -6.734375q1.21875 -2.65625 3.171875 -3.953125q1.953125 -1.296875 4.734375 -1.296875q4.03125 0 6.5625 3.078125q2.546875 3.078125 2.546875 8.765625q0 5.75 -2.6875 8.984375q-2.359375 2.859375 -6.40625 2.859375q-4.078125 0 -6.4375 -2.828125q-2.6875 -3.234375 -2.6875 -8.875zm3.90625 -0.15625q0 3.953125 1.5 5.9375q1.5 1.96875 3.71875 1.96875q2.234375 0 3.703125 -1.953125q1.46875 -1.96875 1.46875 -6.03125q0 -3.984375 -1.4375 -5.890625q-1.421875 -1.90625 -3.734375 -1.90625q-2.3125 0 -3.765625 1.921875q-1.453125 1.921875 -1.453125 5.953125zm17.15625 11.46875l0 -22.90625l3.78125 0l0 22.90625l-3.78125 0zm7.453125 0l0 -22.90625l3.6875 0l7.6875 15.296875l0 -15.296875l3.53125 0l0 22.90625l-3.8125 0l-7.5625 -14.9375l0 14.9375l-3.53125 0zm30.421875 0l0 -19.03125l-5.578125 0l0 -3.875l14.921875 0l0 3.875l-5.5625 0l0 19.03125l-3.78125 0zm11.8125 0l0 -22.90625l3.78125 0l0 9.015625l7.4375 0l0 -9.015625l3.796875 0l0 22.90625l-3.796875 0l0 -10.015625l-7.4375 0l0 10.015625l-3.78125 0zm18.9375 0l0 -22.90625l13.9375 0l0 3.875l-10.15625 0l0 5.078125l9.4375 0l0 3.859375l-9.4375 0l0 6.234375l10.5 0l0 3.859375l-14.28125 0zm24.734375 0l0 -22.90625l5.671875 0l3.40625 15.625l3.375 -15.625l5.6875 0l0 22.90625l-3.515625 0l0 -18.03125l-3.734375 18.03125l-3.65625 0l-3.703125 -18.03125l0 18.03125l-3.53125 0zm38.84375 0l-4.125 0l-1.640625 -5.203125l-7.5 0l-1.546875 5.203125l-4.03125 0l7.3125 -22.90625l4.015625 0l7.515625 22.90625zm-6.984375 -9.0625l-2.578125 -8.5l-2.546875 8.5l5.125 0zm8.875 9.0625l0 -22.90625l3.78125 0l0 22.90625l-3.78125 0zm7.515625 0l0 -22.71875l3.78125 0l0 18.859375l9.4375 0l0 3.859375l-13.21875 0zm15.8125 0l0 -22.90625l3.78125 0l0 22.90625l-3.78125 0zm7.453125 0l0 -22.90625l3.6875 0l7.6875 15.296875l0 -15.296875l3.53125 0l0 22.90625l-3.8125 0l-7.5625 -14.9375l0 14.9375l-3.53125 0zm27.640625 -8.421875l0 -3.859375l8.171875 0l0 9.125q-1.234375 1.453125 -3.5 2.5q-2.265625 1.046875 -4.546875 1.046875q-2.78125 0 -4.90625 -1.359375q-2.125 -1.375 -3.375 -4.09375q-1.234375 -2.734375 -1.234375 -6.421875q0 -3.78125 1.25 -6.46875q1.265625 -2.6875 3.265625 -4.015625q2.015625 -1.328125 4.8125 -1.328125q3.359375 0 5.375 1.71875q2.03125 1.703125 2.609375 5.015625l-3.75 0.859375q-0.421875 -1.765625 -1.546875 -2.703125q-1.125 -0.9375 -2.6875 -0.9375q-2.421875 0 -3.921875 1.890625q-1.5 1.875 -1.5 5.734375q0 4.140625 1.625 6.296875q1.390625 1.859375 3.765625 1.859375q1.109375 0 2.296875 -0.515625q1.203125 -0.53125 2.140625 -1.4375l0 -2.90625l-4.34375 0zm19.078125 8.421875l0 -22.71875l3.78125 0l0 18.859375l9.4375 0l0 3.859375l-13.21875 0zm15.8125 0l0 -22.90625l3.78125 0l0 22.90625l-3.78125 0zm6.453125 -7.453125l3.703125 -0.4375q0.625 4.390625 4.09375 4.390625q1.71875 0 2.703125 -0.890625q0.984375 -0.90625 0.984375 -2.234375q0 -0.78125 -0.34375 -1.328125q-0.34375 -0.546875 -1.046875 -0.890625q-0.703125 -0.359375 -3.40625 -1.1875q-2.421875 -0.734375 -3.546875 -1.59375q-1.125 -0.859375 -1.796875 -2.25q-0.65625 -1.40625 -0.65625 -3.015625q0 -1.875 0.84375 -3.375q0.859375 -1.5 2.359375 -2.265625q1.5 -0.765625 3.703125 -0.765625q3.3125 0 5.171875 1.796875q1.859375 1.796875 1.96875 5.140625l-3.796875 0.203125q-0.25 -1.84375 -1.078125 -2.578125q-0.828125 -0.734375 -2.359375 -0.734375q-1.53125 0 -2.359375 0.640625q-0.828125 0.640625 -0.828125 1.59375q0 0.9375 0.75 1.578125q0.75 0.640625 3.453125 1.40625q2.859375 0.828125 4.125 1.75q1.28125 0.90625 1.953125 2.359375q0.671875 1.4375 0.671875 3.5q0 2.984375 -1.84375 5.015625q-1.828125 2.03125 -5.734375 2.03125q-6.90625 0 -7.6875 -7.859375zm22.6875 7.453125l0 -19.03125l-5.578125 0l0 -3.875l14.921875 0l0 3.875l-5.5625 0l0 19.03125l-3.78125 0z" fill-rule="nonzero"/><path fill="#595959" d="m80.34421 508.64893l3.703125 -0.4375q0.625 4.390625 4.09375 4.390625q1.71875 0 2.703125 -0.890625q0.984375 -0.90625 0.984375 -2.234375q0 -0.78125 -0.34375 -1.328125q-0.34375 -0.546875 -1.046875 -0.890625q-0.703125 -0.359375 -3.40625 -1.1875q-2.421875 -0.734375 -3.546875 -1.59375q-1.125 -0.859375 -1.796875 -2.25q-0.65625 -1.40625 -0.65625 -3.015625q0 -1.875 0.84375 -3.375q0.859375 -1.5 2.359375 -2.265625q1.5 -0.765625 3.703125 -0.765625q3.3125 0 5.171875 1.796875q1.859375 1.796875 1.96875 5.140625l-3.796875 0.203125q-0.25 -1.84375 -1.078125 -2.578125q-0.828125 -0.734375 -2.359375 -0.734375q-1.53125 0 -2.359375 0.640625q-0.828125 0.640625 -0.828125 1.59375q0 0.9375 0.75 1.578125q0.75 0.640625 3.453125 1.40625q2.859375 0.828125 4.125 1.75q1.28125 0.90625 1.953125 2.359375q0.671875 1.4375 0.671875 3.5q0 2.984375 -1.84375 5.015625q-1.828125 2.03125 -5.734375 2.03125q-6.90625 0 -7.6875 -7.859375zm18.5625 7.453125l0 -22.71875l3.78125 0l0 18.859375l9.4375 0l0 3.859375l-13.21875 0zm32.859375 0l-4.125 0l-1.640625 -5.203125l-7.5 0l-1.546875 5.203125l-4.03125 0l7.3125 -22.90625l4.015625 0l7.515625 22.90625zm-6.984375 -9.0625l-2.578125 -8.5l-2.546875 8.5l5.125 0zm21.015625 0.640625l3.671875 1.421875q-0.859375 3.84375 -2.859375 5.625q-2.0 1.765625 -4.921875 1.765625q-3.671875 0 -5.953125 -2.828125q-2.625 -3.265625 -2.625 -8.8125q0 -5.859375 2.640625 -9.171875q2.296875 -2.875 6.171875 -2.875q3.15625 0 5.28125 2.15625q1.515625 1.53125 2.21875 4.546875l-3.75 1.09375q-0.359375 -1.859375 -1.4375 -2.84375q-1.0625 -1.0 -2.515625 -1.0q-2.078125 0 -3.390625 1.8125q-1.3125 1.8125 -1.3125 5.984375q0 4.328125 1.28125 6.15625q1.28125 1.828125 3.328125 1.828125q1.5 0 2.59375 -1.15625q1.09375 -1.171875 1.578125 -3.703125zm6.953125 8.421875l0 -22.90625l3.78125 0l0 10.171875l7.671875 -10.171875l5.109375 0l-7.078125 8.921875l7.453125 13.984375l-4.90625 0l-5.171875 -10.75l-3.078125 3.828125l0 6.921875l-3.78125 0zm38.21875 -8.421875l3.671875 1.421875q-0.859375 3.84375 -2.859375 5.625q-2.0 1.765625 -4.921875 1.765625q-3.671875 0 -5.953125 -2.828125q-2.625 -3.265625 -2.625 -8.8125q0 -5.859375 2.640625 -9.171875q2.296875 -2.875 6.171875 -2.875q3.15625 0 5.28125 2.15625q1.515625 1.53125 2.21875 4.546875l-3.75 1.09375q-0.359375 -1.859375 -1.4375 -2.84375q-1.0625 -1.0 -2.515625 -1.0q-2.078125 0 -3.390625 1.8125q-1.3125 1.8125 -1.3125 5.984375q0 4.328125 1.28125 6.15625q1.28125 1.828125 3.328125 1.828125q1.5 0 2.59375 -1.15625q1.09375 -1.171875 1.578125 -3.703125zm6.921875 8.421875l0 -22.90625l3.78125 0l0 9.015625l7.4375 0l0 -9.015625l3.796875 0l0 22.90625l-3.796875 0l0 -10.015625l-7.4375 0l0 10.015625l-3.78125 0zm35.859375 0l-4.125 0l-1.640625 -5.203125l-7.5 0l-1.546875 5.203125l-4.03125 0l7.3125 -22.90625l4.015625 0l7.515625 22.90625zm-6.984375 -9.0625l-2.578125 -8.5l-2.546875 8.5l5.125 0zm9.03125 9.0625l0 -22.90625l3.6875 0l7.6875 15.296875l0 -15.296875l3.53125 0l0 22.90625l-3.8125 0l-7.5625 -14.9375l0 14.9375l-3.53125 0zm18.9375 0l0 -22.90625l3.6875 0l7.6875 15.296875l0 -15.296875l3.53125 0l0 22.90625l-3.8125 0l-7.5625 -14.9375l0 14.9375l-3.53125 0zm18.90625 0l0 -22.90625l13.9375 0l0 3.875l-10.15625 0l0 5.078125l9.4375 0l0 3.859375l-9.4375 0l0 6.234375l10.5 0l0 3.859375l-14.28125 0zm17.59375 0l0 -22.71875l3.78125 0l0 18.859375l9.4375 0l0 3.859375l-13.21875 0z" fill-rule="nonzero"/><path fill="#595959" d="m81.40671 551.10205l0 -22.71875l3.78125 0l0 18.859375l9.4375 0l0 3.859375l-13.21875 0zm15.8125 0l0 -22.90625l3.78125 0l0 22.90625l-3.78125 0zm7.453125 0l0 -22.90625l3.78125 0l0 10.171875l7.671875 -10.171875l5.109375 0l-7.078125 8.921875l7.453125 13.984375l-4.90625 0l-5.171875 -10.75l-3.078125 3.828125l0 6.921875l-3.78125 0zm18.90625 0l0 -22.90625l13.9375 0l0 3.875l-10.15625 0l0 5.078125l9.4375 0l0 3.859375l-9.4375 0l0 6.234375l10.5 0l0 3.859375l-14.28125 0z" fill-rule="nonzero"/><path fill="#d01279" d="m169.21921 550.8052l2.71875 0q-1.359375 3.359375 -4.234375 5.1875q-2.875 1.84375 -7.046875 1.84375q-4.25 0 -7.203125 -1.671875q-2.9375 -1.671875 -4.578125 -4.90625q-1.640625 -3.21875 -1.640625 -7.75q0 -4.640625 1.796875 -8.34375q1.796875 -3.703125 4.703125 -5.53125q2.921875 -1.84375 6.625 -1.84375q3.171875 0 5.625 1.484375q2.46875 1.46875 3.875 4.25q1.421875 2.765625 1.421875 6.3125q0 4.078125 -2.140625 7.40625q-2.484375 3.859375 -6.34375 3.859375q-1.03125 0 -1.578125 -0.421875q-0.546875 -0.421875 -0.75 -1.359375q-1.5 1.78125 -3.484375 1.78125q-2.0625 0 -3.5 -1.75q-1.4375 -1.75 -1.4375 -4.765625q0 -2.96875 1.109375 -5.546875q1.109375 -2.578125 2.609375 -3.71875q1.5 -1.15625 3.234375 -1.15625q1.140625 0 1.984375 0.53125q0.84375 0.53125 1.390625 1.59375l0.3125 -1.734375l3.375 0l-1.921875 11.203125q-0.1875 1.078125 -0.1875 1.40625q0 0.359375 0.140625 0.5625q0.15625 0.1875 0.359375 0.1875q0.59375 0 1.5625 -0.875q1.296875 -1.15625 2.125 -3.171875q0.828125 -2.015625 0.828125 -4.171875q0 -2.625 -1.140625 -4.75q-1.125 -2.140625 -3.0 -3.203125q-1.859375 -1.078125 -4.515625 -1.078125q-3.15625 0 -5.515625 1.5q-2.34375 1.484375 -3.796875 4.5625q-1.4375 3.078125 -1.4375 7.046875q0 3.390625 1.359375 5.984375q1.359375 2.59375 3.71875 3.890625q2.359375 1.3125 5.765625 1.3125q3.0625 0 5.265625 -1.046875q2.203125 -1.03125 3.546875 -3.109375zm-13.84375 -6.421875q0 2.015625 0.671875 2.9375q0.671875 0.921875 1.671875 0.921875q0.875 0 1.609375 -0.65625q0.953125 -0.84375 1.640625 -2.875q0.703125 -2.03125 0.703125 -4.09375q0 -1.765625 -0.6875 -2.703125q-0.6875 -0.9375 -1.671875 -0.9375q-1.578125 0 -2.5625 1.78125q-1.375 2.5 -1.375 5.625zm18.53125 6.71875l0 -22.90625l5.671875 0l3.40625 15.625l3.375 -15.625l5.6875 0l0 22.90625l-3.515625 0l0 -18.03125l-3.734375 18.03125l-3.65625 0l-3.703125 -18.03125l0 18.03125l-3.53125 0zm21.15625 -11.3125q0 -4.09375 1.203125 -6.734375q1.21875 -2.65625 3.171875 -3.953125q1.953125 -1.296875 4.734375 -1.296875q4.03125 0 6.5625 3.078125q2.546875 3.078125 2.546875 8.765625q0 5.75 -2.6875 8.984375q-2.359375 2.859375 -6.40625 2.859375q-4.078125 0 -6.4375 -2.828125q-2.6875 -3.234375 -2.6875 -8.875zm3.90625 -0.15625q0 3.953125 1.5 5.9375q1.5 1.96875 3.71875 1.96875q2.234375 0 3.703125 -1.953125q1.46875 -1.96875 1.46875 -6.03125q0 -3.984375 -1.4375 -5.890625q-1.421875 -1.90625 -3.734375 -1.90625q-2.3125 0 -3.765625 1.921875q-1.453125 1.921875 -1.453125 5.953125zm17.3125 11.46875l0 -22.90625l3.6875 0l7.6875 15.296875l0 -15.296875l3.53125 0l0 22.90625l-3.8125 0l-7.5625 -14.9375l0 14.9375l-3.53125 0zm35.828125 0l-4.125 0l-1.640625 -5.203125l-7.5 0l-1.546875 5.203125l-4.03125 0l7.3125 -22.90625l4.015625 0l7.515625 22.90625zm-6.984375 -9.0625l-2.578125 -8.5l-2.546875 8.5l5.125 0zm8.03125 1.609375l3.703125 -0.4375q0.625 4.390625 4.09375 4.390625q1.71875 0 2.703125 -0.890625q0.984375 -0.90625 0.984375 -2.234375q0 -0.78125 -0.34375 -1.328125q-0.34375 -0.546875 -1.046875 -0.890625q-0.703125 -0.359375 -3.40625 -1.1875q-2.421875 -0.734375 -3.546875 -1.59375q-1.125 -0.859375 -1.796875 -2.25q-0.65625 -1.40625 -0.65625 -3.015625q0 -1.875 0.84375 -3.375q0.859375 -1.5 2.359375 -2.265625q1.5 -0.765625 3.703125 -0.765625q3.3125 0 5.171875 1.796875q1.859375 1.796875 1.96875 5.140625l-3.796875 0.203125q-0.25 -1.84375 -1.078125 -2.578125q-0.828125 -0.734375 -2.359375 -0.734375q-1.53125 0 -2.359375 0.640625q-0.828125 0.640625 -0.828125 1.59375q0 0.9375 0.75 1.578125q0.75 0.640625 3.453125 1.40625q2.859375 0.828125 4.125 1.75q1.28125 0.90625 1.953125 2.359375q0.671875 1.4375 0.671875 3.5q0 2.984375 -1.84375 5.015625q-1.828125 2.03125 -5.734375 2.03125q-6.90625 0 -7.6875 -7.859375zm18.46875 7.453125l0 -22.90625l3.78125 0l0 9.015625l7.4375 0l0 -9.015625l3.796875 0l0 22.90625l-3.796875 0l0 -10.015625l-7.4375 0l0 10.015625l-3.78125 0zm18.90625 0l0 -4.390625l3.609375 0l0 4.390625l-3.609375 0zm7.28125 -22.90625l3.78125 0l0 12.40625q0 2.890625 0.140625 3.765625q0.25 1.515625 1.1875 2.34375q0.953125 0.828125 2.5 0.828125q1.3125 0 2.140625 -0.578125q0.828125 -0.59375 1.125 -1.625q0.3125 -1.046875 0.3125 -4.46875l0 -12.671875l3.796875 0l0 12.03125q0 4.609375 -0.5 6.671875q-0.484375 2.046875 -2.21875 3.328125q-1.71875 1.265625 -4.546875 1.265625q-2.9375 0 -4.59375 -1.046875q-1.640625 -1.0625 -2.390625 -2.96875q-0.734375 -1.921875 -0.734375 -7.0625l0 -12.21875zm19.015625 22.90625l0 -22.90625l3.6875 0l7.6875 15.296875l0 -15.296875l3.53125 0l0 22.90625l-3.8125 0l-7.5625 -14.9375l0 14.9375l-3.53125 0zm18.78125 0l0 -22.90625l3.78125 0l0 22.90625l-3.78125 0zm12.203125 0l-6.703125 -22.90625l4.109375 0l4.75 16.953125l4.59375 -16.953125l4.03125 0l-6.71875 22.90625l-4.0625 0zm12.71875 0l0 -22.90625l13.9375 0l0 3.875l-10.15625 0l0 5.078125l9.4375 0l0 3.859375l-9.4375 0l0 6.234375l10.5 0l0 3.859375l-14.28125 0zm17.5 0l0 -22.90625l7.984375 0q3.0625 0 4.375 0.625q1.3125 0.609375 2.15625 2.140625q0.84375 1.515625 0.84375 3.640625q0 2.6875 -1.296875 4.328125q-1.28125 1.640625 -3.65625 2.0625q1.21875 0.875 2.015625 1.921875q0.796875 1.03125 2.171875 3.71875l2.28125 4.46875l-4.515625 0l-2.75 -4.984375q-1.484375 -2.703125 -2.015625 -3.375q-0.53125 -0.6875 -1.125 -0.9375q-0.59375 -0.265625 -1.90625 -0.265625l-0.78125 0l0 9.5625l-3.78125 0zm3.78125 -13.21875l2.8125 0q2.578125 0 3.28125 -0.21875q0.703125 -0.234375 1.140625 -0.921875q0.4375 -0.6875 0.4375 -1.828125q0 -1.09375 -0.4375 -1.75q-0.4375 -0.671875 -1.1875 -0.921875q-0.53125 -0.171875 -3.078125 -0.171875l-2.96875 0l0 5.8125zm14.1875 5.765625l3.703125 -0.4375q0.625 4.390625 4.09375 4.390625q1.71875 0 2.703125 -0.890625q0.984375 -0.90625 0.984375 -2.234375q0 -0.78125 -0.34375 -1.328125q-0.34375 -0.546875 -1.046875 -0.890625q-0.703125 -0.359375 -3.40625 -1.1875q-2.421875 -0.734375 -3.546875 -1.59375q-1.125 -0.859375 -1.796875 -2.25q-0.65625 -1.40625 -0.65625 -3.015625q0 -1.875 0.84375 -3.375q0.859375 -1.5 2.359375 -2.265625q1.5 -0.765625 3.703125 -0.765625q3.3125 0 5.171875 1.796875q1.859375 1.796875 1.96875 5.140625l-3.796875 0.203125q-0.25 -1.84375 -1.078125 -2.578125q-0.828125 -0.734375 -2.359375 -0.734375q-1.53125 0 -2.359375 0.640625q-0.828125 0.640625 -0.828125 1.59375q0 0.9375 0.75 1.578125q0.75 0.640625 3.453125 1.40625q2.859375 0.828125 4.125 1.75q1.28125 0.90625 1.953125 2.359375q0.671875 1.4375 0.671875 3.5q0 2.984375 -1.84375 5.015625q-1.828125 2.03125 -5.734375 2.03125q-6.90625 0 -7.6875 -7.859375zm18.34375 7.453125l0 -22.90625l3.78125 0l0 22.90625l-3.78125 0zm11.640625 0l0 -19.03125l-5.578125 0l0 -3.875l14.921875 0l0 3.875l-5.5625 0l0 19.03125l-3.78125 0zm16.734375 0l0 -9.640625l-6.875 -13.265625l4.4375 0l4.421875 9.0625l4.34375 -9.0625l4.359375 0l-6.90625 13.296875l0 9.609375l-3.78125 0zm19.109375 -11.3125q0 -4.09375 1.203125 -6.734375q1.21875 -2.65625 3.171875 -3.953125q1.953125 -1.296875 4.734375 -1.296875q4.03125 0 6.5625 3.078125q2.546875 3.078125 2.546875 8.765625q0 5.75 -2.6875 8.984375q-2.359375 2.859375 -6.40625 2.859375q-4.078125 0 -6.4375 -2.828125q-2.6875 -3.234375 -2.6875 -8.875zm3.90625 -0.15625q0 3.953125 1.5 5.9375q1.5 1.96875 3.71875 1.96875q2.234375 0 3.703125 -1.953125q1.46875 -1.96875 1.46875 -6.03125q0 -3.984375 -1.4375 -5.890625q-1.421875 -1.90625 -3.734375 -1.90625q-2.3125 0 -3.765625 1.921875q-1.453125 1.921875 -1.453125 5.953125zm17.3125 11.46875l0 -22.90625l3.6875 0l7.6875 15.296875l0 -15.296875l3.53125 0l0 22.90625l-3.8125 0l-7.5625 -14.9375l0 14.9375l-3.53125 0zm28.84375 0l-4.484375 -22.90625l3.890625 0l2.8125305 15.734375l3.4375 -15.734375l4.515625 0l3.296875 16.0l2.890625 -16.0l3.8125 0l-4.5625 22.90625l-4.03125 0l-3.75 -17.125l-3.71875 17.125l-4.1094055 0zm21.359406 -11.3125q0 -4.09375 1.203125 -6.734375q1.21875 -2.65625 3.171875 -3.953125q1.953125 -1.296875 4.734375 -1.296875q4.03125 0 6.5625 3.078125q2.546875 3.078125 2.546875 8.765625q0 5.75 -2.6875 8.984375q-2.359375 2.859375 -6.40625 2.859375q-4.078125 0 -6.4375 -2.828125q-2.6875 -3.234375 -2.6875 -8.875zm3.90625 -0.15625q0 3.953125 1.5 5.9375q1.5 1.96875 3.71875 1.96875q2.234375 0 3.703125 -1.953125q1.46875 -1.96875 1.46875 -6.03125q0 -3.984375 -1.4375 -5.890625q-1.421875 -1.90625 -3.734375 -1.90625q-2.3125 0 -3.765625 1.921875q-1.453125 1.921875 -1.453125 5.953125zm17.28125 11.46875l0 -22.90625l7.984375 0q3.0625 0 4.375 0.625q1.3125 0.609375 2.15625 2.140625q0.84375 1.515625 0.84375 3.640625q0 2.6875 -1.296875 4.328125q-1.28125 1.640625 -3.65625 2.0625q1.21875 0.875 2.015625 1.921875q0.796875 1.03125 2.171875 3.71875l2.28125 4.46875l-4.515625 0l-2.75 -4.984375q-1.484375 -2.703125 -2.015625 -3.375q-0.53125 -0.6875 -1.125 -0.9375q-0.59375 -0.265625 -1.90625 -0.265625l-0.78125 0l0 9.5625l-3.78125 0zm3.78125 -13.21875l2.8125 0q2.578125 0 3.28125 -0.21875q0.703125 -0.234375 1.140625 -0.921875q0.4375 -0.6875 0.4375 -1.828125q0 -1.09375 -0.4375 -1.75q-0.4375 -0.671875 -1.1875 -0.921875q-0.53125 -0.171875 -3.078125 -0.171875l-2.96875 0l0 5.8125zm15.1875 13.21875l0 -22.90625l3.78125 0l0 10.171875l7.671875 -10.171875l5.109375 0l-7.078125 8.921875l7.453125 13.984375l-4.90625 0l-5.171875 -10.75l-3.078125 3.828125l0 6.921875l-3.78125 0zm18.890625 0l0 -22.90625l6.09375 0q3.40625 0 4.453125 0.328125q1.671875 0.53125 2.75 2.265625q1.09375 1.734375 1.09375 4.46875q0 2.484375 -0.9375 4.171875q-0.9375 1.671875 -2.34375 2.359375q-1.40625 0.671875 -4.84375 0.671875l-2.484375 0l0 8.640625l-3.78125 0zm3.78125 -19.03125l0 6.5l2.09375 0q2.109375 0 2.859375 -0.296875q0.765625 -0.296875 1.25 -1.0625q0.484375 -0.78125 0.484375 -1.90625q0 -1.140625 -0.5 -1.921875q-0.5 -0.78125 -1.234375 -1.046875q-0.734375 -0.265625 -3.109375 -0.265625l-1.84375 0zm13.828125 19.03125l0 -22.71875l3.78125 0l0 18.859375l9.4375 0l0 3.859375l-13.21875 0zm32.859375 0l-4.125 0l-1.640625 -5.203125l-7.5 0l-1.546875 5.203125l-4.03125 0l7.3125 -22.90625l4.015625 0l7.515625 22.90625zm-6.984375 -9.0625l-2.578125 -8.5l-2.546875 8.5l5.125 0zm21.015625 0.640625l3.671875 1.421875q-0.859375 3.84375 -2.859375 5.625q-2.0 1.765625 -4.921875 1.765625q-3.671875 0 -5.953125 -2.828125q-2.625 -3.265625 -2.625 -8.8125q0 -5.859375 2.640625 -9.171875q2.296875 -2.875 6.171875 -2.875q3.15625 0 5.28125 2.15625q1.515625 1.53125 2.21875 4.546875l-3.75 1.09375q-0.359375 -1.859375 -1.4375 -2.84375q-1.0625 -1.0 -2.515625 -1.0q-2.078125 0 -3.390625 1.8125q-1.3125 1.8125 -1.3125 5.984375q0 4.328125 1.28125 6.15625q1.28125 1.828125 3.328125 1.828125q1.5 0 2.59375 -1.15625q1.09375 -1.171875 1.578125 -3.703125zm6.921875 8.421875l0 -22.90625l13.9375 0l0 3.875l-10.15625 0l0 5.078125l9.4375 0l0 3.859375l-9.4375 0l0 6.234375l10.5 0l0 3.859375l-14.28125 0z" fill-rule="nonzero"/><path fill="#595959" d="m81.32858 586.10205l0 -22.90625l12.875 0l0 3.875l-9.09375 0l0 5.421875l7.859375 0l0 3.875l-7.859375 0l0 9.734375l-3.78125 0zm15.25 -11.3125q0 -4.09375 1.203125 -6.734375q1.21875 -2.65625 3.171875 -3.953125q1.953125 -1.296875 4.734375 -1.296875q4.03125 0 6.5625 3.078125q2.546875 3.078125 2.546875 8.765625q0 5.75 -2.6875 8.984375q-2.359375 2.859375 -6.40625 2.859375q-4.078125 0 -6.4375 -2.828125q-2.6875 -3.234375 -2.6875 -8.875zm3.90625 -0.15625q0 3.953125 1.5 5.9375q1.5 1.96875 3.71875 1.96875q2.234375 0 3.703125 -1.953125q1.46875 -1.96875 1.46875 -6.03125q0 -3.984375 -1.4375 -5.890625q-1.421875 -1.90625 -3.734375 -1.90625q-2.3125 0 -3.765625 1.921875q-1.453125 1.921875 -1.453125 5.953125zm17.375 11.46875l0 -22.71875l3.78125 0l0 18.859375l9.4375 0l0 3.859375l-13.21875 0zm16.03125 0l0 -22.71875l3.78125 0l0 18.859375l9.4375 0l0 3.859375l-13.21875 0zm15.171875 -11.3125q0 -4.09375 1.203125 -6.734375q1.21875 -2.65625 3.171875 -3.953125q1.953125 -1.296875 4.734375 -1.296875q4.03125 0 6.5625 3.078125q2.546875 3.078125 2.546875 8.765625q0 5.75 -2.6875 8.984375q-2.359375 2.859375 -6.40625 2.859375q-4.078125 0 -6.4375 -2.828125q-2.6875 -3.234375 -2.6875 -8.875zm3.90625 -0.15625q0 3.953125 1.5 5.9375q1.5 1.96875 3.71875 1.96875q2.234375 0 3.703125 -1.953125q1.46875 -1.96875 1.46875 -6.03125q0 -3.984375 -1.4375 -5.890625q-1.421875 -1.90625 -3.734375 -1.90625q-2.3125 0 -3.765625 1.921875q-1.453125 1.921875 -1.453125 5.953125zm19.921875 11.46875l-4.484375 -22.90625l3.890625 0l2.8125 15.734375l3.4375 -15.734375l4.515625 0l3.296875 16.0l2.890625 -16.0l3.8125 0l-4.5625 22.90625l-4.03125 0l-3.75 -17.125l-3.71875 17.125l-4.109375 0z" fill-rule="nonzero"/><path fill="#d01279" d="m223.15671 585.8052l2.71875 0q-1.359375 3.359375 -4.234375 5.1875q-2.875 1.84375 -7.046875 1.84375q-4.25 0 -7.203125 -1.671875q-2.9375 -1.671875 -4.578125 -4.90625q-1.640625 -3.21875 -1.640625 -7.75q0 -4.640625 1.796875 -8.34375q1.796875 -3.703125 4.703125 -5.53125q2.921875 -1.84375 6.625 -1.84375q3.171875 0 5.625 1.484375q2.46875 1.46875 3.875 4.25q1.421875 2.765625 1.421875 6.3125q0 4.078125 -2.140625 7.40625q-2.484375 3.859375 -6.34375 3.859375q-1.03125 0 -1.578125 -0.421875q-0.546875 -0.421875 -0.75 -1.359375q-1.5 1.78125 -3.484375 1.78125q-2.0625 0 -3.5 -1.75q-1.4375 -1.75 -1.4375 -4.765625q0 -2.96875 1.109375 -5.546875q1.109375 -2.578125 2.609375 -3.71875q1.5 -1.15625 3.234375 -1.15625q1.140625 0 1.984375 0.53125q0.84375 0.53125 1.390625 1.59375l0.3125 -1.734375l3.375 0l-1.921875 11.203125q-0.1875 1.078125 -0.1875 1.40625q0 0.359375 0.140625 0.5625q0.15625 0.1875 0.359375 0.1875q0.59375 0 1.5625 -0.875q1.296875 -1.15625 2.125 -3.171875q0.828125 -2.015625 0.828125 -4.171875q0 -2.625 -1.140625 -4.75q-1.125 -2.140625 -3.0 -3.203125q-1.859375 -1.078125 -4.515625 -1.078125q-3.15625 0 -5.515625 1.5q-2.34375 1.484375 -3.796875 4.5625q-1.4375 3.078125 -1.4375 7.046875q0 3.390625 1.359375 5.984375q1.359375 2.59375 3.71875 3.890625q2.359375 1.3125 5.765625 1.3125q3.0625 0 5.265625 -1.046875q2.203125 -1.03125 3.546875 -3.109375zm-13.84375 -6.421875q0 2.015625 0.671875 2.9375q0.671875 0.921875 1.671875 0.921875q0.875 0 1.609375 -0.65625q0.953125 -0.84375 1.640625 -2.875q0.703125 -2.03125 0.703125 -4.09375q0 -1.765625 -0.6875 -2.703125q-0.6875 -0.9375 -1.671875 -0.9375q-1.578125 0 -2.5625 1.78125q-1.375 2.5 -1.375 5.625zm18.59375 6.71875l0 -22.90625l7.984375 0q3.0625 0 4.375 0.625q1.3125 0.609375 2.15625 2.140625q0.84375 1.515625 0.84375 3.640625q0 2.6875 -1.296875 4.328125q-1.28125 1.640625 -3.65625 2.0625q1.21875 0.875 2.015625 1.921875q0.796875 1.03125 2.171875 3.71875l2.28125 4.46875l-4.515625 0l-2.75 -4.984375q-1.484375 -2.703125 -2.015625 -3.375q-0.53125 -0.6875 -1.125 -0.9375q-0.59375 -0.265625 -1.90625 -0.265625l-0.78125 0l0 9.5625l-3.78125 0zm3.78125 -13.21875l2.8125 0q2.578125 0 3.28125 -0.21875q0.703125 -0.234375 1.140625 -0.921875q0.4375 -0.6875 0.4375 -1.828125q0 -1.09375 -0.4375 -1.75q-0.4375 -0.671875 -1.1875 -0.921875q-0.53125 -0.171875 -3.078125 -0.171875l-2.96875 0l0 5.8125zm15.15625 13.21875l0 -22.90625l13.9375 0l0 3.875l-10.15625 0l0 5.078125l9.4375 0l0 3.859375l-9.4375 0l0 6.234375l10.5 0l0 3.859375l-14.28125 0zm16.53125 -7.453125l3.703125 -0.4375q0.625 4.390625 4.09375 4.390625q1.71875 0 2.703125 -0.890625q0.984375 -0.90625 0.984375 -2.234375q0 -0.78125 -0.34375 -1.328125q-0.34375 -0.546875 -1.046875 -0.890625q-0.703125 -0.359375 -3.40625 -1.1875q-2.421875 -0.734375 -3.546875 -1.59375q-1.125 -0.859375 -1.796875 -2.25q-0.65625 -1.40625 -0.65625 -3.015625q0 -1.875 0.84375 -3.375q0.859375 -1.5 2.359375 -2.265625q1.5 -0.765625 3.703125 -0.765625q3.3125 0 5.171875 1.796875q1.859375 1.796875 1.96875 5.140625l-3.796875 0.203125q-0.25 -1.84375 -1.078125 -2.578125q-0.828125 -0.734375 -2.359375 -0.734375q-1.53125 0 -2.359375 0.640625q-0.828125 0.640625 -0.828125 1.59375q0 0.9375 0.75 1.578125q0.75 0.640625 3.453125 1.40625q2.859375 0.828125 4.125 1.75q1.28125 0.90625 1.953125 2.359375q0.671875 1.4375 0.671875 3.5q0 2.984375 -1.84375 5.015625q-1.828125 2.03125 -5.734375 2.03125q-6.90625 0 -7.6875 -7.859375zm18.4375 -15.453125l6.921875 0q2.625 0 3.953125 0.59375q1.34375 0.578125 2.46875 1.96875q1.125 1.390625 1.765625 3.609375q0.640625 2.21875 0.640625 5.515625q0 2.96875 -0.671875 5.171875q-0.671875 2.1875 -1.703125 3.46875q-1.03125 1.28125 -2.5 1.9375q-1.453125 0.640625 -3.75 0.640625l-7.125 0l0 -22.90625zm3.78125 3.875l0 15.171875l2.84375 0q1.828125 0 2.640625 -0.34375q0.828125 -0.34375 1.34375 -1.03125q0.53125 -0.703125 0.875 -2.203125q0.34375 -1.5 0.34375 -3.953125q0 -2.546875 -0.359375 -4.015625q-0.34375 -1.46875 -1.09375 -2.3125q-0.734375 -0.84375 -1.796875 -1.109375q-0.796875 -0.203125 -3.078125 -0.203125l-1.71875 0zm32.109375 19.03125l-4.125 0l-1.640625 -5.203125l-7.5 0l-1.546875 5.203125l-4.03125 0l7.3125 -22.90625l4.015625 0l7.515625 22.90625zm-6.984375 -9.0625l-2.578125 -8.5l-2.546875 8.5l5.125 0zm13.21875 9.0625l0 -19.03125l-5.578125 0l0 -3.875l14.921875 0l0 3.875l-5.5625 0l0 19.03125l-3.78125 0zm11.828125 0l0 -22.90625l12.875 0l0 3.875l-9.09375 0l0 5.421875l7.859375 0l0 3.875l-7.859375 0l0 9.734375l-3.78125 0zm16.109375 0l0 -22.71875l3.78125 0l0 18.859375l9.4375 0l0 3.859375l-13.21875 0zm15.890625 -22.90625l3.78125 0l0 12.40625q0 2.890625 0.140625 3.765625q0.25 1.515625 1.1875 2.34375q0.953125 0.828125 2.5 0.828125q1.3125 0 2.140625 -0.578125q0.828125 -0.59375 1.125 -1.625q0.3125 -1.046875 0.3125 -4.46875l0 -12.671875l3.796875 0l0 12.03125q0 4.609375 -0.5 6.671875q-0.484375 2.046875 -2.21875 3.328125q-1.71875 1.265625 -4.546875 1.265625q-2.9375 0 -4.59375 -1.046875q-1.640625 -1.0625 -2.390625 -2.96875q-0.734375 -1.921875 -0.734375 -7.0625l0 -12.21875zm25.515625 11.59375q0 -4.09375 1.203125 -6.734375q1.21875 -2.65625 3.171875 -3.953125q1.953125 -1.296875 4.734375 -1.296875q4.03125 0 6.5625 3.078125q2.546875 3.078125 2.546875 8.765625q0 5.75 -2.6875 8.984375q-2.359375 2.859375 -6.40625 2.859375q-4.078125 0 -6.4375 -2.828125q-2.6875 -3.234375 -2.6875 -8.875zm3.90625 -0.15625q0 3.953125 1.5 5.9375q1.5 1.96875 3.71875 1.96875q2.234375 0 3.703125 -1.953125q1.46875 -1.96875 1.46875 -6.03125q0 -3.984375 -1.4375 -5.890625q-1.421875 -1.90625 -3.734375 -1.90625q-2.3125 0 -3.765625 1.921875q-1.453125 1.921875 -1.453125 5.953125zm17.3125 11.46875l0 -22.90625l3.6875 0l7.6875 15.296875l0 -15.296875l3.53125 0l0 22.90625l-3.8125 0l-7.5625 -14.9375l0 14.9375l-3.53125 0zm30.421875 0l0 -19.03125l-5.578125 0l0 -3.875l14.921875 0l0 3.875l-5.5625 0l0 19.03125l-3.78125 0zm14.453125 0l-4.484375 -22.90625l3.890625 0l2.8125 15.734375l3.4375 -15.734375l4.515625 0l3.296875 16.0l2.890625 -16.0l3.8125 0l-4.5625 22.90625l-4.03125 0l-3.75 -17.125l-3.71875 17.125l-4.109375 0zm22.0 0l0 -22.90625l3.78125 0l0 22.90625l-3.78125 0zm11.640625 0l0 -19.03125l-5.578125 0l0 -3.875l14.921875 0l0 3.875l-5.5625 0l0 19.03125l-3.78125 0zm16.03125 0l0 -19.03125l-5.578125 0l0 -3.875l14.9219055 0l0 3.875l-5.5625 0l0 19.03125l-3.7812805 0zm11.8125305 0l0 -22.90625l13.9375 0l0 3.875l-10.15625 0l0 5.078125l9.4375 0l0 3.859375l-9.4375 0l0 6.234375l10.5 0l0 3.859375l-14.28125 0zm17.5 0l0 -22.90625l7.984375 0q3.0625 0 4.375 0.625q1.3125 0.609375 2.15625 2.140625q0.84375 1.515625 0.84375 3.640625q0 2.6875 -1.296875 4.328125q-1.28125 1.640625 -3.65625 2.0625q1.21875 0.875 2.015625 1.921875q0.796875 1.03125 2.171875 3.71875l2.28125 4.46875l-4.515625 0l-2.75 -4.984375q-1.484375 -2.703125 -2.015625 -3.375q-0.53125 -0.6875 -1.125 -0.9375q-0.59375 -0.265625 -1.90625 -0.265625l-0.78125 0l0 9.5625l-3.78125 0zm3.78125 -13.21875l2.8125 0q2.578125 0 3.28125 -0.21875q0.703125 -0.234375 1.140625 -0.921875q0.4375 -0.6875 0.4375 -1.828125q0 -1.09375 -0.4375 -1.75q-0.4375 -0.671875 -1.1875 -0.921875q-0.53125 -0.171875 -3.078125 -0.171875l-2.96875 0l0 5.8125z" fill-rule="nonzero"/><path fill="#595959" d="m93.32858 612.6802l3.671875 1.421875q-0.859375 3.84375 -2.859375 5.625q-2.0 1.765625 -4.921875 1.765625q-3.671875 0 -5.953125 -2.828125q-2.625 -3.265625 -2.625 -8.8125q0 -5.859375 2.640625 -9.171875q2.296875 -2.875 6.171875 -2.875q3.15625 0 5.28125 2.15625q1.515625 1.53125 2.21875 4.546875l-3.75 1.09375q-0.359375 -1.859375 -1.4375 -2.84375q-1.0625 -1.0 -2.515625 -1.0q-2.078125 0 -3.390625 1.8125q-1.3125 1.8125 -1.3125 5.984375q0 4.328125 1.28125 6.15625q1.28125 1.828125 3.328125 1.828125q1.5 0 2.59375 -1.15625q1.09375 -1.171875 1.578125 -3.703125zm6.15625 -2.890625q0 -4.09375 1.203125 -6.734375q1.21875 -2.65625 3.171875 -3.953125q1.953125 -1.296875 4.734375 -1.296875q4.03125 0 6.5625 3.078125q2.546875 3.078125 2.546875 8.765625q0 5.75 -2.6875 8.984375q-2.359375 2.859375 -6.40625 2.859375q-4.078125 0 -6.4375 -2.828125q-2.6875 -3.234375 -2.6875 -8.875zm3.90625 -0.15625q0 3.953125 1.5 5.9375q1.5 1.96875 3.71875 1.96875q2.234375 0 3.703125 -1.953125q1.46875 -1.96875 1.46875 -6.03125q0 -3.984375 -1.4375 -5.890625q-1.421875 -1.90625 -3.734375 -1.90625q-2.3125 0 -3.765625 1.921875q-1.453125 1.921875 -1.453125 5.953125zm17.3125 11.46875l0 -22.90625l3.6875 0l7.6875 15.296875l0 -15.296875l3.53125 0l0 22.90625l-3.8125 0l-7.5625 -14.9375l0 14.9375l-3.53125 0zm23.125 0l0 -19.03125l-5.578125 0l0 -3.875l14.921875 0l0 3.875l-5.5625 0l0 19.03125l-3.78125 0zm28.734375 0l-4.125 0l-1.640625 -5.203125l-7.5 0l-1.546875 5.203125l-4.03125 0l7.3125 -22.90625l4.015625 0l7.515625 22.90625zm-6.984375 -9.0625l-2.578125 -8.5l-2.546875 8.5l5.125 0zm21.015625 0.640625l3.671875 1.421875q-0.859375 3.84375 -2.859375 5.625q-2.0 1.765625 -4.921875 1.765625q-3.671875 0 -5.953125 -2.828125q-2.625 -3.265625 -2.625 -8.8125q0 -5.859375 2.640625 -9.171875q2.296875 -2.875 6.171875 -2.875q3.15625 0 5.28125 2.15625q1.515625 1.53125 2.21875 4.546875l-3.75 1.09375q-0.359375 -1.859375 -1.4375 -2.84375q-1.0625 -1.0 -2.515625 -1.0q-2.078125 0 -3.390625 1.8125q-1.3125 1.8125 -1.3125 5.984375q0 4.328125 1.28125 6.15625q1.28125 1.828125 3.328125 1.828125q1.5 0 2.59375 -1.15625q1.09375 -1.171875 1.578125 -3.703125zm11.140625 8.421875l0 -19.03125l-5.578125 0l0 -3.875l14.921875 0l0 3.875l-5.5625 0l0 19.03125l-3.78125 0z" fill-rule="nonzero"/><path fill="#d01279" d="m216.81296 598.1958l6.921875 0q2.625 0 3.953125 0.59375q1.34375 0.578125 2.46875 1.96875q1.125 1.390625 1.765625 3.609375q0.640625 2.21875 0.640625 5.515625q0 2.96875 -0.671875 5.171875q-0.671875 2.1875 -1.703125 3.46875q-1.03125 1.28125 -2.5 1.9375q-1.453125 0.640625 -3.75 0.640625l-7.125 0l0 -22.90625zm3.78125 3.875l0 15.171875l2.84375 0q1.828125 0 2.640625 -0.34375q0.828125 -0.34375 1.34375 -1.03125q0.53125 -0.703125 0.875 -2.203125q0.34375 -1.5 0.34375 -3.953125q0 -2.546875 -0.359375 -4.015625q-0.34375 -1.46875 -1.09375 -2.3125q-0.734375 -0.84375 -1.796875 -1.109375q-0.796875 -0.203125 -3.078125 -0.203125l-1.71875 0zm32.109375 19.03125l-4.125 0l-1.640625 -5.203125l-7.5 0l-1.546875 5.203125l-4.03125 0l7.3125 -22.90625l4.015625 0l7.515625 22.90625zm-6.984375 -9.0625l-2.578125 -8.5l-2.546875 8.5l5.125 0zm13.21875 9.0625l0 -19.03125l-5.578125 0l0 -3.875l14.921875 0l0 3.875l-5.5625 0l0 19.03125l-3.78125 0zm28.734375 0l-4.125 0l-1.640625 -5.203125l-7.5 0l-1.546875 5.203125l-4.03125 0l7.3125 -22.90625l4.015625 0l7.515625 22.90625zm-6.984375 -9.0625l-2.578125 -8.5l-2.546875 8.5l5.125 0zm9.015625 9.0625l0 -22.90625l12.875 0l0 3.875l-9.09375 0l0 5.421875l7.859375 0l0 3.875l-7.859375 0l0 9.734375l-3.78125 0zm16.109375 0l0 -22.71875l3.78125 0l0 18.859375l9.4375 0l0 3.859375l-13.21875 0zm15.890625 -22.90625l3.78125 0l0 12.40625q0 2.890625 0.140625 3.765625q0.25 1.515625 1.1875 2.34375q0.953125 0.828125 2.5 0.828125q1.3125 0 2.140625 -0.578125q0.828125 -0.59375 1.125 -1.625q0.3125 -1.046875 0.3125 -4.46875l0 -12.671875l3.796875 0l0 12.03125q0 4.609375 -0.5 6.671875q-0.484375 2.046875 -2.21875 3.328125q-1.71875 1.265625 -4.546875 1.265625q-2.9375 0 -4.59375 -1.046875q-1.640625 -1.0625 -2.390625 -2.96875q-0.734375 -1.921875 -0.734375 -7.0625l0 -12.21875zm18.984375 22.90625l0 -22.90625l13.9375 0l0 3.875l-10.15625 0l0 5.078125l9.4375 0l0 3.859375l-9.4375 0l0 6.234375l10.5 0l0 3.859375l-14.28125 0zm17.53125 0l0 -22.90625l3.6875 0l7.6875 15.296875l0 -15.296875l3.53125 0l0 22.90625l-3.8125 0l-7.5625 -14.9375l0 14.9375l-3.53125 0zm30.921875 -8.421875l3.671875 1.421875q-0.859375 3.84375 -2.859375 5.625q-2.0 1.765625 -4.921875 1.765625q-3.671875 0 -5.953125 -2.828125q-2.625 -3.265625 -2.625 -8.8125q0 -5.859375 2.640625 -9.171875q2.296875 -2.875 6.171875 -2.875q3.15625 0 5.28125 2.15625q1.515625 1.53125 2.21875 4.546875l-3.75 1.09375q-0.359375 -1.859375 -1.4375 -2.84375q-1.0625 -1.0 -2.515625 -1.0q-2.078125 0 -3.390625 1.8125q-1.3125 1.8125 -1.3125 5.984375q0 4.328125 1.28125 6.15625q1.28125 1.828125 3.328125 1.828125q1.5 0 2.59375 -1.15625q1.09375 -1.171875 1.578125 -3.703125zm11.84375 8.421875l0 -9.640625l-6.875 -13.265625l4.4375 0l4.421875 9.0625l4.34375 -9.0625l4.359375 0l-6.90625 13.296875l0 9.609375l-3.78125 0zm33.421875 -0.296875l2.71875 0q-1.359375 3.359375 -4.234375 5.1875q-2.875 1.84375 -7.046875 1.84375q-4.25 0 -7.203125 -1.671875q-2.9375 -1.671875 -4.578125 -4.90625q-1.640625 -3.21875 -1.640625 -7.75q0 -4.640625 1.796875 -8.34375q1.796875 -3.703125 4.703125 -5.53125q2.921875 -1.84375 6.625 -1.84375q3.171875 0 5.625 1.484375q2.46875 1.46875 3.875 4.25q1.421875 2.765625 1.421875 6.3125q0 4.078125 -2.140625 7.40625q-2.484375 3.859375 -6.34375 3.859375q-1.03125 0 -1.578125 -0.421875q-0.546875 -0.421875 -0.75 -1.359375q-1.5 1.78125 -3.484375 1.78125q-2.0625 0 -3.5 -1.75q-1.4375 -1.75 -1.4375 -4.765625q0 -2.96875 1.109375 -5.546875q1.109375 -2.578125 2.609375 -3.71875q1.5 -1.15625 3.234375 -1.15625q1.140625 0 1.984375 0.53125q0.84375 0.53125 1.390625 1.59375l0.3125 -1.734375l3.375 0l-1.921875 11.203125q-0.1875 1.078125 -0.1875 1.40625q0 0.359375 0.140625 0.5625q0.15625 0.1875 0.359375 0.1875q0.59375 0 1.5625 -0.875q1.296875 -1.15625 2.125 -3.171875q0.828125 -2.015625 0.828125 -4.171875q0 -2.625 -1.140625 -4.75q-1.125 -2.140625 -3.0 -3.203125q-1.859375 -1.078125 -4.515625 -1.078125q-3.15625 0 -5.515625 1.5q-2.34375 1.484375 -3.796875 4.5625q-1.4375 3.078125 -1.4375 7.046875q0 3.390625 1.359375 5.984375q1.359375 2.59375 3.71875 3.890625q2.359375 1.3125 5.765625 1.3125q3.0625 0 5.265625 -1.046875q2.203125 -1.03125 3.546875 -3.109375zm-13.84375 -6.421875q0 2.015625 0.671875 2.9375q0.671875 0.921875 1.671875 0.921875q0.875 0 1.609375 -0.65625q0.953125 -0.84375 1.640625 -2.875q0.703125 -2.03125 0.703125 -4.09375q0 -1.765625 -0.6875 -2.703125q-0.6875 -0.9375 -1.671875 -0.9375q-1.578125 0 -2.5625 1.78125q-1.375 2.5 -1.375 5.625zm18.53125 6.71875l0 -22.90625l5.671875 0l3.40625 15.625l3.375 -15.625l5.6875 0l0 22.90625l-3.515625 0l0 -18.03125l-3.734375 18.03125l-3.65625 0l-3.703125 -18.03125l0 18.03125l-3.53125 0zm21.15625 -11.3125q0 -4.09375 1.203125 -6.734375q1.21875 -2.65625 3.171875 -3.953125q1.953125 -1.296875 4.734375 -1.296875q4.03125 0 6.5625 3.078125q2.546875 3.078125 2.546875 8.765625q0 5.75 -2.6875 8.984375q-2.359375 2.859375 -6.40625 2.859375q-4.078125 0 -6.4375 -2.828125q-2.6875 -3.234375 -2.6875 -8.875zm3.90625 -0.15625q0 3.953125 1.5 5.9375q1.5 1.96875 3.71875 1.96875q2.234375 0 3.703125 -1.953125q1.46875 -1.96875 1.46875 -6.03125q0 -3.984375 -1.4375 -5.890625q-1.421875 -1.90625 -3.734375 -1.90625q-2.3125 0 -3.765625 1.921875q-1.453125 1.921875 -1.453125 5.953125zm17.3125 11.46875l0 -22.90625l3.6875 0l7.6875 15.296875l0 -15.296875l3.53125 0l0 22.90625l-3.8125 0l-7.5625 -14.9375l0 14.9375l-3.53125 0zm35.828156 0l-4.125 0l-1.6406555 -5.203125l-7.5 0l-1.546875 5.203125l-4.03125 0l7.3125 -22.90625l4.015625 0l7.5156555 22.90625zm-6.9844055 -9.0625l-2.578125 -8.5l-2.546875 8.5l5.125 0zm8.0312805 1.609375l3.703125 -0.4375q0.625 4.390625 4.09375 4.390625q1.71875 0 2.703125 -0.890625q0.984375 -0.90625 0.984375 -2.234375q0 -0.78125 -0.34375 -1.328125q-0.34375 -0.546875 -1.046875 -0.890625q-0.703125 -0.359375 -3.40625 -1.1875q-2.421875 -0.734375 -3.546875 -1.59375q-1.125 -0.859375 -1.796875 -2.25q-0.65625 -1.40625 -0.65625 -3.015625q0 -1.875 0.84375 -3.375q0.859375 -1.5 2.359375 -2.265625q1.5 -0.765625 3.703125 -0.765625q3.3125 0 5.171875 1.796875q1.859375 1.796875 1.96875 5.140625l-3.796875 0.203125q-0.25 -1.84375 -1.078125 -2.578125q-0.828125 -0.734375 -2.359375 -0.734375q-1.53125 0 -2.359375 0.640625q-0.828125 0.640625 -0.828125 1.59375q0 0.9375 0.75 1.578125q0.75 0.640625 3.453125 1.40625q2.859375 0.828125 4.125 1.75q1.28125 0.90625 1.953125 2.359375q0.671875 1.4375 0.671875 3.5q0 2.984375 -1.84375 5.015625q-1.828125 2.03125 -5.734375 2.03125q-6.90625 0 -7.6875 -7.859375zm18.46875 7.453125l0 -22.90625l3.78125 0l0 9.015625l7.4375 0l0 -9.015625l3.796875 0l0 22.90625l-3.796875 0l0 -10.015625l-7.4375 0l0 10.015625l-3.78125 0zm18.90625 0l0 -4.390625l3.609375 0l0 4.390625l-3.609375 0zm7.328125 0l0 -22.90625l13.9375 0l0 3.875l-10.15625 0l0 5.078125l9.4375 0l0 3.859375l-9.4375 0l0 6.234375l10.5 0l0 3.859375l-14.28125 0zm17.46875 -22.90625l6.921875 0q2.625 0 3.953125 0.59375q1.34375 0.578125 2.46875 1.96875q1.125 1.390625 1.765625 3.609375q0.640625 2.21875 0.640625 5.515625q0 2.96875 -0.671875 5.171875q-0.671875 2.1875 -1.703125 3.46875q-1.03125 1.28125 -2.5 1.9375q-1.453125 0.640625 -3.75 0.640625l-7.125 0l0 -22.90625zm3.78125 3.875l0 15.171875l2.84375 0q1.828125 0 2.640625 -0.34375q0.828125 -0.34375 1.34375 -1.03125q0.53125 -0.703125 0.875 -2.203125q0.34375 -1.5 0.34375 -3.953125q0 -2.546875 -0.359375 -4.015625q-0.34375 -1.46875 -1.09375 -2.3125q-0.734375 -0.84375 -1.796875 -1.109375q-0.796875 -0.203125 -3.078125 -0.203125l-1.71875 0zm15.140625 -3.875l3.78125 0l0 12.40625q0 2.890625 0.140625 3.765625q0.25 1.515625 1.1875 2.34375q0.953125 0.828125 2.5 0.828125q1.3125 0 2.140625 -0.578125q0.828125 -0.59375 1.125 -1.625q0.3125 -1.046875 0.3125 -4.46875l0 -12.671875l3.796875 0l0 12.03125q0 4.609375 -0.5 6.671875q-0.484375 2.046875 -2.21875 3.328125q-1.71875 1.265625 -4.546875 1.265625q-2.9375 0 -4.59375 -1.046875q-1.640625 -1.0625 -2.390625 -2.96875q-0.734375 -1.921875 -0.734375 -7.0625l0 -12.21875z" fill-rule="nonzero"/><path fill="#5a5a5a" d="m86.09421 656.10205l-6.703125 -22.90625l4.109375 0l4.75 16.953125l4.59375 -16.953125l4.03125 0l-6.71875 22.90625l-4.0625 0zm12.59375 0l0 -22.90625l3.78125 0l0 22.90625l-3.78125 0zm6.453125 -7.453125l3.703125 -0.4375q0.625 4.390625 4.09375 4.390625q1.71875 0 2.703125 -0.890625q0.984375 -0.90625 0.984375 -2.234375q0 -0.78125 -0.34375 -1.328125q-0.34375 -0.546875 -1.046875 -0.890625q-0.703125 -0.359375 -3.40625 -1.1875q-2.421875 -0.734375 -3.546875 -1.59375q-1.125 -0.859375 -1.796875 -2.25q-0.65625 -1.40625 -0.65625 -3.015625q0 -1.875 0.84375 -3.375q0.859375 -1.5 2.359375 -2.265625q1.5 -0.765625 3.703125 -0.765625q3.3125 0 5.171875 1.796875q1.859375 1.796875 1.96875 5.140625l-3.796875 0.203125q-0.25 -1.84375 -1.078125 -2.578125q-0.828125 -0.734375 -2.359375 -0.734375q-1.53125 0 -2.359375 0.640625q-0.828125 0.640625 -0.828125 1.59375q0 0.9375 0.75 1.578125q0.75 0.640625 3.453125 1.40625q2.859375 0.828125 4.125 1.75q1.28125 0.90625 1.953125 2.359375q0.671875 1.4375 0.671875 3.5q0 2.984375 -1.84375 5.015625q-1.828125 2.03125 -5.734375 2.03125q-6.90625 0 -7.6875 -7.859375zm18.34375 7.453125l0 -22.90625l3.78125 0l0 22.90625l-3.78125 0zm11.640625 0l0 -19.03125l-5.578125 0l0 -3.875l14.921875 0l0 3.875l-5.5625 0l0 19.03125l-3.78125 0z" fill-rule="nonzero"/><path fill="#d01279" d="m154.17233 656.10205l0 -22.90625l5.671875 0l3.40625 15.625l3.375 -15.625l5.6875 0l0 22.90625l-3.515625 0l0 -18.03125l-3.734375 18.03125l-3.65625 0l-3.703125 -18.03125l0 18.03125l-3.53125 0zm21.15625 -11.3125q0 -4.09375 1.203125 -6.734375q1.21875 -2.65625 3.171875 -3.953125q1.953125 -1.296875 4.734375 -1.296875q4.03125 0 6.5625 3.078125q2.546875 3.078125 2.546875 8.765625q0 5.75 -2.6875 8.984375q-2.359375 2.859375 -6.40625 2.859375q-4.078125 0 -6.4375 -2.828125q-2.6875 -3.234375 -2.6875 -8.875zm3.90625 -0.15625q0 3.953125 1.5 5.9375q1.5 1.96875 3.71875 1.96875q2.234375 0 3.703125 -1.953125q1.46875 -1.96875 1.46875 -6.03125q0 -3.984375 -1.4375 -5.890625q-1.421875 -1.90625 -3.734375 -1.90625q-2.3125 0 -3.765625 1.921875q-1.453125 1.921875 -1.453125 5.953125zm17.3125 11.46875l0 -22.90625l3.6875 0l7.6875 15.296875l0 -15.296875l3.53125 0l0 22.90625l-3.8125 0l-7.5625 -14.9375l0 14.9375l-3.53125 0zm35.828125 0l-4.125 0l-1.640625 -5.203125l-7.5 0l-1.546875 5.203125l-4.03125 0l7.3125 -22.90625l4.015625 0l7.515625 22.90625zm-6.984375 -9.0625l-2.578125 -8.5l-2.546875 8.5l5.125 0zm8.03125 1.609375l3.703125 -0.4375q0.625 4.390625 4.09375 4.390625q1.71875 0 2.703125 -0.890625q0.984375 -0.90625 0.984375 -2.234375q0 -0.78125 -0.34375 -1.328125q-0.34375 -0.546875 -1.046875 -0.890625q-0.703125 -0.359375 -3.40625 -1.1875q-2.421875 -0.734375 -3.546875 -1.59375q-1.125 -0.859375 -1.796875 -2.25q-0.65625 -1.40625 -0.65625 -3.015625q0 -1.875 0.84375 -3.375q0.859375 -1.5 2.359375 -2.265625q1.5 -0.765625 3.703125 -0.765625q3.3125 0 5.171875 1.796875q1.859375 1.796875 1.96875 5.140625l-3.796875 0.203125q-0.25 -1.84375 -1.078125 -2.578125q-0.828125 -0.734375 -2.359375 -0.734375q-1.53125 0 -2.359375 0.640625q-0.828125 0.640625 -0.828125 1.59375q0 0.9375 0.75 1.578125q0.75 0.640625 3.453125 1.40625q2.859375 0.828125 4.125 1.75q1.28125 0.90625 1.953125 2.359375q0.671875 1.4375 0.671875 3.5q0 2.984375 -1.84375 5.015625q-1.828125 2.03125 -5.734375 2.03125q-6.90625 0 -7.6875 -7.859375zm18.46875 7.453125l0 -22.90625l3.78125 0l0 9.015625l7.4375 0l0 -9.015625l3.796875 0l0 22.90625l-3.796875 0l0 -10.015625l-7.4375 0l0 10.015625l-3.78125 0zm18.90625 0l0 -4.390625l3.609375 0l0 4.390625l-3.609375 0zm7.328125 0l0 -22.90625l13.9375 0l0 3.875l-10.15625 0l0 5.078125l9.4375 0l0 3.859375l-9.4375 0l0 6.234375l10.5 0l0 3.859375l-14.28125 0zm17.46875 -22.90625l6.921875 0q2.625 0 3.953125 0.59375q1.34375 0.578125 2.46875 1.96875q1.125 1.390625 1.765625 3.609375q0.640625 2.21875 0.640625 5.515625q0 2.96875 -0.671875 5.171875q-0.671875 2.1875 -1.703125 3.46875q-1.03125 1.28125 -2.5 1.9375q-1.453125 0.640625 -3.75 0.640625l-7.125 0l0 -22.90625zm3.78125 3.875l0 15.171875l2.84375 0q1.828125 0 2.640625 -0.34375q0.828125 -0.34375 1.34375 -1.03125q0.53125 -0.703125 0.875 -2.203125q0.34375 -1.5 0.34375 -3.953125q0 -2.546875 -0.359375 -4.015625q-0.34375 -1.46875 -1.09375 -2.3125q-0.734375 -0.84375 -1.796875 -1.109375q-0.796875 -0.203125 -3.078125 -0.203125l-1.71875 0zm15.140625 -3.875l3.78125 0l0 12.40625q0 2.890625 0.140625 3.765625q0.25 1.515625 1.1875 2.34375q0.953125 0.828125 2.5 0.828125q1.3125 0 2.140625 -0.578125q0.828125 -0.59375 1.125 -1.625q0.3125 -1.046875 0.3125 -4.46875l0 -12.671875l3.796875 0l0 12.03125q0 4.609375 -0.5 6.671875q-0.484375 2.046875 -2.21875 3.328125q-1.71875 1.265625 -4.546875 1.265625q-2.9375 0 -4.59375 -1.046875q-1.640625 -1.0625 -2.390625 -2.96875q-0.734375 -1.921875 -0.734375 -7.0625l0 -12.21875zm17.03125 23.296875l4.65625 -23.6875l2.703125 0l-4.703125 23.6875l-2.65625 0zm9.21875 -23.296875l6.921875 0q2.625 0 3.953125 0.59375q1.34375 0.578125 2.46875 1.96875q1.125 1.390625 1.765625 3.609375q0.640625 2.21875 0.640625 5.515625q0 2.96875 -0.671875 5.171875q-0.671875 2.1875 -1.703125 3.46875q-1.03125 1.28125 -2.5 1.9375q-1.453125 0.640625 -3.75 0.640625l-7.125 0l0 -22.90625zm3.78125 3.875l0 15.171875l2.84375 0q1.828125 0 2.640625 -0.34375q0.828125 -0.34375 1.34375 -1.03125q0.53125 -0.703125 0.875 -2.203125q0.34375 -1.5 0.34375 -3.953125q0 -2.546875 -0.359375 -4.015625q-0.34375 -1.46875 -1.09375 -2.3125q-0.734375 -0.84375 -1.796875 -1.109375q-0.796875 -0.203125 -3.078125 -0.203125l-1.71875 0zm32.109375 19.03125l-4.125 0l-1.640625 -5.203125l-7.5 0l-1.546875 5.203125l-4.03125 0l7.3125 -22.90625l4.015625 0l7.515625 22.90625zm-6.984375 -9.0625l-2.578125 -8.5l-2.546875 8.5l5.125 0zm13.21875 9.0625l0 -19.03125l-5.578125 0l0 -3.875l14.921875 0l0 3.875l-5.5625 0l0 19.03125l-3.78125 0zm28.734375 0l-4.125 0l-1.640625 -5.203125l-7.5 0l-1.546875 5.203125l-4.03125 0l7.3125 -22.90625l4.015625 0l7.515625 22.90625zm-6.984375 -9.0625l-2.578125 -8.5l-2.546875 8.5l5.125 0zm7.90625 2.953125l0 -4.390625l7.078125 0l0 4.390625l-7.078125 0zm9.84375 6.109375l0 -22.90625l12.875 0l0 3.875l-9.09375 0l0 5.421875l7.859375 0l0 3.875l-7.859375 0l0 9.734375l-3.78125 0zm16.109375 0l0 -22.71875l3.78125 0l0 18.859375l9.4375 0l0 3.859375l-13.21875 0zm15.890625 -22.90625l3.78125 0l0 12.40625q0 2.890625 0.140625 3.765625q0.25 1.515625 1.1875 2.34375q0.953125 0.828125 2.5 0.828125q1.3125 0 2.140625 -0.578125q0.828125 -0.59375 1.125 -1.625q0.3125 -1.046875 0.3125 -4.46875l0 -12.671875l3.796875 0l0 12.03125q0 4.609375 -0.5 6.671875q-0.484375 2.046875 -2.21875 3.328125q-1.71875 1.265625 -4.546875 1.265625q-2.9375 0 -4.59375 -1.046875q-1.640625 -1.0625 -2.390625 -2.96875q-0.734375 -1.921875 -0.734375 -7.0625l0 -12.21875zm18.984375 22.90625l0 -22.90625l13.9375 0l0 3.875l-10.15625 0l0 5.078125l9.4375 0l0 3.859375l-9.4375 0l0 6.234375l10.5 0l0 3.859375l-14.28125 0zm17.53125 0l0 -22.90625l3.6875 0l7.6875 15.296875l0 -15.296875l3.53125 0l0 22.90625l-3.8125 0l-7.5625 -14.9375l0 14.9375l-3.53125 0zm30.921906 -8.421875l3.671875 1.421875q-0.859375 3.84375 -2.859375 5.625q-2.0 1.765625 -4.921875 1.765625q-3.671875 0 -5.9531555 -2.828125q-2.625 -3.265625 -2.625 -8.8125q0 -5.859375 2.640625 -9.171875q2.2969055 -2.875 6.1719055 -2.875q3.15625 0 5.28125 2.15625q1.515625 1.53125 2.21875 4.546875l-3.75 1.09375q-0.359375 -1.859375 -1.4375 -2.84375q-1.0625 -1.0 -2.515625 -1.0q-2.078125 0 -3.390625 1.8125q-1.3125 1.8125 -1.3125 5.984375q0 4.328125 1.28125 6.15625q1.28125 1.828125 3.328125 1.828125q1.5 0 2.59375 -1.15625q1.09375 -1.171875 1.578125 -3.703125zm11.84375 8.421875l0 -9.640625l-6.875 -13.265625l4.4375 0l4.421875 9.0625l4.34375 -9.0625l4.359375 0l-6.90625 13.296875l0 9.609375l-3.78125 0z" fill-rule="nonzero"/></g></svg>