<svg version="1.1" viewBox="0.0 0.0 1280.0 720.0" fill="none" stroke="none" stroke-linecap="square" stroke-miterlimit="10" xmlns:xlink="http://www.w3.org/1999/xlink" xmlns="http://www.w3.org/2000/svg"><clipPath id="p2.0"><path d="m0 0l1280.0 0l0 720.0l-1280.0 0l0 -720.0z" clip-rule="nonzero"/></clipPath><g clip-path="url(#p2.0)"><path fill="#ffffff" d="m0 0l1280.0 0l0 720.0l-1280.0 0z" fill-rule="evenodd"/><path fill="#000000" fill-opacity="0.0" d="m80.44621 72.78215l1055.0552 0l0 194.20473l-1055.0552 0z" fill-rule="evenodd"/><path fill="#595959" d="m93.47746 132.07816l0 -45.437508l7.5625 0l0 37.71875l18.875 0l0 7.7187576l-26.4375 0zm31.875 0l0 -45.812508l27.875 0l0 7.75l-20.3125 0l0 10.15625l18.875 0l0 7.71875l-18.875 0l0 12.46875l21.0 0l0 7.7187576l-28.5625 0zm68.84375 0l-8.25 0l-3.28125 -10.406258l-15.0 0l-3.09375 10.406258l-8.0625 0l14.625 -45.812508l8.03125 0l15.03125 45.812508zm-13.96875 -18.125008l-5.15625 -17.0l-5.09375 17.0l10.25 0zm18.0 18.125008l0 -45.812508l15.96875 0q6.125 0 8.75 1.234375q2.625 1.234375 4.3125 4.28125q1.6875 3.046875 1.6875 7.296875q0 5.375 -2.578125 8.65625q-2.578125 3.28125 -7.328125 4.125q2.4375 1.75 4.03125 3.828125q1.59375 2.078125 4.34375 7.453125l4.5625 8.937508l-9.03125 0l-5.5 -9.968758q-2.96875 -5.40625 -4.03125 -6.765625q-1.0625 -1.359375 -2.25 -1.875q-1.1875 -0.515625 -3.8125 -0.515625l-1.5625 0l0 19.125008l-7.5625 0zm7.5625 -26.437508l5.625 0q5.15625 0 6.5625 -0.453125q1.40625 -0.453125 2.28125 -1.828125q0.875 -1.375 0.875 -3.65625q0 -2.1875 -0.875 -3.515625q-0.875 -1.328125 -2.375 -1.828125q-1.0625 -0.34375 -6.15625 -0.34375l-5.9375 0l0 11.625zm30.375 26.437508l0 -45.812508l7.375 0l15.374985 30.59375l0 -30.59375l7.0625 0l0 45.812508l-7.625 0l-15.124985 -29.875008l0 29.875008l-7.0625 0zm52.406235 0l0 -45.812508l7.5625 0l0 18.03125l14.875 0l0 -18.03125l7.59375 0l0 45.812508l-7.59375 0l0 -20.031258l-14.875 0l0 20.031258l-7.5625 0zm36.34375 -22.625008q0 -8.1875 2.421875 -13.484375q2.421875 -5.296875 6.328125 -7.890625q3.90625 -2.59375 9.46875 -2.59375q8.0625 0 13.140625 6.15625q5.078125 6.15625 5.078125 17.53125q0 11.5 -5.375 17.96875q-4.71875 5.7187576 -12.8125 5.7187576q-8.15625 0 -12.875 -5.6562576q-5.375 -6.46875 -5.375 -17.75zm7.8125 -0.3125q0 7.90625 3.0 11.859375q3.0 3.953125 7.4375 3.953125q4.46875 0 7.40625 -3.921875q2.9375 -3.921875 2.9375 -12.046875q0 -7.96875 -2.859375 -11.78125q-2.859375 -3.8125 -7.484375 -3.8125q-4.625 0 -7.53125 3.84375q-2.90625 3.84375 -2.90625 11.90625zm39.84375 22.937508l-8.96875 -45.812508l7.78125 0l5.625 31.46875l6.875 -31.46875l9.03125 0l6.59375 32.0l5.78125 -32.0l7.625 0l-9.125 45.812508l-8.0625 0l-7.5 -34.250008l-7.4375 34.250008l-8.21875 0zm67.28125 0l0 -38.062508l-11.15625 0l0 -7.75l29.84375 0l0 7.75l-11.125 0l0 38.062508l-7.5625 0zm22.09375 -22.625008q0 -8.1875 2.421875 -13.484375q2.421875 -5.296875 6.328125 -7.890625q3.90625 -2.59375 9.46875 -2.59375q8.0625 0 13.140625 6.15625q5.078125 6.15625 5.078125 17.53125q0 11.5 -5.375 17.96875q-4.71875 5.7187576 -12.8125 5.7187576q-8.15625 0 -12.875 -5.6562576q-5.375 -6.46875 -5.375 -17.75zm7.8125 -0.3125q0 7.90625 3.0 11.859375q3.0 3.953125 7.4375 3.953125q4.46875 0 7.40625 -3.921875q2.9375 -3.921875 2.9375 -12.046875q0 -7.96875 -2.859375 -11.78125q-2.859375 -3.8125 -7.484375 -3.8125q-4.625 0 -7.53125 3.84375q-2.90625 3.84375 -2.90625 11.90625zm49.06253 -22.875l7.5625 0l0 24.8125q0 5.78125 0.28125 7.53125q0.5 3.03125 2.390625 4.6875q1.890625 1.65625 4.984375 1.65625q2.625 0 4.28125 -1.171875q1.65625 -1.171875 2.265625 -3.25q0.609375 -2.078125 0.609375 -8.921875l0 -25.34375l7.59375 0l0 24.0625q0 9.21875 -0.984375 13.328125q-0.984375 4.109375 -4.4375 6.6562576q-3.453125 2.546875 -9.109375 2.546875q-5.875 0 -9.171875 -2.109375q-3.296875 -2.109375 -4.78125 -5.9375076q-1.484375 -3.828125 -1.484375 -14.109375l0 -24.4375zm36.03125 30.90625l7.40625 -0.875q1.25 8.78125 8.1875 8.78125q3.4375 0 5.40625 -1.796875q1.96875 -1.796875 1.96875 -4.453125q0 -1.5625 -0.6875 -2.65625q-0.6875 -1.09375 -2.09375 -1.796875q-1.40625 -0.703125 -6.8125 -2.359375q-4.84375 -1.46875 -7.09375 -3.1875q-2.25 -1.71875 -3.578125 -4.515625q-1.328125 -2.796875 -1.328125 -6.015625q0 -3.75 1.703125 -6.75q1.703125 -3.0 4.703125 -4.53125q3.0 -1.53125 7.40625 -1.53125q6.625 0 10.34375 3.59375q3.71875 3.59375 3.9375 10.28125l-7.59375 0.40625q-0.5 -3.6875 -2.15625 -5.15625q-1.65625 -1.46875 -4.71875 -1.46875q-3.0625 0 -4.71875 1.28125q-1.65625 1.28125 -1.65625 3.1875q0 1.875 1.5 3.15625q1.5 1.28125 6.90625 2.8125q5.71875 1.65625 8.265625 3.484375q2.546875 1.828125 3.890625 4.71875q1.34375 2.890625 1.34375 7.015625q0 5.96875 -3.671875 10.031258q-3.671875 4.0625 -11.484375 4.0625q-13.8125 0 -15.375 -15.718758zm36.9375 14.906258l0 -45.812508l27.875 0l0 7.75l-20.3125 0l0 10.15625l18.875 0l0 7.71875l-18.875 0l0 12.46875l21.0 0l0 7.7187576l-28.5625 0z" fill-rule="nonzero"/><path fill="#5a5a5a" d="m641.4462 132.07816l0 -45.812508l7.375 0l15.375 30.59375l0 -30.59375l7.0625 0l0 45.812508l-7.625 0l-15.125 -29.875008l0 29.875008l-7.0625 0zm37.8125 0l0 -45.812508l27.875 0l0 7.75l-20.3125 0l0 10.15625l18.875 0l0 7.71875l-18.875 0l0 12.46875l21.0 0l0 7.7187576l-28.5625 0zm40.28125 0l-8.96875 -45.812508l7.78125 0l5.625 31.46875l6.875 -31.46875l9.03125 0l6.59375 32.0l5.78125 -32.0l7.625 0l-9.125 45.812508l-8.0625 0l-7.5 -34.250008l-7.4375 34.250008l-8.21875 0zm67.28125 0l0 -38.062508l-11.15625 0l0 -7.75l29.84375 0l0 7.75l-11.125 0l0 38.062508l-7.5625 0zm22.09375 -22.625008q0 -8.1875 2.421875 -13.484375q2.421875 -5.296875 6.328125 -7.890625q3.90625 -2.59375 9.46875 -2.59375q8.0625 0 13.140625 6.15625q5.078125 6.15625 5.078125 17.53125q0 11.5 -5.375 17.96875q-4.71875 5.7187576 -12.8125 5.7187576q-8.15625 0 -12.875 -5.6562576q-5.375 -6.46875 -5.375 -17.75zm7.8125 -0.3125q0 7.90625 3.0 11.859375q3.0 3.953125 7.4375 3.953125q4.46875 0 7.40625 -3.921875q2.9375 -3.921875 2.9375 -12.046875q0 -7.96875 -2.859375 -11.78125q-2.859375 -3.8125 -7.484375 -3.8125q-4.625 0 -7.53125 3.84375q-2.90625 3.84375 -2.90625 11.90625zm33.03125 0.3125q0 -8.1875 2.421875 -13.484375q2.421875 -5.296875 6.328125 -7.890625q3.90625 -2.59375 9.46875 -2.59375q8.0625 0 13.140625 6.15625q5.078125 6.15625 5.078125 17.53125q0 11.5 -5.375 17.96875q-4.71875 5.7187576 -12.8125 5.7187576q-8.15625 0 -12.875 -5.6562576q-5.375 -6.46875 -5.375 -17.75zm7.8125 -0.3125q0 7.90625 3.0 11.859375q3.0 3.953125 7.4375 3.953125q4.46875 0 7.40625 -3.921875q2.9375 -3.921875 2.9375 -12.046875q0 -7.96875 -2.859375 -11.78125q-2.859375 -3.8125 -7.484375 -3.8125q-4.625 0 -7.53125 3.84375q-2.90625 3.84375 -2.90625 11.90625zm34.75 22.937508l0 -45.437508l7.5625 0l0 37.71875l18.875 0l0 7.7187576l-26.4375 0zm29.9375 -14.906258l7.40625 -0.875q1.25 8.78125 8.1875 8.78125q3.4375 0 5.40625 -1.796875q1.96875 -1.796875 1.96875 -4.453125q0 -1.5625 -0.6875 -2.65625q-0.6875 -1.09375 -2.09375 -1.796875q-1.40625 -0.703125 -6.8125 -2.359375q-4.84375 -1.46875 -7.09375 -3.1875q-2.25 -1.71875 -3.578125 -4.515625q-1.328125 -2.796875 -1.328125 -6.015625q0 -3.75 1.703125 -6.75q1.703125 -3.0 4.703125 -4.53125q3.0 -1.53125 7.40625 -1.53125q6.625 0 10.34375 3.59375q3.71875 3.59375 3.9375 10.28125l-7.59375 0.40625q-0.5 -3.6875 -2.15625 -5.15625q-1.65625 -1.46875 -4.71875 -1.46875q-3.0625 0 -4.71875 1.28125q-1.65625 1.28125 -1.65625 3.1875q0 1.875 1.5 3.15625q1.5 1.28125 6.90625 2.8125q5.71875 1.65625 8.265625 3.484375q2.546875 1.828125 3.890625 4.71875q1.34375 2.890625 1.34375 7.015625q0 5.96875 -3.671875 10.031258q-3.671875 4.0625 -11.484375 4.0625q-13.8125 0 -15.375 -15.718758z" fill-rule="nonzero"/><path fill="#595959" d="m982.2275 132.07816l0 -38.062508l-11.15625 0l0 -7.75l29.84375 0l0 7.75l-11.125 0l0 38.062508l-7.5625 0zm22.09375 -22.625008q0 -8.1875 2.421875 -13.484375q2.421875 -5.296875 6.328125 -7.890625q3.90625 -2.59375 9.46875 -2.59375q8.062439 0 13.140564 6.15625q5.078125 6.15625 5.078125 17.53125q0 11.5 -5.375 17.96875q-4.71875 5.7187576 -12.812439 5.7187576q-8.15625 0 -12.875 -5.6562576q-5.375 -6.46875 -5.375 -17.75zm7.8125 -0.3125q0 7.90625 3.0 11.859375q3.0 3.953125 7.4375 3.953125q4.468689 0 7.406189 -3.921875q2.9375 -3.921875 2.9375 -12.046875q0 -7.96875 -2.859375 -11.78125q-2.859375 -3.8125 -7.484314 -3.8125q-4.625 0 -7.53125 3.84375q-2.90625 3.84375 -2.90625 11.90625z" fill-rule="nonzero"/><path fill="#d01279" d="m127.13371 201.07814l-8.25 0l-3.28125 -10.40625l-15.0 0l-3.09375 10.40625l-8.0625 0l14.625 -45.8125l8.03125 0l15.03125 45.8125zm-13.96875 -18.125l-5.15625 -17.0l-5.09375 17.0l10.25 0zm18.0625 18.125l0 -45.8125l7.375 0l15.375 30.59375l0 -30.59375l7.0625 0l0 45.8125l-7.625 0l-15.125 -29.875l0 29.875l-7.0625 0zm71.65625 0l-8.25 0l-3.28125 -10.40625l-15.0 0l-3.09375 10.40625l-8.0625 0l14.625 -45.8125l8.03125 0l15.03125 45.8125zm-13.96875 -18.125l-5.15625 -17.0l-5.09375 17.0l10.25 0zm18.1875 18.125l0 -45.4375l7.5625 0l0 37.71875l18.875 0l0 7.71875l-26.4375 0zm41.71875 0l0 -19.28125l-13.75 -26.53125l8.875 0l8.84375 18.125l8.687485 -18.125l8.71875 0l-13.8125 26.59375l0 19.21875l-7.5624847 0zm23.218735 -14.90625l7.40625 -0.875q1.25 8.78125 8.1875 8.78125q3.4375 0 5.40625 -1.796875q1.96875 -1.796875 1.96875 -4.453125q0 -1.5625 -0.6875 -2.65625q-0.6875 -1.09375 -2.09375 -1.796875q-1.40625 -0.703125 -6.8125 -2.359375q-4.84375 -1.46875 -7.09375 -3.1875q-2.25 -1.71875 -3.578125 -4.515625q-1.328125 -2.796875 -1.328125 -6.015625q0 -3.75 1.703125 -6.75q1.703125 -3.0 4.703125 -4.53125q3.0 -1.53125 7.40625 -1.53125q6.625 0 10.34375 3.59375q3.71875 3.59375 3.9375 10.28125l-7.59375 0.40625q-0.5 -3.6875 -2.15625 -5.15625q-1.65625 -1.46875 -4.71875 -1.46875q-3.0625 0 -4.71875 1.28125q-1.65625 1.28125 -1.65625 3.1875q0 1.875 1.5 3.15625q1.5 1.28125 6.90625 2.8125q5.71875 1.65625 8.265625 3.484375q2.546875 1.828125 3.890625 4.71875q1.34375 2.890625 1.34375 7.015625q0 5.96875 -3.671875 10.03125q-3.671875 4.0625 -11.484375 4.0625q-13.8125 0 -15.375 -15.71875zm36.9375 14.90625l0 -45.8125l27.875 0l0 7.75l-20.3125 0l0 10.15625l18.875 0l0 7.71875l-18.875 0l0 12.46875l21.0 0l0 7.71875l-28.5625 0zm83.4375 0l-8.25 0l-3.28125 -10.40625l-15.0 0l-3.09375 10.40625l-8.0625 0l14.625 -45.8125l8.03125 0l15.03125 45.8125zm-13.96875 -18.125l-5.15625 -17.0l-5.09375 17.0l10.25 0zm18.0625 18.125l0 -45.8125l7.375 0l15.375 30.59375l0 -30.59375l7.0625 0l0 45.8125l-7.625 0l-15.125 -29.875l0 29.875l-7.0625 0zm37.75 -45.8125l13.84375 0q5.25 0 7.921875 1.171875q2.671875 1.171875 4.921875 3.953125q2.25 2.78125 3.53125 7.21875q1.28125 4.4375 1.28125 11.03125q0 5.9375 -1.34375 10.328125q-1.34375 4.390625 -3.40625 6.953125q-2.0625 2.5625 -4.984375 3.859375q-2.921875 1.296875 -7.515625 1.296875l-14.25 0l0 -45.8125zm7.5625 7.75l0 30.34375l5.6875 0q3.65625 0 5.296875 -0.6875q1.640625 -0.6875 2.6875 -2.078125q1.046875 -1.390625 1.734375 -4.390625q0.6875 -3.0 0.6875 -7.90625q0 -5.09375 -0.703125 -8.03125q-0.703125 -2.9375 -2.1875 -4.625q-1.484375 -1.6875 -3.609375 -2.21875q-1.59375 -0.40625 -6.15625 -0.40625l-3.4375 0zm54.53125 38.0625l-13.40625 -45.8125l8.21875 0l9.5 33.90625l9.1875 -33.90625l8.0625305 0l-13.4375305 45.8125l-8.125 0zm25.18753 0l0 -45.8125l7.5625 0l0 45.8125l-7.5625 0zm12.90625 -14.90625l7.40625 -0.875q1.25 8.78125 8.1875 8.78125q3.4375 0 5.40625 -1.796875q1.96875 -1.796875 1.96875 -4.453125q0 -1.5625 -0.6875 -2.65625q-0.6875 -1.09375 -2.09375 -1.796875q-1.40625 -0.703125 -6.8125 -2.359375q-4.84375 -1.46875 -7.09375 -3.1875q-2.25 -1.71875 -3.578125 -4.515625q-1.328125 -2.796875 -1.328125 -6.015625q0 -3.75 1.703125 -6.75q1.703125 -3.0 4.703125 -4.53125q3.0 -1.53125 7.40625 -1.53125q6.625 0 10.34375 3.59375q3.71875 3.59375 3.9375 10.28125l-7.59375 0.40625q-0.5 -3.6875 -2.15625 -5.15625q-1.65625 -1.46875 -4.71875 -1.46875q-3.0625 0 -4.71875 1.28125q-1.65625 1.28125 -1.65625 3.1875q0 1.875 1.5 3.15625q1.5 1.28125 6.90625 2.8125q5.71875 1.65625 8.265625 3.484375q2.546875 1.828125 3.890625 4.71875q1.34375 2.890625 1.34375 7.015625q0 5.96875 -3.671875 10.03125q-3.671875 4.0625 -11.484375 4.0625q-13.8125 0 -15.375 -15.71875zm36.84375 -30.90625l7.5625 0l0 24.8125q0 5.78125 0.28125 7.53125q0.5 3.03125 2.390625 4.6875q1.890625 1.65625 4.984375 1.65625q2.625 0 4.28125 -1.171875q1.65625 -1.171875 2.265625 -3.25q0.609375 -2.078125 0.609375 -8.921875l0 -25.34375l7.59375 0l0 24.0625q0 9.21875 -0.984375 13.328125q-0.984375 4.109375 -4.4375 6.65625q-3.453125 2.546875 -9.109375 2.546875q-5.875 0 -9.171875 -2.109375q-3.296875 -2.109375 -4.78125 -5.9375q-1.484375 -3.828125 -1.484375 -14.109375l0 -24.4375zm71.8125 45.8125l-8.25 0l-3.28125 -10.40625l-15.0 0l-3.09375 10.40625l-8.0625 0l14.625 -45.8125l8.03125 0l15.03125 45.8125zm-13.96875 -18.125l-5.15625 -17.0l-5.09375 17.0l10.25 0zm18.1875 18.125l0 -45.4375l7.5625 0l0 37.71875l18.875 0l0 7.71875l-26.4375 0zm31.625 0l0 -45.8125l7.5625 0l0 45.8125l-7.5625 0zm12.90625 -14.90625l7.40625 -0.875q1.25 8.78125 8.1875 8.78125q3.4375 0 5.40625 -1.796875q1.96875 -1.796875 1.96875 -4.453125q0 -1.5625 -0.6875 -2.65625q-0.6875 -1.09375 -2.09375 -1.796875q-1.40625 -0.703125 -6.8125 -2.359375q-4.84375 -1.46875 -7.09375 -3.1875q-2.25 -1.71875 -3.578125 -4.515625q-1.328125 -2.796875 -1.328125 -6.015625q0 -3.75 1.703125 -6.75q1.703125 -3.0 4.703125 -4.53125q3.0 -1.53125 7.40625 -1.53125q6.625 0 10.34375 3.59375q3.71875 3.59375 3.9375 10.28125l-7.59375 0.40625q-0.5 -3.6875 -2.15625 -5.15625q-1.65625 -1.46875 -4.71875 -1.46875q-3.0625 0 -4.71875 1.28125q-1.65625 1.28125 -1.65625 3.1875q0 1.875 1.5 3.15625q1.5 1.28125 6.90625 2.8125q5.71875 1.65625 8.265625 3.484375q2.546875 1.828125 3.890625 4.71875q1.34375 2.890625 1.34375 7.015625q0 5.96875 -3.671875 10.03125q-3.671875 4.0625 -11.484375 4.0625q-13.8125 0 -15.375 -15.71875zm36.9375 14.90625l0 -45.8125l27.875 0l0 7.75l-20.3125 0l0 10.15625l18.875 0l0 7.71875l-18.875 0l0 12.46875l21.0 0l0 7.71875l-28.5625 0zm59.4375 0l0 -19.28125l-13.75 -26.53125l8.875 0l8.84375 18.125l8.6875 -18.125l8.71875 0l-13.8125 26.59375l0 19.21875l-7.5625 0zm23.625 -22.625q0 -8.1875 2.421875 -13.484375q2.421875 -5.296875 6.328125 -7.890625q3.90625 -2.59375 9.46875 -2.59375q8.0625 0 13.140625 6.15625q5.078125 6.15625 5.078125 17.53125q0 11.5 -5.375 17.96875q-4.71875 5.71875 -12.8125 5.71875q-8.15625 0 -12.875 -5.65625q-5.375 -6.46875 -5.375 -17.75zm7.8125 -0.3125q0 7.90625 3.0 11.859375q3.0 3.953125 7.4375 3.953125q4.46875 0 7.40625 -3.921875q2.9375 -3.921875 2.9375 -12.046875q0 -7.96875 -2.859375 -11.78125q-2.859375 -3.8125 -7.484375 -3.8125q-4.625 0 -7.53125 3.84375q-2.90625 3.84375 -2.90625 11.90625zm34.46875 -22.875l7.5625 0l0 24.8125q0 5.78125 0.28125 7.53125q0.5 3.03125 2.390625 4.6875q1.890625 1.65625 4.984375 1.65625q2.625 0 4.28125 -1.171875q1.65625 -1.171875 2.265625 -3.25q0.609375 -2.078125 0.609375 -8.921875l0 -25.34375l7.59375 0l0 24.0625q0 9.21875 -0.984375 13.328125q-0.984375 4.109375 -4.4375 6.65625q-3.453125 2.546875 -9.109375 2.546875q-5.875 0 -9.171875 -2.109375q-3.296875 -2.109375 -4.78125 -5.9375q-1.484375 -3.828125 -1.484375 -14.109375l0 -24.4375zm37.96875 45.8125l0 -45.8125l15.96875 0q6.125 0 8.75 1.234375q2.625 1.234375 4.3125 4.28125q1.6875 3.046875 1.6875 7.296875q0 5.375 -2.578125 8.65625q-2.578125 3.28125 -7.328125 4.125q2.4375 1.75 4.03125 3.828125q1.59375 2.078125 4.34375 7.453125l4.5625 8.9375l-9.03125 0l-5.5 -9.96875q-2.96875 -5.40625 -4.03125 -6.765625q-1.0625 -1.359375 -2.25 -1.875q-1.1875 -0.515625 -3.8125 -0.515625l-1.5625 0l0 19.125l-7.5625 0zm7.5625 -26.4375l5.625 0q5.15625 0 6.5625 -0.453125q1.40625 -0.453125 2.28125 -1.828125q0.875 -1.375 0.875 -3.65625q0 -2.1875 -0.875 -3.515625q-0.875 -1.328125 -2.375 -1.828125q-1.0625 -0.34375 -6.15625 -0.34375l-5.9375 0l0 11.625zm44.84375 -19.375l13.84375 0q5.25 0 7.921875 1.171875q2.671875 1.171875 4.921875 3.953125q2.25 2.78125 3.53125 7.21875q1.28125 4.4375 1.28125 11.03125q0 5.9375 -1.34375 10.328125q-1.34375 4.390625 -3.40625 6.953125q-2.0625 2.5625 -4.984375 3.859375q-2.921875 1.296875 -7.515625 1.296875l-14.25 0l0 -45.8125zm7.5625 7.75l0 30.34375l5.6875 0q3.65625 0 5.296875 -0.6875q1.640625 -0.6875 2.6875 -2.078125q1.046875 -1.390625 1.734375 -4.390625q0.6875 -3.0 0.6875 -7.90625q0 -5.09375 -0.703125 -8.03125q-0.703125 -2.9375 -2.1875 -4.625q-1.484375 -1.6875 -3.609375 -2.21875q-1.59375 -0.40625 -6.15625 -0.40625l-3.4375 0zm64.21875 38.0625l-8.25 0l-3.28125 -10.40625l-15.0 0l-3.09375 10.40625l-8.0625 0l14.625 -45.8125l8.03125 0l15.03125 45.8125zm-13.96875 -18.125l-5.15625 -17.0l-5.09375 17.0l10.25 0zm26.437439 18.125l0 -38.0625l-11.156189 0l0 -7.75l29.843689 0l0 7.75l-11.125 0l0 38.0625l-7.5625 0zm57.46875 0l-8.25 0l-3.28125 -10.40625l-15.0 0l-3.09375 10.40625l-8.0625 0l14.625 -45.8125l8.03125 0l15.03125 45.8125zm-13.96875 -18.125l-5.15625 -17.0l-5.09375 17.0l10.25 0z" fill-rule="nonzero"/><path fill="#009fda" d="m639.0 636.4229l84.10559 -369.4229l564.1074 0l4.2869873 368.19147l-652.5 1.2314453z" fill-rule="evenodd"/><path fill="#000000" fill-opacity="0.0" d="m80.44618 352.5013l450.5197 0l0 138.67715l-450.5197 0z" fill-rule="evenodd"/><path fill="#000000" d="m92.32118 388.75732l0 -26.71875l9.203125 0q3.125 0 4.765625 0.375q2.296875 0.53125 3.921875 1.921875q2.109375 1.78125 3.15625 4.5625q1.046875 2.78125 1.046875 6.359375q0 3.03125 -0.71875 5.390625q-0.703125 2.34375 -1.8125 3.890625q-1.109375 1.546875 -2.4375 2.4375q-1.3125 0.875 -3.1875 1.328125q-1.859375 0.453125 -4.296875 0.453125l-9.640625 0zm3.546875 -3.15625l5.703125 0q2.640625 0 4.140625 -0.484375q1.5 -0.5 2.40625 -1.390625q1.25 -1.25 1.953125 -3.375q0.703125 -2.125 0.703125 -5.15625q0 -4.1875 -1.375 -6.4375q-1.375 -2.25 -3.34375 -3.015625q-1.421875 -0.546875 -4.578125 -0.546875l-5.609375 0l0 20.40625zm35.62906 0.765625q-1.828125 1.546875 -3.515625 2.1875q-1.6875 0.640625 -3.609375 0.640625q-3.1875 0 -4.90625 -1.546875q-1.71875 -1.5625 -1.71875 -4.0q0 -1.421875 0.640625 -2.59375q0.65625 -1.171875 1.703125 -1.875q1.046875 -0.71875 2.359375 -1.078125q0.96875 -0.265625 2.921875 -0.5q3.96875 -0.46875 5.84375 -1.125q0.03125 -0.671875 0.03125 -0.859375q0 -2.0 -0.9375 -2.828125q-1.25 -1.109375 -3.734375 -1.109375q-2.3125 0 -3.421875 0.8125q-1.09375 0.8125 -1.625 2.875l-3.21875 -0.4375q0.4375 -2.0625 1.4375 -3.328125q1.015625 -1.265625 2.90625 -1.953125q1.890625 -0.6875 4.390625 -0.6875q2.484375 0 4.03125 0.59375q1.546875 0.578125 2.28125 1.46875q0.734375 0.875 1.015625 2.21875q0.171875 0.84375 0.171875 3.03125l0 4.375q0 4.578125 0.203125 5.796875q0.21875 1.203125 0.828125 2.3125l-3.421875 0q-0.515625 -1.015625 -0.65625 -2.390625zm-0.28125 -7.328125q-1.78125 0.734375 -5.359375 1.25q-2.015625 0.28125 -2.859375 0.65625q-0.828125 0.359375 -1.296875 1.0625q-0.453125 0.703125 -0.453125 1.5625q0 1.3125 0.984375 2.1875q1.0 0.875 2.921875 0.875q1.890625 0 3.359375 -0.828125q1.484375 -0.84375 2.1875 -2.28125q0.515625 -1.109375 0.515625 -3.28125l0 -1.203125zm15.572632 6.78125l0.46875 2.90625q-1.375 0.28125 -2.46875 0.28125q-1.796875 0 -2.78125 -0.5625q-0.984375 -0.5625 -1.390625 -1.484375q-0.390625 -0.921875 -0.390625 -3.875l0 -11.140625l-2.40625 0l0 -2.546875l2.40625 0l0 -4.796875l3.265625 -1.96875l0 6.765625l3.296875 0l0 2.546875l-3.296875 0l0 11.328125q0 1.40625 0.171875 1.8125q0.171875 0.390625 0.5625 0.625q0.390625 0.234375 1.125 0.234375q0.546875 0 1.4375 -0.125zm15.839706 0.546875q-1.828125 1.546875 -3.515625 2.1875q-1.6875 0.640625 -3.609375 0.640625q-3.1875 0 -4.90625 -1.546875q-1.71875 -1.5625 -1.71875 -4.0q0 -1.421875 0.640625 -2.59375q0.65625 -1.171875 1.703125 -1.875q1.046875 -0.71875 2.359375 -1.078125q0.96875 -0.265625 2.921875 -0.5q3.96875 -0.46875 5.84375 -1.125q0.03125 -0.671875 0.03125 -0.859375q0 -2.0 -0.9375 -2.828125q-1.25 -1.109375 -3.734375 -1.109375q-2.3125 0 -3.421875 0.8125q-1.09375 0.8125 -1.625 2.875l-3.21875 -0.4375q0.4375 -2.0625 1.4375 -3.328125q1.015625 -1.265625 2.90625 -1.953125q1.890625 -0.6875 4.390625 -0.6875q2.484375 0 4.03125 0.59375q1.546875 0.578125 2.28125 1.46875q0.734375 0.875 1.015625 2.21875q0.171875 0.84375 0.171875 3.03125l0 4.375q0 4.578125 0.203125 5.796875q0.21875 1.203125 0.828125 2.3125l-3.421875 0q-0.515625 -1.015625 -0.65625 -2.390625zm-0.28125 -7.328125q-1.78125 0.734375 -5.359375 1.25q-2.015625 0.28125 -2.859375 0.65625q-0.828125 0.359375 -1.296875 1.0625q-0.453125 0.703125 -0.453125 1.5625q0 1.3125 0.984375 2.1875q1.0 0.875 2.921875 0.875q1.890625 0 3.359375 -0.828125q1.484375 -0.84375 2.1875 -2.28125q0.515625 -1.109375 0.515625 -3.28125l0 -1.203125zm19.381088 9.71875l0 -26.71875l18.03125 0l0 3.15625l-14.5 0l0 8.265625l12.546875 0l0 3.15625l-12.546875 0l0 12.140625l-3.53125 0zm22.129639 0l0 -26.71875l3.28125 0l0 26.71875l-3.28125 0zm21.043121 0l0 -2.84375q-2.25 3.28125 -6.140625 3.28125q-1.703125 0 -3.203125 -0.65625q-1.484375 -0.65625 -2.203125 -1.640625q-0.71875 -1.0 -1.0 -2.4375q-0.203125 -0.96875 -0.203125 -3.0625l0 -12.0l3.28125 0l0 10.734375q0 2.578125 0.203125 3.46875q0.296875 1.296875 1.296875 2.03125q1.015625 0.734375 2.484375 0.734375q1.484375 0 2.765625 -0.75q1.296875 -0.765625 1.828125 -2.0625q0.546875 -1.296875 0.546875 -3.78125l0 -10.375l3.28125 0l0 19.359375l-2.9375 0zm21.338257 -6.234375l3.375 0.421875q-0.796875 2.96875 -2.96875 4.609375q-2.15625 1.640625 -5.53125 1.640625q-4.25 0 -6.75 -2.609375q-2.484375 -2.625 -2.484375 -7.34375q0 -4.890625 2.515625 -7.578125q2.515625 -2.703125 6.53125 -2.703125q3.890625 0 6.34375 2.640625q2.453125 2.640625 2.453125 7.4375q0 0.296875 -0.015625 0.875l-14.4375 0q0.1875 3.1875 1.8125 4.890625q1.625 1.6875 4.046875 1.6875q1.796875 0 3.078125 -0.9375q1.28125 -0.953125 2.03125 -3.03125zm-10.78125 -5.296875l10.8125 0q-0.21875 -2.453125 -1.234375 -3.671875q-1.578125 -1.890625 -4.078125 -1.890625q-2.25 0 -3.796875 1.515625q-1.53125 1.5 -1.703125 4.046875zm18.275757 11.53125l0 -19.359375l2.9531403 0l0 2.75q2.140625 -3.1875 6.171875 -3.1875q1.75 0 3.21875 0.640625q1.46875 0.625 2.1875 1.640625q0.734375 1.015625 1.03125 2.421875q0.171875 0.90625 0.171875 3.1875l0 11.90625l-3.28125 0l0 -11.78125q0 -2.0 -0.390625 -2.984375q-0.375 -1.0 -1.359375 -1.59375q-0.96875 -0.59375 -2.28125 -0.59375q-2.09375 0 -3.625 1.328125q-1.515625 1.328125 -1.515625 5.046875l0 10.578125l-3.2812653 0zm33.400772 -7.09375l3.21875 0.421875q-0.515625 3.34375 -2.703125 5.234375q-2.171875 1.875 -5.34375 1.875q-3.984375 0 -6.40625 -2.59375q-2.40625 -2.59375 -2.40625 -7.453125q0 -3.125 1.03125 -5.46875q1.046875 -2.359375 3.171875 -3.53125q2.125 -1.1875 4.625 -1.1875q3.15625 0 5.15625 1.59375q2.0 1.59375 2.578125 4.53125l-3.203125 0.5q-0.453125 -1.953125 -1.609375 -2.9375q-1.15625 -0.984375 -2.796875 -0.984375q-2.484375 0 -4.03125 1.78125q-1.546875 1.765625 -1.546875 5.609375q0 3.90625 1.484375 5.671875q1.5 1.765625 3.90625 1.765625q1.9375 0 3.234375 -1.171875q1.296875 -1.1875 1.640625 -3.65625zm5.8828125 14.546875l-0.359375 -3.078125q1.078125 0.296875 1.875 0.296875q1.09375 0 1.75 -0.375q0.65625 -0.359375 1.078125 -1.015625q0.3125 -0.5 1.0 -2.4375q0.09375 -0.28125 0.296875 -0.8125l-7.359375 -19.390625l3.546875 0l4.03125 11.21875q0.78125 2.125 1.390625 4.484375q0.578125 -2.265625 1.359375 -4.421875l4.140625 -11.28125l3.28125 0l-7.375 19.6875q-1.1875 3.1875 -1.84375 4.390625q-0.875 1.625 -2.0 2.375q-1.125 0.765625 -2.703125 0.765625q-0.9375 0 -2.109375 -0.40625zm27.956879 -17.125q0 -5.390625 3.0 -7.96875q2.484375 -2.15625 6.078125 -2.15625q4.0 0 6.53125 2.625q2.53125 2.609375 2.53125 7.21875q0 3.734375 -1.125 5.875q-1.109375 2.140625 -3.265625 3.328125q-2.140625 1.1875 -4.671875 1.1875q-4.0625 0 -6.578125 -2.609375q-2.5 -2.609375 -2.5 -7.5zm3.375 0q0 3.71875 1.625 5.5625q1.625 1.84375 4.078125 1.84375q2.453125 0 4.0625 -1.859375q1.625 -1.859375 1.625 -5.65625q0 -3.59375 -1.640625 -5.4375q-1.625 -1.859375 -4.046875 -1.859375q-2.453125 0 -4.078125 1.84375q-1.625 1.84375 -1.625 5.5625zm19.400757 9.671875l0 -16.8125l-2.90625 0l0 -2.546875l2.90625 0l0 -2.0625q0 -1.9375 0.34375 -2.890625q0.46875 -1.28125 1.65625 -2.0625q1.203125 -0.796875 3.359375 -0.796875q1.375 0 3.0625 0.328125l-0.5 2.859375q-1.015625 -0.1875 -1.9375 -0.1875q-1.484375 0 -2.109375 0.640625q-0.625 0.640625 -0.625 2.390625l0 1.78125l3.78125 0l0 2.546875l-3.78125 0l0 16.8125l-3.25 0zm9.696472 0l0 -16.8125l-2.90625 0l0 -2.546875l2.90625 0l0 -2.0625q0 -1.9375 0.34375 -2.890625q0.46875 -1.28125 1.65625 -2.0625q1.203125 -0.796875 3.359375 -0.796875q1.375 0 3.0625 0.328125l-0.5 2.859375q-1.015625 -0.1875 -1.9375 -0.1875q-1.484375 0 -2.109375 0.640625q-0.625 0.640625 -0.625 2.390625l0 1.78125l3.78125 0l0 2.546875l-3.78125 0l0 16.8125l-3.25 0zm22.839722 -6.234375l3.375 0.421875q-0.796875 2.96875 -2.96875 4.609375q-2.15625 1.640625 -5.53125 1.640625q-4.25 0 -6.75 -2.609375q-2.484375 -2.625 -2.484375 -7.34375q0 -4.890625 2.515625 -7.578125q2.515625 -2.703125 6.53125 -2.703125q3.890625 0 6.34375 2.640625q2.453125 2.640625 2.453125 7.4375q0 0.296875 -0.015625 0.875l-14.4375 0q0.1875 3.1875 1.8125 4.890625q1.625 1.6875 4.046875 1.6875q1.796875 0 3.078125 -0.9375q1.28125 -0.953125 2.03125 -3.03125zm-10.78125 -5.296875l10.8125 0q-0.21875 -2.453125 -1.234375 -3.671875q-1.578125 -1.890625 -4.078125 -1.890625q-2.25 0 -3.796875 1.515625q-1.53125 1.5 -1.703125 4.046875zm18.244507 11.53125l0 -19.359375l2.953125 0l0 2.9375q1.125 -2.0625 2.078125 -2.71875q0.96875 -0.65625 2.109375 -0.65625q1.671875 0 3.375 1.0625l-1.125 3.046875q-1.203125 -0.71875 -2.40625 -0.71875q-1.078125 0 -1.9375 0.65625q-0.859375 0.640625 -1.21875 1.78125q-0.546875 1.75 -0.546875 3.828125l0 10.140625l-3.28125 0zm11.149292 -5.78125l3.25 -0.5q0.28125 1.9375 1.515625 2.984375q1.25 1.03125 3.5 1.03125q2.265625 0 3.359375 -0.90625q1.09375 -0.921875 1.09375 -2.171875q0 -1.109375 -0.96875 -1.75q-0.671875 -0.4375 -3.359375 -1.109375q-3.609375 -0.90625 -5.0 -1.5625q-1.390625 -0.671875 -2.125 -1.84375q-0.71875 -1.1875 -0.71875 -2.609375q0 -1.296875 0.59375 -2.390625q0.59375 -1.109375 1.625 -1.84375q0.765625 -0.5625 2.078125 -0.953125q1.328125 -0.390625 2.84375 -0.390625q2.265625 0 3.984375 0.65625q1.734375 0.65625 2.546875 1.78125q0.828125 1.125 1.140625 3.0l-3.21875 0.4375q-0.21875 -1.5 -1.265625 -2.328125q-1.046875 -0.84375 -2.953125 -0.84375q-2.265625 0 -3.234375 0.75q-0.96875 0.734375 -0.96875 1.75q0 0.625 0.40625 1.140625q0.40625 0.53125 1.265625 0.875q0.484375 0.1875 2.890625 0.84375q3.484375 0.921875 4.859375 1.515625q1.375 0.59375 2.15625 1.734375q0.78125 1.125 0.78125 2.796875q0 1.640625 -0.953125 3.09375q-0.953125 1.453125 -2.765625 2.25q-1.796875 0.78125 -4.078125 0.78125q-3.765625 0 -5.75 -1.5625q-1.984375 -1.578125 -2.53125 -4.65625zm42.98816 3.390625q-1.828125 1.546875 -3.515625 2.1875q-1.6875 0.640625 -3.609375 0.640625q-3.1875 0 -4.90625 -1.546875q-1.71875 -1.5625 -1.71875 -4.0q0 -1.421875 0.640625 -2.59375q0.65625 -1.171875 1.703125 -1.875q1.046875 -0.71875 2.359375 -1.078125q0.96875 -0.265625 2.921875 -0.5q3.96875 -0.46875 5.84375 -1.125q0.03125 -0.671875 0.03125 -0.859375q0 -2.0 -0.9375 -2.828125q-1.25 -1.109375 -3.734375 -1.109375q-2.3125 0 -3.421875 0.8125q-1.09375 0.8125 -1.625 2.875l-3.21875 -0.4375q0.4375 -2.0625 1.4375 -3.328125q1.015625 -1.265625 2.90625 -1.953125q1.890625 -0.6875 4.390625 -0.6875q2.484375 0 4.03125 0.59375q1.546875 0.578125 2.28125 1.46875q0.734375 0.875 1.015625 2.21875q0.171875 0.84375 0.171875 3.03125l0 4.375q0 4.578125 0.203125 5.796875q0.21875 1.203125 0.828125 2.3125l-3.421875 0q-0.515625 -1.015625 -0.65625 -2.390625zm-0.28125 -7.328125q-1.78125 0.734375 -5.359375 1.25q-2.015625 0.28125 -2.859375 0.65625q-0.828125 0.359375 -1.296875 1.0625q-0.453125 0.703125 -0.453125 1.5625q0 1.3125 0.984375 2.1875q1.0 0.875 2.921875 0.875q1.890625 0 3.359375 -0.828125q1.484375 -0.84375 2.1875 -2.28125q0.515625 -1.109375 0.515625 -3.28125l0 -1.203125z" fill-rule="nonzero"/><path fill="#000000" d="m91.86806 428.75732l0 -19.359375l2.953125 0l0 2.9375q1.125 -2.0625 2.078125 -2.71875q0.96875 -0.65625 2.109375 -0.65625q1.671875 0 3.375 1.0625l-1.125 3.046875q-1.203125 -0.71875 -2.40625 -0.71875q-1.078125 0 -1.9375 0.65625q-0.859375 0.640625 -1.21875 1.78125q-0.546875 1.75 -0.546875 3.828125l0 10.140625l-3.28125 0zm25.102432 -2.390625q-1.828125 1.546875 -3.515625 2.1875q-1.6875 0.640625 -3.609375 0.640625q-3.1875 0 -4.90625 -1.546875q-1.71875 -1.5625 -1.71875 -4.0q0 -1.421875 0.640625 -2.59375q0.65625 -1.171875 1.703125 -1.875q1.046875 -0.71875 2.359375 -1.078125q0.96875 -0.265625 2.921875 -0.5q3.96875 -0.46875 5.84375 -1.125q0.03125 -0.671875 0.03125 -0.859375q0 -2.0 -0.9375 -2.828125q-1.25 -1.109375 -3.734375 -1.109375q-2.3125 0 -3.421875 0.8125q-1.09375 0.8125 -1.625 2.875l-3.21875 -0.4375q0.4375 -2.0625 1.4375 -3.328125q1.015625 -1.265625 2.90625 -1.953125q1.890625 -0.6875 4.390625 -0.6875q2.484375 0 4.03125 0.59375q1.546875 0.578125 2.28125 1.46875q0.734375 0.875 1.015625 2.21875q0.171875 0.84375 0.171875 3.03125l0 4.375q0 4.578125 0.203125 5.796875q0.21875 1.203125 0.828125 2.3125l-3.421875 0q-0.515625 -1.015625 -0.65625 -2.390625zm-0.28125 -7.328125q-1.78125 0.734375 -5.359375 1.25q-2.015625 0.28125 -2.859375 0.65625q-0.828125 0.359375 -1.296875 1.0625q-0.453125 0.703125 -0.453125 1.5625q0 1.3125 0.984375 2.1875q1.0 0.875 2.921875 0.875q1.890625 0 3.359375 -0.828125q1.484375 -0.84375 2.1875 -2.28125q0.515625 -1.109375 0.515625 -3.28125l0 -1.203125zm8.400757 9.71875l0 -19.359375l2.953125 0l0 2.75q2.140625 -3.1875 6.171875 -3.1875q1.75 0 3.21875 0.640625q1.46875 0.625 2.1875 1.640625q0.734375 1.015625 1.03125 2.421875q0.171875 0.90625 0.171875 3.1875l0 11.90625l-3.28125 0l0 -11.78125q0 -2.0 -0.390625 -2.984375q-0.375 -1.0 -1.359375 -1.59375q-0.96875 -0.59375 -2.28125 -0.59375q-2.09375 0 -3.625 1.328125q-1.515625 1.328125 -1.515625 5.046875l0 10.578125l-3.28125 0zm20.166382 1.609375l3.1875 0.46875q0.203125 1.46875 1.109375 2.15625q1.21875 0.90625 3.34375 0.90625q2.28125 0 3.515625 -0.921875q1.234375 -0.90625 1.671875 -2.546875q0.265625 -1.0 0.234375 -4.203125q-2.140625 2.53125 -5.359375 2.53125q-3.984375 0 -6.171875 -2.875q-2.1875 -2.890625 -2.1875 -6.90625q0 -2.78125 1.0 -5.125q1.0 -2.34375 2.90625 -3.609375q1.90625 -1.28125 4.484375 -1.28125q3.421875 0 5.640625 2.765625l0 -2.328125l3.03125 0l0 16.734375q0 4.515625 -0.921875 6.40625q-0.921875 1.890625 -2.921875 2.984375q-1.984375 1.09375 -4.90625 1.09375q-3.46875 0 -5.609375 -1.5625q-2.125 -1.5625 -2.046875 -4.6875zm2.71875 -11.640625q0 3.8125 1.5 5.5625q1.515625 1.75 3.796875 1.75q2.265625 0 3.796875 -1.734375q1.53125 -1.75 1.53125 -5.46875q0 -3.546875 -1.578125 -5.34375q-1.578125 -1.8125 -3.796875 -1.8125q-2.1875 0 -3.71875 1.78125q-1.53125 1.765625 -1.53125 5.265625zm31.900757 3.796875l3.375 0.421875q-0.796875 2.96875 -2.96875 4.609375q-2.15625 1.640625 -5.53125 1.640625q-4.25 0 -6.75 -2.609375q-2.484375 -2.625 -2.484375 -7.34375q0 -4.890625 2.515625 -7.578125q2.515625 -2.703125 6.53125 -2.703125q3.890625 0 6.34375 2.640625q2.453125 2.640625 2.453125 7.4375q0 0.296875 -0.015625 0.875l-14.4375 0q0.1875 3.1875 1.8125 4.890625q1.625 1.6875 4.046875 1.6875q1.796875 0 3.078125 -0.9375q1.28125 -0.953125 2.03125 -3.03125zm-10.78125 -5.296875l10.8125 0q-0.21875 -2.453125 -1.234375 -3.671875q-1.578125 -1.890625 -4.078125 -1.890625q-2.25 0 -3.796875 1.515625q-1.53125 1.5 -1.703125 4.046875zm27.427963 1.859375q0 -5.390625 3.0 -7.96875q2.484375 -2.15625 6.078125 -2.15625q4.0 0 6.53125 2.625q2.53125 2.609375 2.53125 7.21875q0 3.734375 -1.125 5.875q-1.109375 2.140625 -3.265625 3.328125q-2.140625 1.1875 -4.671875 1.1875q-4.0625 0 -6.578125 -2.609375q-2.5 -2.609375 -2.5 -7.5zm3.375 0q0 3.71875 1.625 5.5625q1.625 1.84375 4.078125 1.84375q2.453125 0 4.0625 -1.859375q1.625 -1.859375 1.625 -5.65625q0 -3.59375 -1.640625 -5.4375q-1.625 -1.859375 -4.046875 -1.859375q-2.453125 0 -4.078125 1.84375q-1.625 1.84375 -1.625 5.5625zm19.400757 9.671875l0 -16.8125l-2.90625 0l0 -2.546875l2.90625 0l0 -2.0625q0 -1.9375 0.34375 -2.890625q0.46875 -1.28125 1.65625 -2.0625q1.203125 -0.796875 3.359375 -0.796875q1.375 0 3.0625 0.328125l-0.5 2.859375q-1.015625 -0.1875 -1.9375 -0.1875q-1.484375 0 -2.109375 0.640625q-0.625 0.640625 -0.625 2.390625l0 1.78125l3.78125 0l0 2.546875l-3.78125 0l0 16.8125l-3.25 0zm23.523163 0l-5.921875 -19.359375l3.390625 0l3.078125 11.171875l1.15625 4.15625q0.0625 -0.3125 1.0 -3.984375l3.078125 -11.34375l3.375 0l2.890625 11.234375l0.96875 3.703125l1.1093903 -3.75l3.3125 -11.1875l3.203125 0l-6.0625 19.359375l-3.4062653 0l-3.078125 -11.59375l-0.75 -3.296875l-3.921875 14.890625l-3.421875 0zm22.160324 -9.671875q0 -5.390625 3.0 -7.96875q2.484375 -2.15625 6.078125 -2.15625q4.0 0 6.53125 2.625q2.53125 2.609375 2.53125 7.21875q0 3.734375 -1.125 5.875q-1.109375 2.140625 -3.265625 3.328125q-2.140625 1.1875 -4.671875 1.1875q-4.0625 0 -6.578125 -2.609375q-2.5 -2.609375 -2.5 -7.5zm3.375 0q0 3.71875 1.625 5.5625q1.625 1.84375 4.078125 1.84375q2.453125 0 4.0625 -1.859375q1.625 -1.859375 1.625 -5.65625q0 -3.59375 -1.640625 -5.4375q-1.625 -1.859375 -4.046875 -1.859375q-2.453125 0 -4.078125 1.84375q-1.625 1.84375 -1.625 5.5625zm18.572632 9.671875l0 -19.359375l2.953125 0l0 2.9375q1.125 -2.0625 2.078125 -2.71875q0.96875 -0.65625 2.109375 -0.65625q1.671875 0 3.375 1.0625l-1.125 3.046875q-1.203125 -0.71875 -2.40625 -0.71875q-1.078125 0 -1.9375 0.65625q-0.859375 0.640625 -1.21875 1.78125q-0.546875 1.75 -0.546875 3.828125l0 10.140625l-3.28125 0zm12.493042 0l0 -26.71875l3.28125 0l0 15.234375l7.765625 -7.875l4.234375 0l-7.390625 7.1875l8.140625 12.171875l-4.046875 0l-6.390625 -9.890625l-2.3125 2.21875l0 7.671875l-3.28125 0zm17.320312 -5.78125l3.25 -0.5q0.28125 1.9375 1.515625 2.984375q1.25 1.03125 3.5 1.03125q2.265625 0 3.359375 -0.90625q1.09375 -0.921875 1.09375 -2.171875q0 -1.109375 -0.96875 -1.75q-0.671875 -0.4375 -3.359375 -1.109375q-3.609375 -0.90625 -5.0 -1.5625q-1.390625 -0.671875 -2.125 -1.84375q-0.71875 -1.1875 -0.71875 -2.609375q0 -1.296875 0.59375 -2.390625q0.59375 -1.109375 1.625 -1.84375q0.765625 -0.5625 2.078125 -0.953125q1.328125 -0.390625 2.84375 -0.390625q2.265625 0 3.984375 0.65625q1.734375 0.65625 2.546875 1.78125q0.828125 1.125 1.140625 3.0l-3.21875 0.4375q-0.21875 -1.5 -1.265625 -2.328125q-1.046875 -0.84375 -2.953125 -0.84375q-2.265625 0 -3.234375 0.75q-0.96875 0.734375 -0.96875 1.75q0 0.625 0.40625 1.140625q0.40625 0.53125 1.265625 0.875q0.484375 0.1875 2.890625 0.84375q3.484375 0.921875 4.859375 1.515625q1.375 0.59375 2.15625 1.734375q0.78125 1.125 0.78125 2.796875q0 1.640625 -0.953125 3.09375q-0.953125 1.453125 -2.765625 2.25q-1.796875 0.78125 -4.078125 0.78125q-3.765625 0 -5.75 -1.5625q-1.984375 -1.578125 -2.53125 -4.65625zm19.976562 5.78125l0 -26.71875l3.28125 0l0 9.578125q2.296875 -2.65625 5.796875 -2.65625q2.15625 0 3.734375 0.859375q1.59375 0.84375 2.28125 2.34375q0.6875 1.484375 0.6875 4.328125l0 12.265625l-3.28125 0l0 -12.265625q0 -2.46875 -1.078125 -3.578125q-1.0625 -1.125 -3.015625 -1.125q-1.453125 0 -2.75 0.765625q-1.28125 0.75 -1.828125 2.046875q-0.546875 1.28125 -0.546875 3.5625l0 10.59375l-3.28125 0zm19.541382 -9.671875q0 -5.390625 3.0 -7.96875q2.484375 -2.15625 6.078125 -2.15625q4.0 0 6.53125 2.625q2.53125 2.609375 2.53125 7.21875q0 3.734375 -1.125 5.875q-1.109375 2.140625 -3.265625 3.328125q-2.140625 1.1875 -4.671875 1.1875q-4.0625 0 -6.578125 -2.609375q-2.5 -2.609375 -2.5 -7.5zm3.375 0q0 3.71875 1.625 5.5625q1.625 1.84375 4.078125 1.84375q2.453125 0 4.0625 -1.859375q1.625 -1.859375 1.625 -5.65625q0 -3.59375 -1.640625 -5.4375q-1.625 -1.859375 -4.046875 -1.859375q-2.453125 0 -4.078125 1.84375q-1.625 1.84375 -1.625 5.5625zm18.603882 17.09375l0 -26.78125l3.0 0l0 2.515625q1.046875 -1.46875 2.375 -2.203125q1.34375 -0.75 3.234375 -0.75q2.484375 0 4.375 1.28125q1.890625 1.265625 2.859375 3.59375q0.96875 2.328125 0.96875 5.09375q0 2.96875 -1.0625 5.359375q-1.0625 2.375 -3.109375 3.640625q-2.03125 1.265625 -4.265625 1.265625q-1.640625 0 -2.953125 -0.6875q-1.296875 -0.703125 -2.140625 -1.75l0 9.421875l-3.28125 0zm2.984375 -16.984375q0 3.734375 1.5 5.515625q1.515625 1.78125 3.671875 1.78125q2.1875 0 3.734375 -1.84375q1.5625 -1.84375 1.5625 -5.734375q0 -3.703125 -1.515625 -5.53125q-1.515625 -1.84375 -3.640625 -1.84375q-2.09375 0 -3.703125 1.953125q-1.609375 1.953125 -1.609375 5.703125zm16.463257 3.78125l3.25 -0.5q0.28125 1.9375 1.515625 2.984375q1.25 1.03125 3.5 1.03125q2.265625 0 3.359375 -0.90625q1.09375 -0.921875 1.09375 -2.171875q0 -1.109375 -0.96875 -1.75q-0.671875 -0.4375 -3.359375 -1.109375q-3.609375 -0.90625 -5.0 -1.5625q-1.390625 -0.671875 -2.125 -1.84375q-0.71875 -1.1875 -0.71875 -2.609375q0 -1.296875 0.59375 -2.390625q0.59375 -1.109375 1.625 -1.84375q0.765625 -0.5625 2.078125 -0.953125q1.328125 -0.390625 2.84375 -0.390625q2.265625 0 3.984375 0.65625q1.734375 0.65625 2.546875 1.78125q0.828125 1.125 1.140625 3.0l-3.21875 0.4375q-0.21875 -1.5 -1.265625 -2.328125q-1.046875 -0.84375 -2.953125 -0.84375q-2.265625 0 -3.234375 0.75q-0.96875 0.734375 -0.96875 1.75q0 0.625 0.40625 1.140625q0.40625 0.53125 1.265625 0.875q0.484375 0.1875 2.890625 0.84375q3.484375 0.921875 4.859375 1.515625q1.375 0.59375 2.15625 1.734375q0.78125 1.125 0.78125 2.796875q0 1.640625 -0.953125 3.09375q-0.953125 1.453125 -2.765625 2.25q-1.796875 0.78125 -4.078125 0.78125q-3.765625 0 -5.75 -1.5625q-1.984375 -1.578125 -2.53125 -4.65625z" fill-rule="nonzero"/><path fill="#d01279" d="m92.18056 495.42398l0 -26.71875l11.359375 0q4.28125 0 6.21875 0.71875q1.9375 0.71875 3.109375 2.5625q1.171875 1.84375 1.171875 4.203125q0 3.015625 -1.78125 4.984375q-1.765625 1.953125 -5.28125 2.453125q1.75 1.03125 2.890625 2.25q1.140625 1.21875 3.078125 4.328125l3.25 5.21875l-6.453125 0l-3.890625 -5.8125q-2.078125 -3.125 -2.84375 -3.921875q-0.765625 -0.8125 -1.625 -1.109375q-0.859375 -0.3125 -2.71875 -0.3125l-1.09375 0l0 11.15625l-5.390625 0zm5.390625 -15.421875l4.0 0q3.875 0 4.84375 -0.328125q0.96875 -0.328125 1.515625 -1.125q0.546875 -0.8125 0.546875 -2.0q0 -1.359375 -0.71875 -2.1875q-0.71875 -0.828125 -2.03125 -1.046875q-0.65625 -0.09375 -3.9375 -0.09375l-4.21875 0l0 6.78125zm32.72281 9.265625l5.09375 0.859375q-0.96875 2.796875 -3.09375 4.265625q-2.125 1.46875 -5.3125 1.46875q-5.0625 0 -7.484375 -3.296875q-1.90625 -2.640625 -1.90625 -6.671875q0 -4.8125 2.515625 -7.53125q2.515625 -2.734375 6.359375 -2.734375q4.3125 0 6.8125 2.859375q2.5 2.84375 2.390625 8.734375l-12.828125 0q0.046875 2.28125 1.234375 3.546875q1.1875 1.265625 2.953125 1.265625q1.203125 0 2.015625 -0.65625q0.828125 -0.65625 1.25 -2.109375zm0.296875 -5.1875q-0.0625 -2.21875 -1.15625 -3.375q-1.09375 -1.15625 -2.65625 -1.15625q-1.6875 0 -2.78125 1.21875q-1.09375 1.21875 -1.0625 3.3125l7.65625 0zm8.775757 12.625l5.859375 0.703125q0.140625 1.015625 0.671875 1.40625q0.71875 0.546875 2.296875 0.546875q2.0 0 3.0 -0.609375q0.671875 -0.390625 1.03125 -1.28125q0.234375 -0.640625 0.234375 -2.359375l0 -2.828125q-2.296875 3.140625 -5.796875 3.140625q-3.90625 0 -6.1875 -3.296875q-1.78125 -2.609375 -1.78125 -6.484375q0 -4.875 2.34375 -7.4375q2.34375 -2.578125 5.828125 -2.578125q3.578125 0 5.921875 3.15625l0 -2.71875l4.78125 0l0 17.375q0 3.421875 -0.5625 5.109375q-0.5625 1.703125 -1.578125 2.671875q-1.015625 0.96875 -2.734375 1.515625q-1.703125 0.546875 -4.296875 0.546875q-4.921875 0 -6.984375 -1.6875q-2.0625 -1.6875 -2.0625 -4.28125q0 -0.25 0.015625 -0.609375zm4.578125 -11.359375q0 3.078125 1.1875 4.515625q1.203125 1.421875 2.953125 1.421875q1.875 0 3.171875 -1.46875q1.296875 -1.46875 1.296875 -4.34375q0 -3.0 -1.25 -4.453125q-1.234375 -1.46875 -3.125 -1.46875q-1.84375 0 -3.046875 1.4375q-1.1875 1.421875 -1.1875 4.359375zm18.692139 -11.90625l0 -4.734375l5.125 0l0 4.734375l-5.125 0zm0 21.984375l0 -19.359375l5.125 0l0 19.359375l-5.125 0zm8.574081 -5.515625l5.140625 -0.796875q0.328125 1.5 1.328125 2.28125q1.0 0.765625 2.8125 0.765625q1.984375 0 2.984375 -0.71875q0.671875 -0.515625 0.671875 -1.375q0 -0.578125 -0.359375 -0.96875q-0.390625 -0.359375 -1.71875 -0.671875q-6.1875 -1.359375 -7.859375 -2.5q-2.296875 -1.5625 -2.296875 -4.359375q0 -2.515625 1.984375 -4.21875q2.0 -1.71875 6.171875 -1.71875q3.96875 0 5.90625 1.296875q1.9375 1.296875 2.65625 3.828125l-4.828125 0.890625q-0.3125 -1.125 -1.1875 -1.71875q-0.859375 -0.609375 -2.453125 -0.609375q-2.03125 0 -2.90625 0.5625q-0.578125 0.40625 -0.578125 1.03125q0 0.546875 0.515625 0.9375q0.6875 0.515625 4.78125 1.453125q4.09375 0.921875 5.71875 2.265625q1.59375 1.359375 1.59375 3.8125q0 2.65625 -2.21875 4.578125q-2.21875 1.90625 -6.578125 1.90625q-3.953125 0 -6.265625 -1.59375q-2.3125 -1.609375 -3.015625 -4.359375zm31.447632 -13.84375l0 4.078125l-3.5 0l0 7.8125q0 2.359375 0.09375 2.765625q0.09375 0.390625 0.453125 0.640625q0.359375 0.25 0.875 0.25q0.703125 0 2.046875 -0.484375l0.4375 3.96875q-1.78125 0.765625 -4.046875 0.765625q-1.375 0 -2.5 -0.453125q-1.109375 -0.46875 -1.625 -1.203125q-0.515625 -0.75 -0.71875 -2.0q-0.15625 -0.90625 -0.15625 -3.609375l0 -8.453125l-2.359375 0l0 -4.078125l2.359375 0l0 -3.84375l5.140625 -2.984375l0 6.828125l3.5 0zm14.758682 13.203125l5.09375 0.859375q-0.96875 2.796875 -3.09375 4.265625q-2.125 1.46875 -5.3125 1.46875q-5.0625 0 -7.484375 -3.296875q-1.90625 -2.640625 -1.90625 -6.671875q0 -4.8125 2.515625 -7.53125q2.515625 -2.734375 6.359375 -2.734375q4.3125 0 6.8125 2.859375q2.5 2.84375 2.390625 8.734375l-12.828125 0q0.046875 2.28125 1.234375 3.546875q1.1875 1.265625 2.953125 1.265625q1.203125 0 2.015625 -0.65625q0.828125 -0.65625 1.25 -2.109375zm0.296875 -5.1875q-0.0625 -2.21875 -1.15625 -3.375q-1.09375 -1.15625 -2.65625 -1.15625q-1.6875 0 -2.78125 1.21875q-1.09375 1.21875 -1.0625 3.3125l7.65625 0zm14.150757 11.34375l-5.125 0l0 -19.359375l4.765625 0l0 2.75q1.21875 -1.953125 2.1875 -2.5625q0.984375 -0.625 2.21875 -0.625q1.75 0 3.375 0.96875l-1.578125 4.46875q-1.296875 -0.84375 -2.40625 -0.84375q-1.078125 0 -1.828125 0.59375q-0.75 0.59375 -1.1875 2.140625q-0.421875 1.546875 -0.421875 6.484375l0 5.984375zm25.319473 0l-7.7968903 -19.359375l5.375 0l3.6406403 9.875l1.0625 3.3125q0.421875 -1.265625 0.53125 -1.671875q0.25 -0.8125 0.546875 -1.640625l3.671875 -9.875l5.265625 0l-7.6875 19.359375l-4.609375 0zm15.432007 -21.984375l0 -4.734375l5.125 0l0 4.734375l-5.125 0zm0 21.984375l0 -19.359375l5.125 0l0 19.359375l-5.125 0zm14.199066 -13.453125l-4.640625 -0.84375q0.78125 -2.796875 2.6875 -4.140625q1.921875 -1.359375 5.703125 -1.359375q3.421875 0 5.09375 0.8125q1.6875 0.8125 2.359375 2.0625q0.6875 1.25 0.6875 4.578125l-0.046875 5.984375q0 2.546875 0.234375 3.765625q0.25 1.203125 0.921875 2.59375l-5.0625 0q-0.203125 -0.515625 -0.5 -1.515625q-0.125 -0.453125 -0.171875 -0.59375q-1.3125 1.265625 -2.8125 1.90625q-1.5 0.640625 -3.1875 0.640625q-2.984375 0 -4.71875 -1.625q-1.71875 -1.625 -1.71875 -4.09375q0 -1.640625 0.78125 -2.921875q0.78125 -1.296875 2.1875 -1.96875q1.421875 -0.6875 4.09375 -1.203125q3.578125 -0.671875 4.96875 -1.25l0 -0.515625q0 -1.484375 -0.734375 -2.109375q-0.71875 -0.625 -2.75 -0.625q-1.359375 0 -2.125 0.546875q-0.765625 0.53125 -1.25 1.875zm6.859375 4.15625q-0.984375 0.328125 -3.125 0.78125q-2.125 0.453125 -2.78125 0.890625q-1.0 0.71875 -1.0 1.8125q0 1.078125 0.796875 1.859375q0.8125 0.78125 2.046875 0.78125q1.390625 0 2.640625 -0.90625q0.9375 -0.703125 1.21875 -1.703125q0.203125 -0.65625 0.203125 -2.5l0 -1.015625z" fill-rule="nonzero"/><path fill="#d01279" d="m91.74306 516.39795l4.71875 0l0 2.640625q2.53125 -3.078125 6.03125 -3.078125q1.859375 0 3.21875 0.765625q1.375 0.765625 2.25 2.3125q1.28125 -1.546875 2.75 -2.3125q1.484375 -0.765625 3.15625 -0.765625q2.140625 0 3.609375 0.875q1.484375 0.859375 2.203125 2.53125q0.53125 1.25 0.53125 4.015625l0 12.375l-5.125 0l0 -11.0625q0 -2.875 -0.53125 -3.71875q-0.703125 -1.09375 -2.1875 -1.09375q-1.0625 0 -2.015625 0.65625q-0.953125 0.65625 -1.375 1.921875q-0.40625 1.265625 -0.40625 4.0l0 9.296875l-5.125 0l0 -10.609375q0 -2.828125 -0.28125 -3.640625q-0.265625 -0.828125 -0.84375 -1.21875q-0.578125 -0.40625 -1.5625 -0.40625q-1.171875 0 -2.125 0.640625q-0.953125 0.640625 -1.359375 1.84375q-0.40625 1.203125 -0.40625 3.984375l0 9.40625l-5.125 0l0 -19.359375zm31.143814 0l5.453125 0l4.625 13.75l4.53125 -13.75l5.296875 0l-6.828125 18.625l-1.21875 3.375q-0.6875 1.703125 -1.296875 2.59375q-0.609375 0.890625 -1.40625 1.4375q-0.78125 0.5625 -1.9375 0.875q-1.15625 0.3125 -2.625 0.3125q-1.46875 0 -2.890625 -0.3125l-0.453125 -4.015625q1.203125 0.234375 2.15625 0.234375q1.796875 0 2.640625 -1.046875q0.859375 -1.046875 1.328125 -2.671875l-7.375 -19.40625zm40.94763 19.359375l-4.765625 0l0 -2.84375q-1.1875 1.65625 -2.796875 2.46875q-1.609375 0.8125 -3.25 0.8125q-3.34375 0 -5.71875 -2.6875q-2.375 -2.6875 -2.375 -7.5q0 -4.921875 2.3125 -7.484375q2.3125 -2.5625 5.859375 -2.5625q3.234375 0 5.609375 2.703125l0 -9.625l5.125 0l0 26.71875zm-13.671875 -10.09375q0 3.09375 0.859375 4.484375q1.234375 2.0 3.453125 2.0q1.765625 0 3.0 -1.5q1.25 -1.5 1.25 -4.5q0 -3.328125 -1.203125 -4.796875q-1.203125 -1.46875 -3.078125 -1.46875q-1.828125 0 -3.0625 1.453125q-1.21875 1.4375 -1.21875 4.328125zm29.926514 3.9375l5.09375 0.859375q-0.96875 2.796875 -3.09375 4.265625q-2.125 1.46875 -5.3125 1.46875q-5.0625 0 -7.484375 -3.296875q-1.90625 -2.640625 -1.90625 -6.671875q0 -4.8125 2.515625 -7.53125q2.515625 -2.734375 6.359375 -2.734375q4.3125 0 6.8125 2.859375q2.5 2.84375 2.390625 8.734375l-12.828125 0q0.046875 2.28125 1.234375 3.546875q1.1875 1.265625 2.953125 1.265625q1.203125 0 2.015625 -0.65625q0.828125 -0.65625 1.25 -2.109375zm0.296875 -5.1875q-0.0625 -2.21875 -1.15625 -3.375q-1.09375 -1.15625 -2.65625 -1.15625q-1.6875 0 -2.78125 1.21875q-1.09375 1.21875 -1.0625 3.3125l7.65625 0zm14.572632 11.34375l-7.796875 -19.359375l5.375 0l3.640625 9.875l1.0625 3.3125q0.421875 -1.265625 0.53125 -1.671875q0.25 -0.8125 0.546875 -1.640625l3.671875 -9.875l5.265625 0l-7.6875 19.359375l-4.609375 0zm26.650757 -6.15625l5.09375 0.859375q-0.96875 2.796875 -3.09375 4.265625q-2.125 1.46875 -5.3125 1.46875q-5.0625 0 -7.484375 -3.296875q-1.90625 -2.640625 -1.90625 -6.671875q0 -4.8125 2.515625 -7.53125q2.515625 -2.734375 6.359375 -2.734375q4.3125 0 6.8125 2.859375q2.5 2.84375 2.390625 8.734375l-12.828125 0q0.046875 2.28125 1.234375 3.546875q1.1875 1.265625 2.953125 1.265625q1.203125 0 2.015625 -0.65625q0.828125 -0.65625 1.25 -2.109375zm0.296875 -5.1875q-0.0625 -2.21875 -1.15625 -3.375q-1.09375 -1.15625 -2.65625 -1.15625q-1.6875 0 -2.78125 1.21875q-1.09375 1.21875 -1.0625 3.3125l7.65625 0zm9.244507 11.34375l0 -26.71875l5.125 0l0 26.71875l-5.125 0zm9.199081 -9.953125q0 -2.546875 1.25 -4.9375q1.265625 -2.390625 3.5625 -3.640625q2.3125 -1.265625 5.15625 -1.265625q4.390625 0 7.1875153 2.859375q2.8125 2.84375 2.8125 7.203125q0 4.390625 -2.84375 7.28125q-2.8281403 2.890625 -7.1250153 2.890625q-2.65625 0 -5.078125 -1.203125q-2.40625 -1.203125 -3.671875 -3.515625q-1.25 -2.328125 -1.25 -5.671875zm5.25 0.28125q0 2.875 1.359375 4.40625q1.375 1.53125 3.375 1.53125q2.0 0 3.359375 -1.53125q1.359375 -1.53125 1.359375 -4.453125q0 -2.84375 -1.359375 -4.375q-1.359375 -1.53125 -3.359375 -1.53125q-2.0 0 -3.375 1.53125q-1.359375 1.53125 -1.359375 4.421875zm18.582779 -9.6875l4.78125 0l0 2.84375q0.921875 -1.453125 2.5 -2.359375q1.59375 -0.921875 3.53125 -0.921875q3.375 0 5.71875 2.640625q2.359375 2.640625 2.359375 7.375q0 4.84375 -2.375 7.53125q-2.375 2.6875 -5.734375 2.6875q-1.609375 0 -2.921875 -0.640625q-1.296875 -0.640625 -2.734375 -2.1875l0 9.75l-5.125 0l0 -26.71875zm5.0625 9.359375q0 3.25 1.296875 4.8125q1.296875 1.5625 3.15625 1.5625q1.78125 0 2.96875 -1.421875q1.1875 -1.4375 1.1875 -4.703125q0 -3.046875 -1.21875 -4.515625q-1.21875 -1.484375 -3.03125 -1.484375q-1.875 0 -3.125 1.453125q-1.234375 1.453125 -1.234375 4.296875zm17.504639 -9.359375l4.71875 0l0 2.640625q2.53125 -3.078125 6.03125 -3.078125q1.859375 0 3.21875 0.765625q1.375 0.765625 2.25 2.3125q1.28125 -1.546875 2.75 -2.3125q1.484375 -0.765625 3.15625 -0.765625q2.140625 0 3.609375 0.875q1.484375 0.859375 2.203125 2.53125q0.53125 1.25 0.53125 4.015625l0 12.375l-5.125 0l0 -11.0625q0 -2.875 -0.53125 -3.71875q-0.703125 -1.09375 -2.1875 -1.09375q-1.0625 0 -2.015625 0.65625q-0.953125 0.65625 -1.375 1.921875q-0.40625 1.265625 -0.40625 4.0l0 9.296875l-5.125 0l0 -10.609375q0 -2.828125 -0.28125 -3.640625q-0.265625 -0.828125 -0.84375 -1.21875q-0.578125 -0.40625 -1.5625 -0.40625q-1.171875 0 -2.125 0.640625q-0.953125 0.640625 -1.359375 1.84375q-0.40625 1.203125 -0.40625 3.984375l0 9.40625l-5.125 0l0 -19.359375zm44.784424 13.203125l5.09375 0.859375q-0.96875 2.796875 -3.09375 4.265625q-2.125 1.46875 -5.3125 1.46875q-5.0625 0 -7.484375 -3.296875q-1.90625 -2.640625 -1.90625 -6.671875q0 -4.8125 2.515625 -7.53125q2.515625 -2.734375 6.359375 -2.734375q4.3125 0 6.8125 2.859375q2.5 2.84375 2.390625 8.734375l-12.828125 0q0.046875 2.28125 1.234375 3.546875q1.1875 1.265625 2.953125 1.265625q1.203125 0 2.015625 -0.65625q0.828125 -0.65625 1.25 -2.109375zm0.296875 -5.1875q-0.0625 -2.21875 -1.15625 -3.375q-1.09375 -1.15625 -2.65625 -1.15625q-1.6875 0 -2.78125 1.21875q-1.09375 1.21875 -1.0625 3.3125l7.65625 0zm26.853882 11.34375l-5.109375 0l0 -9.875q0 -3.140625 -0.328125 -4.0625q-0.328125 -0.921875 -1.078125 -1.421875q-0.734375 -0.515625 -1.765625 -0.515625q-1.34375 0 -2.40625 0.734375q-1.046875 0.71875 -1.4375 1.921875q-0.390625 1.203125 -0.390625 4.453125l0 8.765625l-5.125 0l0 -19.359375l4.765625 0l0 2.84375q2.53125 -3.28125 6.375 -3.28125q1.6875 0 3.09375 0.609375q1.40625 0.609375 2.125 1.5625q0.71875 0.953125 1.0 2.15625q0.28125 1.203125 0.28125 3.4375l0 12.03125zm14.082764 -19.359375l0 4.078125l-3.5 0l0 7.8125q0 2.359375 0.09375 2.765625q0.09375 0.390625 0.453125 0.640625q0.359375 0.25 0.875 0.25q0.703125 0 2.046875 -0.484375l0.4375 3.96875q-1.78125 0.765625 -4.046875 0.765625q-1.375 0 -2.5 -0.453125q-1.109375 -0.46875 -1.625 -1.203125q-0.515625 -0.75 -0.71875 -2.0q-0.15625 -0.90625 -0.15625 -3.609375l0 -8.453125l-2.359375 0l0 -4.078125l2.359375 0l0 -3.84375l5.140625 -2.984375l0 6.828125l3.5 0z" fill-rule="nonzero"/><path fill="#000000" fill-opacity="0.0" d="m801.8177 333.73428l437.99994 0l0 281.9647l-437.99994 0z" fill-rule="evenodd"/><path fill="#ffffff" d="m824.0052 356.3979l0 -2.6875l9.703125 -0.015625l0 8.5q-2.234375 1.78125 -4.609375 2.6875q-2.375 0.890625 -4.875 0.890625q-3.375 0 -6.140625 -1.4375q-2.75 -1.453125 -4.15625 -4.1875q-1.40625 -2.734375 -1.40625 -6.109375q0 -3.34375 1.390625 -6.234375q1.40625 -2.90625 4.03125 -4.3125q2.625 -1.40625 6.046875 -1.40625q2.484375 0 4.484375 0.8125q2.015625 0.796875 3.15625 2.234375q1.140625 1.4375 1.734375 3.75l-2.734375 0.75q-0.515625 -1.75 -1.28125 -2.75q-0.765625 -1.0 -2.1875 -1.59375q-1.421875 -0.609375 -3.15625 -0.609375q-2.078125 0 -3.59375 0.640625q-1.515625 0.625 -2.453125 1.65625q-0.921875 1.03125 -1.4375 2.265625q-0.875 2.125 -0.875 4.609375q0 3.0625 1.046875 5.125q1.0625 2.0625 3.078125 3.0625q2.015625 1.0 4.28125 1.0q1.96875 0 3.84375 -0.75q1.875 -0.765625 2.84375 -1.625l0 -4.265625l-6.734375 0zm25.171875 3.640625l2.90625 0.359375q-0.6875 2.546875 -2.546875 3.953125q-1.859375 1.40625 -4.75 1.40625q-3.640625 0 -5.78125 -2.234375q-2.125 -2.25 -2.125 -6.296875q0 -4.1875 2.15625 -6.5q2.15625 -2.3125 5.59375 -2.3125q3.328125 0 5.4375 2.265625q2.109375 2.265625 2.109375 6.375q0 0.25 -0.015625 0.75l-12.375 0q0.15625 2.734375 1.546875 4.1875q1.390625 1.453125 3.46875 1.453125q1.546875 0 2.640625 -0.8125q1.09375 -0.8125 1.734375 -2.59375zm-9.234375 -4.546875l9.265625 0q-0.1875 -2.09375 -1.0625 -3.140625q-1.34375 -1.625 -3.484375 -1.625q-1.9375 0 -3.265625 1.296875q-1.3125 1.296875 -1.453125 3.46875zm21.8125 7.375l0.40625 2.484375q-1.1875 0.25 -2.125 0.25q-1.53125 0 -2.375 -0.484375q-0.84375 -0.484375 -1.1875 -1.265625q-0.34375 -0.796875 -0.34375 -3.328125l0 -9.546875l-2.0625 0l0 -2.1875l2.0625 0l0 -4.109375l2.796875 -1.6875l0 5.796875l2.828125 0l0 2.1875l-2.828125 0l0 9.703125q0 1.203125 0.140625 1.546875q0.15625 0.34375 0.484375 0.546875q0.34375 0.203125 0.96875 0.203125q0.46875 0 1.234375 -0.109375zm22.46875 0.46875q-1.5625 1.328125 -3.015625 1.875q-1.4375 0.546875 -3.09375 0.546875q-2.734375 0 -4.203125 -1.328125q-1.46875 -1.34375 -1.46875 -3.421875q0 -1.21875 0.546875 -2.21875q0.5625 -1.015625 1.453125 -1.625q0.90625 -0.609375 2.03125 -0.921875q0.828125 -0.21875 2.5 -0.421875q3.40625 -0.40625 5.015625 -0.96875q0.015625 -0.578125 0.015625 -0.734375q0 -1.71875 -0.796875 -2.421875q-1.078125 -0.953125 -3.203125 -0.953125q-1.984375 0 -2.9375 0.703125q-0.9375 0.6875 -1.390625 2.453125l-2.75 -0.375q0.375 -1.765625 1.234375 -2.84375q0.859375 -1.09375 2.484375 -1.671875q1.625 -0.59375 3.765625 -0.59375q2.125 0 3.453125 0.5q1.328125 0.5 1.953125 1.265625q0.625 0.75 0.875 1.90625q0.140625 0.71875 0.140625 2.59375l0 3.75q0 3.921875 0.171875 4.96875q0.1875 1.03125 0.71875 1.984375l-2.9375 0q-0.4375 -0.875 -0.5625 -2.046875zm-0.234375 -6.28125q-1.53125 0.625 -4.59375 1.0625q-1.734375 0.25 -2.453125 0.5625q-0.71875 0.3125 -1.109375 0.921875q-0.390625 0.59375 -0.390625 1.328125q0 1.125 0.84375 1.875q0.859375 0.75 2.5 0.75q1.625 0 2.890625 -0.703125q1.265625 -0.71875 1.859375 -1.953125q0.453125 -0.953125 0.453125 -2.8125l0 -1.03125zm17.96875 8.328125l0 -2.09375q-1.578125 2.46875 -4.640625 2.46875q-1.984375 0 -3.65625 -1.09375q-1.65625 -1.09375 -2.578125 -3.046875q-0.90625 -1.96875 -0.90625 -4.515625q0 -2.484375 0.828125 -4.5q0.828125 -2.03125 2.484375 -3.109375q1.65625 -1.078125 3.703125 -1.078125q1.5 0 2.671875 0.640625q1.171875 0.625 1.90625 1.640625l0 -8.21875l2.796875 0l0 22.90625l-2.609375 0zm-8.890625 -8.28125q0 3.1875 1.34375 4.765625q1.34375 1.578125 3.171875 1.578125q1.84375 0 3.125 -1.5q1.296875 -1.515625 1.296875 -4.609375q0 -3.40625 -1.3125 -5.0q-1.3125 -1.59375 -3.234375 -1.59375q-1.875 0 -3.140625 1.53125q-1.25 1.53125 -1.25 4.828125zm26.6875 8.28125l0 -2.09375q-1.578125 2.46875 -4.640625 2.46875q-1.984375 0 -3.65625 -1.09375q-1.65625 -1.09375 -2.578125 -3.046875q-0.90625 -1.96875 -0.90625 -4.515625q0 -2.484375 0.828125 -4.5q0.828125 -2.03125 2.484375 -3.109375q1.65625 -1.078125 3.703125 -1.078125q1.5 0 2.671875 0.640625q1.171875 0.625 1.90625 1.640625l0 -8.21875l2.796875 0l0 22.90625l-2.609375 0zm-8.890625 -8.28125q0 3.1875 1.34375 4.765625q1.34375 1.578125 3.171875 1.578125q1.84375 0 3.125 -1.5q1.296875 -1.515625 1.296875 -4.609375q0 -3.40625 -1.3125 -5.0q-1.3125 -1.59375 -3.234375 -1.59375q-1.875 0 -3.140625 1.53125q-1.25 1.53125 -1.25 4.828125zm15.9375 -11.390625l0 -3.234375l2.8125 0l0 3.234375l-2.8125 0zm0 19.671875l0 -16.59375l2.8125 0l0 16.59375l-2.8125 0zm13.234375 -2.515625l0.40625 2.484375q-1.1875 0.25 -2.125 0.25q-1.53125 0 -2.375 -0.484375q-0.84375 -0.484375 -1.1875 -1.265625q-0.34375 -0.796875 -0.34375 -3.328125l0 -9.546875l-2.0625 0l0 -2.1875l2.0625 0l0 -4.109375l2.796875 -1.6875l0 5.796875l2.828125 0l0 2.1875l-2.828125 0l0 9.703125q0 1.203125 0.140625 1.546875q0.15625 0.34375 0.484375 0.546875q0.34375 0.203125 0.96875 0.203125q0.46875 0 1.234375 -0.109375zm2.765625 -17.15625l0 -3.234375l2.8125 0l0 3.234375l-2.8125 0zm0 19.671875l0 -16.59375l2.8125 0l0 16.59375l-2.8125 0zm6.046875 -8.296875q0 -4.609375 2.5625 -6.828125q2.140625 -1.84375 5.21875 -1.84375q3.421875 0 5.59375 2.25q2.171875 2.234375 2.171875 6.1875q0 3.203125 -0.96875 5.046875q-0.953125 1.828125 -2.796875 2.84375q-1.828125 1.015625 -4.0 1.015625q-3.484375 0 -5.640625 -2.234375q-2.140625 -2.234375 -2.140625 -6.4375zm2.890625 0q0 3.1875 1.390625 4.78125q1.390625 1.578125 3.5 1.578125q2.09375 0 3.484375 -1.59375q1.390625 -1.59375 1.390625 -4.859375q0 -3.078125 -1.40625 -4.65625q-1.390625 -1.59375 -3.46875 -1.59375q-2.109375 0 -3.5 1.578125q-1.390625 1.578125 -1.390625 4.765625zm15.953125 8.296875l0 -16.59375l2.53125 0l0 2.359375q1.828125 -2.734375 5.28125 -2.734375q1.5 0 2.75 0.546875q1.265625 0.53125 1.890625 1.40625q0.625 0.875 0.875 2.078125q0.15625 0.78125 0.15625 2.734375l0 10.203125l-2.8125 0l0 -10.09375q0 -1.71875 -0.328125 -2.5625q-0.328125 -0.859375 -1.171875 -1.359375q-0.828125 -0.515625 -1.953125 -0.515625q-1.796875 0 -3.109375 1.140625q-1.296875 1.140625 -1.296875 4.328125l0 9.0625l-2.8125 0zm28.625 -2.046875q-1.5625 1.328125 -3.015625 1.875q-1.4375 0.546875 -3.09375 0.546875q-2.734375 0 -4.203125 -1.328125q-1.46875 -1.34375 -1.46875 -3.421875q0 -1.21875 0.546875 -2.21875q0.5625 -1.015625 1.453125 -1.625q0.90625 -0.609375 2.03125 -0.921875q0.828125 -0.21875 2.5 -0.421875q3.40625 -0.40625 5.015625 -0.96875q0.015625 -0.578125 0.015625 -0.734375q0 -1.71875 -0.796875 -2.421875q-1.078125 -0.953125 -3.203125 -0.953125q-1.984375 0 -2.9375 0.703125q-0.9375 0.6875 -1.390625 2.453125l-2.75 -0.375q0.375 -1.765625 1.234375 -2.84375q0.859375 -1.09375 2.484375 -1.671875q1.625 -0.59375 3.765625 -0.59375q2.125 0 3.453125 0.5q1.328125 0.5 1.953125 1.265625q0.625 0.75 0.875 1.90625q0.140625 0.71875 0.140625 2.59375l0 3.75q0 3.921875 0.171875 4.96875q0.1875 1.03125 0.71875 1.984375l-2.9375 0q-0.4375 -0.875 -0.5625 -2.046875zm-0.234375 -6.28125q-1.53125 0.625 -4.59375 1.0625q-1.734375 0.25 -2.453125 0.5625q-0.71875 0.3125 -1.109375 0.921875q-0.390625 0.59375 -0.390625 1.328125q0 1.125 0.84375 1.875q0.859375 0.75 2.5 0.75q1.625 0 2.890625 -0.703125q1.265625 -0.71875 1.859375 -1.953125q0.453125 -0.953125 0.453125 -2.8125l0 -1.03125zm7.140625 8.328125l0 -22.90625l2.8125 0l0 22.90625l-2.8125 0zm14.9375 -4.953125l2.78125 -0.4375q0.234375 1.671875 1.296875 2.5625q1.078125 0.890625 2.999939 0.890625q1.9375 0 2.875 -0.78125q0.9375 -0.796875 0.9375 -1.859375q0 -0.953125 -0.828125 -1.5q-0.578125 -0.375 -2.875 -0.953125q-3.093689 -0.78125 -4.296814 -1.34375q-1.1875 -0.578125 -1.8125 -1.578125q-0.609375 -1.015625 -0.609375 -2.234375q0 -1.109375 0.5 -2.046875q0.515625 -0.953125 1.390625 -1.578125q0.65625 -0.484375 1.78125 -0.8125q1.140625 -0.34375 2.437439 -0.34375q1.953125 0 3.421875 0.5625q1.484375 0.5625 2.1875 1.53125q0.703125 0.953125 0.96875 2.5625l-2.75 0.375q-0.1875 -1.28125 -1.09375 -2.0q-0.890625 -0.71875 -2.53125 -0.71875q-1.937439 0 -2.765564 0.640625q-0.828125 0.640625 -0.828125 1.5q0 0.546875 0.34375 0.984375q0.34375 0.453125 1.078125 0.75q0.421875 0.15625 2.484314 0.71875q2.984375 0.796875 4.15625 1.3125q1.1875 0.5 1.859375 1.46875q0.671875 0.96875 0.671875 2.40625q0 1.40625 -0.828125 2.65625q-0.8125 1.234375 -2.359375 1.921875q-1.546875 0.671875 -3.5 0.671875q-3.234314 0 -4.937439 -1.34375q-1.6875 -1.34375 -2.15625 -3.984375zm27.999939 4.953125l0 -2.4375q-1.9375 2.8125 -5.265625 2.8125q-1.46875 0 -2.75 -0.5625q-1.265625 -0.5625 -1.890625 -1.40625q-0.609375 -0.859375 -0.859375 -2.09375q-0.171875 -0.828125 -0.171875 -2.625l0 -10.28125l2.8125 0l0 9.203125q0 2.203125 0.171875 2.96875q0.265625 1.109375 1.125 1.75q0.859375 0.625 2.125 0.625q1.265625 0 2.375 -0.640625q1.109375 -0.65625 1.5625 -1.765625q0.46875 -1.125 0.46875 -3.25l0 -8.890625l2.8125 0l0 16.59375l-2.515625 0zm6.921875 6.359375l0 -22.953125l2.5625 0l0 2.15625q0.90625 -1.265625 2.046875 -1.890625q1.140625 -0.640625 2.765625 -0.640625q2.125 0 3.75 1.09375q1.625 1.09375 2.453125 3.09375q0.828125 1.984375 0.828125 4.359375q0 2.546875 -0.921875 4.59375q-0.90625 2.03125 -2.65625 3.125q-1.734375 1.078125 -3.65625 1.078125q-1.40625 0 -2.53125 -0.59375q-1.109375 -0.59375 -1.828125 -1.5l0 8.078125l-2.8125 0zm2.546875 -14.5625q0 3.203125 1.296875 4.734375q1.296875 1.53125 3.140625 1.53125q1.875 0 3.203125 -1.578125q1.34375 -1.59375 1.34375 -4.921875q0 -3.171875 -1.3125 -4.75q-1.296875 -1.578125 -3.109375 -1.578125q-1.796875 0 -3.1875 1.6875q-1.375 1.671875 -1.375 4.875zm15.25 14.5625l0 -22.953125l2.5625 0l0 2.15625q0.90625 -1.265625 2.046875 -1.890625q1.140625 -0.640625 2.765625 -0.640625q2.125 0 3.75 1.09375q1.625 1.09375 2.453125 3.09375q0.828125 1.984375 0.828125 4.359375q0 2.546875 -0.921875 4.59375q-0.90625 2.03125 -2.65625 3.125q-1.734375 1.078125 -3.65625 1.078125q-1.40625 0 -2.53125 -0.59375q-1.109375 -0.59375 -1.828125 -1.5l0 8.078125l-2.8125 0zm2.546875 -14.5625q0 3.203125 1.296875 4.734375q1.296875 1.53125 3.140625 1.53125q1.875 0 3.203125 -1.578125q1.34375 -1.59375 1.34375 -4.921875q0 -3.171875 -1.3125 -4.75q-1.296875 -1.578125 -3.109375 -1.578125q-1.796875 0 -3.1875 1.6875q-1.375 1.671875 -1.375 4.875zm14.203125 -0.09375q0 -4.609375 2.5625 -6.828125q2.140625 -1.84375 5.21875 -1.84375q3.421875 0 5.59375 2.25q2.171875 2.234375 2.171875 6.1875q0 3.203125 -0.96875 5.046875q-0.953125 1.828125 -2.796875 2.84375q-1.828125 1.015625 -4.0 1.015625q-3.484375 0 -5.640625 -2.234375q-2.140625 -2.234375 -2.140625 -6.4375zm2.890625 0q0 3.1875 1.390625 4.78125q1.390625 1.578125 3.5 1.578125q2.09375 0 3.484375 -1.59375q1.390625 -1.59375 1.390625 -4.859375q0 -3.078125 -1.40625 -4.65625q-1.390625 -1.59375 -3.46875 -1.59375q-2.109375 0 -3.5 1.578125q-1.390625 1.578125 -1.390625 4.765625zm15.921875 8.296875l0 -16.59375l2.53125 0l0 2.515625q0.96875 -1.765625 1.78125 -2.328125q0.828125 -0.5625 1.8125 -0.5625q1.421875 0 2.890625 0.90625l-0.96875 2.609375q-1.03125 -0.609375 -2.0625 -0.609375q-0.921875 0 -1.65625 0.5625q-0.734375 0.546875 -1.046875 1.53125q-0.46875 1.5 -0.46875 3.28125l0 8.6875l-2.8125 0zm16.828125 -2.515625l0.40625 2.484375q-1.1875 0.25 -2.125 0.25q-1.53125 0 -2.375 -0.484375q-0.84375 -0.484375 -1.1875 -1.265625q-0.34375 -0.796875 -0.34375 -3.328125l0 -9.546875l-2.0625 0l0 -2.1875l2.0625 0l0 -4.109375l2.796875 -1.6875l0 5.796875l2.828125 0l0 2.1875l-2.828125 0l0 9.703125q0 1.203125 0.140625 1.546875q0.15625 0.34375 0.484375 0.546875q0.34375 0.203125 0.96875 0.203125q0.46875 0 1.234375 -0.109375zm12.3125 2.515625l0 -14.40625l-2.484375 0l0 -2.1875l2.484375 0l0 -1.765625q0 -1.671875 0.296875 -2.484375q0.40625 -1.09375 1.421875 -1.765625q1.03125 -0.6875 2.875 -0.6875q1.1875 0 2.625 0.28125l-0.421875 2.453125q-0.875 -0.15625 -1.65625 -0.15625q-1.28125 0 -1.8125 0.546875q-0.53125 0.546875 -0.53125 2.046875l0 1.53125l3.234375 0l0 2.1875l-3.234375 0l0 14.40625l-2.796875 0zm8.1875 0l0 -16.59375l2.53125 0l0 2.515625q0.96875 -1.765625 1.78125 -2.328125q0.828125 -0.5625 1.8125 -0.5625q1.421875 0 2.890625 0.90625l-0.96875 2.609375q-1.03125 -0.609375 -2.0625 -0.609375q-0.921875 0 -1.65625 0.5625q-0.734375 0.546875 -1.046875 1.53125q-0.46875 1.5 -0.46875 3.28125l0 8.6875l-2.8125 0zm9.640625 -8.296875q0 -4.609375 2.5625 -6.828125q2.140625 -1.84375 5.21875 -1.84375q3.421875 0 5.59375 2.25q2.171875 2.234375 2.171875 6.1875q0 3.203125 -0.96875 5.046875q-0.953125 1.828125 -2.796875 2.84375q-1.828125 1.015625 -4.0 1.015625q-3.484375 0 -5.640625 -2.234375q-2.140625 -2.234375 -2.140625 -6.4375zm2.890625 0q0 3.1875 1.390625 4.78125q1.390625 1.578125 3.5 1.578125q2.09375 0 3.484375 -1.59375q1.390625 -1.59375 1.390625 -4.859375q0 -3.078125 -1.40625 -4.65625q-1.390625 -1.59375 -3.46875 -1.59375q-2.109375 0 -3.5 1.578125q-1.390625 1.578125 -1.390625 4.765625zm15.953125 8.296875l0 -16.59375l2.515625 0l0 2.328125q0.78125 -1.21875 2.078125 -1.953125q1.296875 -0.75 2.953125 -0.75q1.84375 0 3.015625 0.765625q1.1875 0.765625 1.671875 2.140625q1.96875 -2.90625 5.125 -2.90625q2.46875 0 3.796875 1.375q1.328125 1.359375 1.328125 4.203125l0 11.390625l-2.796875 0l0 -10.453125q0 -1.6875 -0.28125 -2.421875q-0.265625 -0.75 -0.984375 -1.203125q-0.71875 -0.453125 -1.6875 -0.453125q-1.75 0 -2.90625 1.171875q-1.15625 1.15625 -1.15625 3.71875l0 9.640625l-2.8125 0l0 -10.78125q0 -1.875 -0.6875 -2.8125q-0.6875 -0.9375 -2.25 -0.9375q-1.1875 0 -2.203125 0.625q-1.0 0.625 -1.453125 1.828125q-0.453125 1.203125 -0.453125 3.46875l0 8.609375l-2.8125 0z" fill-rule="nonzero"/><path fill="#ffffff" d="m811.8802 392.0854q0 -4.609375 2.5625 -6.828125q2.140625 -1.84375 5.21875 -1.84375q3.421875 0 5.59375 2.25q2.171875 2.234375 2.171875 6.1875q0 3.203125 -0.96875 5.046875q-0.953125 1.828125 -2.796875 2.84375q-1.828125 1.015625 -4.0 1.015625q-3.484375 0 -5.640625 -2.234375q-2.140625 -2.234375 -2.140625 -6.4375zm2.890625 0q0 3.1875 1.390625 4.78125q1.390625 1.578125 3.5 1.578125q2.09375 0 3.484375 -1.59375q1.390625 -1.59375 1.390625 -4.859375q0 -3.078125 -1.40625 -4.65625q-1.390625 -1.59375 -3.46875 -1.59375q-2.109375 0 -3.5 1.578125q-1.390625 1.578125 -1.390625 4.765625zm15.953125 8.296875l0 -16.59375l2.53125 0l0 2.359375q1.828125 -2.734375 5.28125 -2.734375q1.5 0 2.75 0.546875q1.265625 0.53125 1.890625 1.40625q0.625 0.875 0.875 2.078125q0.15625 0.78125 0.15625 2.734375l0 10.203125l-2.8125 0l0 -10.09375q0 -1.71875 -0.328125 -2.5625q-0.328125 -0.859375 -1.171875 -1.359375q-0.828125 -0.515625 -1.953125 -0.515625q-1.796875 0 -3.109375 1.140625q-1.296875 1.140625 -1.296875 4.328125l0 9.0625l-2.8125 0zm17.734375 0l0 -22.90625l2.8125 0l0 22.90625l-2.8125 0zm7.1875 -19.671875l0 -3.234375l2.8125 0l0 3.234375l-2.8125 0zm0 19.671875l0 -16.59375l2.8125 0l0 16.59375l-2.8125 0zm7.09375 0l0 -16.59375l2.53125 0l0 2.359375q1.828125 -2.734375 5.28125 -2.734375q1.5 0 2.75 0.546875q1.265625 0.53125 1.890625 1.40625q0.625 0.875 0.875 2.078125q0.15625 0.78125 0.15625 2.734375l0 10.203125l-2.8125 0l0 -10.09375q0 -1.71875 -0.328125 -2.5625q-0.328125 -0.859375 -1.171875 -1.359375q-0.828125 -0.515625 -1.953125 -0.515625q-1.796875 0 -3.109375 1.140625q-1.296875 1.140625 -1.296875 4.328125l0 9.0625l-2.8125 0zm29.15625 -5.34375l2.90625 0.359375q-0.6875 2.546875 -2.546875 3.953125q-1.859375 1.40625 -4.75 1.40625q-3.640625 0 -5.78125 -2.234375q-2.125 -2.25 -2.125 -6.296875q0 -4.1875 2.15625 -6.5q2.15625 -2.3125 5.59375 -2.3125q3.328125 0 5.4375 2.265625q2.109375 2.265625 2.109375 6.375q0 0.25 -0.015625 0.75l-12.375 0q0.15625 2.734375 1.546875 4.1875q1.390625 1.453125 3.46875 1.453125q1.546875 0 2.640625 -0.8125q1.09375 -0.8125 1.734375 -2.59375zm-9.234375 -4.546875l9.265625 0q-0.1875 -2.09375 -1.0625 -3.140625q-1.34375 -1.625 -3.484375 -1.625q-1.9375 0 -3.265625 1.296875q-1.3125 1.296875 -1.453125 3.46875zm24.53125 9.890625l0 -16.59375l2.53125 0l0 2.515625q0.96875 -1.765625 1.78125 -2.328125q0.828125 -0.5625 1.8125 -0.5625q1.421875 0 2.890625 0.90625l-0.96875 2.609375q-1.03125 -0.609375 -2.0625 -0.609375q-0.921875 0 -1.65625 0.5625q-0.734375 0.546875 -1.046875 1.53125q-0.46875 1.5 -0.46875 3.28125l0 8.6875l-2.8125 0zm22.046875 -5.34375l2.90625 0.359375q-0.6875 2.546875 -2.546875 3.953125q-1.859375 1.40625 -4.75 1.40625q-3.640625 0 -5.78125 -2.234375q-2.125 -2.25 -2.125 -6.296875q0 -4.1875 2.15625 -6.5q2.15625 -2.3125 5.59375 -2.3125q3.328125 0 5.4375 2.265625q2.109375 2.265625 2.109375 6.375q0 0.25 -0.015625 0.75l-12.375 0q0.15625 2.734375 1.546875 4.1875q1.390625 1.453125 3.46875 1.453125q1.546875 0 2.640625 -0.8125q1.09375 -0.8125 1.734375 -2.59375zm-9.234375 -4.546875l9.265625 0q-0.1875 -2.09375 -1.0625 -3.140625q-1.34375 -1.625 -3.484375 -1.625q-1.9375 0 -3.265625 1.296875q-1.3125 1.296875 -1.453125 3.46875zm14.546875 4.9375l2.78125 -0.4375q0.234375 1.671875 1.296875 2.5625q1.078125 0.890625 3.0 0.890625q1.9375 0 2.875 -0.78125q0.9375 -0.796875 0.9375 -1.859375q0 -0.953125 -0.828125 -1.5q-0.578125 -0.375 -2.875 -0.953125q-3.09375 -0.78125 -4.296875 -1.34375q-1.1875 -0.578125 -1.8125 -1.578125q-0.609375 -1.015625 -0.609375 -2.234375q0 -1.109375 0.5 -2.046875q0.515625 -0.953125 1.390625 -1.578125q0.65625 -0.484375 1.78125 -0.8125q1.140625 -0.34375 2.4375 -0.34375q1.953125 0 3.421875 0.5625q1.484375 0.5625 2.1875 1.53125q0.703125 0.953125 0.96875 2.5625l-2.75 0.375q-0.1875 -1.28125 -1.09375 -2.0q-0.890625 -0.71875 -2.53125 -0.71875q-1.9375 0 -2.765625 0.640625q-0.828125 0.640625 -0.828125 1.5q0 0.546875 0.34375 0.984375q0.34375 0.453125 1.078125 0.75q0.421875 0.15625 2.484375 0.71875q2.984375 0.796875 4.15625 1.3125q1.1875 0.5 1.859375 1.46875q0.671875 0.96875 0.671875 2.40625q0 1.40625 -0.828125 2.65625q-0.8125 1.234375 -2.359375 1.921875q-1.546875 0.671875 -3.5 0.671875q-3.234375 0 -4.9375 -1.34375q-1.6875 -1.34375 -2.15625 -3.984375zm16.078125 -3.34375q0 -4.609375 2.5625 -6.828125q2.140625 -1.84375 5.21875 -1.84375q3.421875 0 5.59375 2.25q2.171875 2.234375 2.171875 6.1875q0 3.203125 -0.96875 5.046875q-0.953125 1.828125 -2.796875 2.84375q-1.828125 1.015625 -4.0 1.015625q-3.484375 0 -5.640625 -2.234375q-2.140625 -2.234375 -2.140625 -6.4375zm2.890625 0q0 3.1875 1.390625 4.78125q1.390625 1.578125 3.5 1.578125q2.09375 0 3.484375 -1.59375q1.390625 -1.59375 1.390625 -4.859375q0 -3.078125 -1.40625 -4.65625q-1.390625 -1.59375 -3.46875 -1.59375q-2.109375 0 -3.5 1.578125q-1.390625 1.578125 -1.390625 4.765625zm26.828125 8.296875l0 -2.4375q-1.9375 2.8125 -5.265625 2.8125q-1.46875 0 -2.75 -0.5625q-1.265625 -0.5625 -1.890625 -1.40625q-0.609375 -0.859375 -0.859375 -2.09375q-0.171875 -0.828125 -0.171875 -2.625l0 -10.28125l2.8125 0l0 9.203125q0 2.203125 0.171875 2.96875q0.265625 1.109375 1.125 1.75q0.859375 0.625 2.125 0.625q1.265625 0 2.375 -0.640625q1.109375 -0.65625 1.5625 -1.765625q0.46875 -1.125 0.46875 -3.25l0 -8.890625l2.8125 0l0 16.59375l-2.515625 0zm6.890625 0l0 -16.59375l2.53125 0l0 2.515625q0.96875 -1.765625 1.78125 -2.328125q0.828125 -0.5625 1.8125 -0.5625q1.421875 0 2.890625 0.90625l-0.96875 2.609375q-1.03125 -0.609375 -2.0625 -0.609375q-0.921875 0 -1.65625 0.5625q-0.734375 0.546875 -1.046875 1.53125q-0.46875 1.5 -0.46875 3.28125l0 8.6875l-2.8125 0zm21.515625 -6.078125l2.765625 0.359375q-0.453125 2.859375 -2.328125 4.484375q-1.859375 1.609375 -4.578125 1.609375q-3.40625 0 -5.484375 -2.21875q-2.0625 -2.234375 -2.0625 -6.390625q0 -2.6875 0.890625 -4.703125q0.890625 -2.015625 2.703125 -3.015625q1.828125 -1.015625 3.96875 -1.015625q2.703125 0 4.421875 1.375q1.71875 1.359375 2.203125 3.875l-2.734375 0.421875q-0.390625 -1.671875 -1.390625 -2.515625q-0.984375 -0.84375 -2.390625 -0.84375q-2.125 0 -3.453125 1.53125q-1.328125 1.515625 -1.328125 4.8125q0 3.34375 1.28125 4.859375q1.28125 1.515625 3.34375 1.515625q1.65625 0 2.765625 -1.015625q1.109375 -1.015625 1.40625 -3.125zm16.531189 0.734375l2.90625 0.359375q-0.6875 2.546875 -2.546875 3.953125q-1.859314 1.40625 -4.749939 1.40625q-3.640625 0 -5.78125 -2.234375q-2.125 -2.25 -2.125 -6.296875q0 -4.1875 2.15625 -6.5q2.15625 -2.3125 5.59375 -2.3125q3.328064 0 5.437439 2.265625q2.109375 2.265625 2.109375 6.375q0 0.25 -0.015625 0.75l-12.374939 0q0.15625 2.734375 1.546875 4.1875q1.390625 1.453125 3.46875 1.453125q1.546875 0 2.640625 -0.8125q1.093689 -0.8125 1.734314 -2.59375zm-9.234314 -4.546875l9.265564 0q-0.1875 -2.09375 -1.0625 -3.140625q-1.343689 -1.625 -3.484314 -1.625q-1.9375 0 -3.265625 1.296875q-1.3125 1.296875 -1.453125 3.46875zm14.546814 4.9375l2.78125 -0.4375q0.234375 1.671875 1.296875 2.5625q1.078125 0.890625 3.0 0.890625q1.9375 0 2.875 -0.78125q0.9375 -0.796875 0.9375 -1.859375q0 -0.953125 -0.828125 -1.5q-0.578125 -0.375 -2.875 -0.953125q-3.09375 -0.78125 -4.296875 -1.34375q-1.1875 -0.578125 -1.8125 -1.578125q-0.609375 -1.015625 -0.609375 -2.234375q0 -1.109375 0.5 -2.046875q0.515625 -0.953125 1.390625 -1.578125q0.65625 -0.484375 1.78125 -0.8125q1.140625 -0.34375 2.4375 -0.34375q1.953125 0 3.421875 0.5625q1.484375 0.5625 2.1875 1.53125q0.703125 0.953125 0.96875 2.5625l-2.75 0.375q-0.1875 -1.28125 -1.09375 -2.0q-0.890625 -0.71875 -2.53125 -0.71875q-1.9375 0 -2.765625 0.640625q-0.828125 0.640625 -0.828125 1.5q0 0.546875 0.34375 0.984375q0.34375 0.453125 1.078125 0.75q0.421875 0.15625 2.484375 0.71875q2.984375 0.796875 4.15625 1.3125q1.1875 0.5 1.859375 1.46875q0.671875 0.96875 0.671875 2.40625q0 1.40625 -0.828125 2.65625q-0.8125 1.234375 -2.359375 1.921875q-1.546875 0.671875 -3.5 0.671875q-3.234375 0 -4.9375 -1.34375q-1.6875 -1.34375 -2.15625 -3.984375zm17.90625 -8.4375l0 -3.203125l3.203125 0l0 3.203125l-3.203125 0zm0 13.390625l0 -3.203125l3.203125 0l0 3.203125l-3.203125 0z" fill-rule="nonzero"/><path fill="#ffffff" d="m817.3177 450.8302q0 -1.640625 1.15625 -2.796875q1.171875 -1.15625 2.796875 -1.15625q1.640625 0 2.796875 1.15625q1.171875 1.15625 1.171875 2.796875q0 1.640625 -1.171875 2.8125q-1.15625 1.15625 -2.796875 1.15625q-1.625 0 -2.796875 -1.15625q-1.15625 -1.171875 -1.15625 -2.8125z" fill-rule="nonzero"/><path fill="#ffffff" d="m879.11456 462.04895l0 -20.203125l-7.546875 0l0 -2.703125l18.15625 0l0 2.703125l-7.578125 0l0 20.203125l-3.03125 0zm8.765625 -8.296875q0 -4.609375 2.5625 -6.828125q2.140625 -1.84375 5.21875 -1.84375q3.421875 0 5.59375 2.25q2.171875 2.234375 2.171875 6.1875q0 3.203125 -0.96875 5.046875q-0.953125 1.828125 -2.796875 2.84375q-1.828125 1.015625 -4.0 1.015625q-3.484375 0 -5.640625 -2.234375q-2.140625 -2.234375 -2.140625 -6.4375zm2.890625 0q0 3.1875 1.390625 4.78125q1.390625 1.578125 3.5 1.578125q2.09375 0 3.484375 -1.59375q1.390625 -1.59375 1.390625 -4.859375q0 -3.078125 -1.40625 -4.65625q-1.390625 -1.59375 -3.46875 -1.59375q-2.109375 0 -3.5 1.578125q-1.390625 1.578125 -1.390625 4.765625zm14.90625 0q0 -4.609375 2.5625 -6.828125q2.140625 -1.84375 5.21875 -1.84375q3.421875 0 5.59375 2.25q2.171875 2.234375 2.171875 6.1875q0 3.203125 -0.96875 5.046875q-0.953125 1.828125 -2.796875 2.84375q-1.828125 1.015625 -4.0 1.015625q-3.484375 0 -5.640625 -2.234375q-2.140625 -2.234375 -2.140625 -6.4375zm2.890625 0q0 3.1875 1.390625 4.78125q1.390625 1.578125 3.5 1.578125q2.09375 0 3.484375 -1.59375q1.390625 -1.59375 1.390625 -4.859375q0 -3.078125 -1.40625 -4.65625q-1.390625 -1.59375 -3.46875 -1.59375q-2.109375 0 -3.5 1.578125q-1.390625 1.578125 -1.390625 4.765625zm15.890625 8.296875l0 -22.90625l2.8125 0l0 22.90625l-2.8125 0zm7.1875 0l0 -22.90625l2.8125 0l0 13.0625l6.65625 -6.75l3.640625 0l-6.34375 6.15625l6.984375 10.4375l-3.46875 0l-5.484375 -8.484375l-1.984375 1.90625l0 6.578125l-2.8125 0zm16.0 -19.671875l0 -3.234375l2.8125 0l0 3.234375l-2.8125 0zm0 19.671875l0 -16.59375l2.8125 0l0 16.59375l-2.8125 0zm13.234375 -2.515625l0.40625 2.484375q-1.1875 0.25 -2.125 0.25q-1.53125 0 -2.375 -0.484375q-0.84375 -0.484375 -1.1875 -1.265625q-0.34375 -0.796875 -0.34375 -3.328125l0 -9.546875l-2.0625 0l0 -2.1875l2.0625 0l0 -4.109375l2.796875 -1.6875l0 5.796875l2.828125 0l0 2.1875l-2.828125 0l0 9.703125q0 1.203125 0.140625 1.546875q0.15625 0.34375 0.484375 0.546875q0.34375 0.203125 0.96875 0.203125q0.46875 0 1.234375 -0.109375z" fill-rule="nonzero"/><path fill="#ffffff" d="m817.3177 511.8302q0 -1.640625 1.15625 -2.796875q1.171875 -1.15625 2.796875 -1.15625q1.640625 0 2.796875 1.15625q1.171875 1.15625 1.171875 2.796875q0 1.640625 -1.171875 2.8125q-1.15625 1.15625 -2.796875 1.15625q-1.625 0 -2.796875 -1.15625q-1.15625 -1.171875 -1.15625 -2.8125z" fill-rule="nonzero"/><path fill="#ffffff" d="m872.36456 511.8927q0 -5.703125 3.0625 -8.921875q3.0625 -3.234375 7.90625 -3.234375q3.171875 0 5.71875 1.515625q2.546875 1.515625 3.875 4.234375q1.34375 2.703125 1.34375 6.140625q0 3.484375 -1.40625 6.234375q-1.40625 2.75 -3.984375 4.171875q-2.578125 1.40625 -5.5625 1.40625q-3.234375 0 -5.78125 -1.5625q-2.546875 -1.5625 -3.859375 -4.265625q-1.3125 -2.703125 -1.3125 -5.71875zm3.125 0.046875q0 4.140625 2.21875 6.53125q2.234375 2.375 5.59375 2.375q3.421875 0 5.625 -2.40625q2.21875 -2.40625 2.21875 -6.828125q0 -2.796875 -0.953125 -4.875q-0.9375 -2.09375 -2.765625 -3.234375q-1.8125 -1.15625 -4.078125 -1.15625q-3.21875 0 -5.546875 2.21875q-2.3125 2.203125 -2.3125 7.375zm22.328125 17.46875l0 -22.953125l2.5625 0l0 2.15625q0.90625 -1.265625 2.046875 -1.890625q1.140625 -0.640625 2.765625 -0.640625q2.125 0 3.75 1.09375q1.625 1.09375 2.453125 3.09375q0.828125 1.984375 0.828125 4.359375q0 2.546875 -0.921875 4.59375q-0.90625 2.03125 -2.65625 3.125q-1.734375 1.078125 -3.65625 1.078125q-1.40625 0 -2.53125 -0.59375q-1.109375 -0.59375 -1.828125 -1.5l0 8.078125l-2.8125 0zm2.546875 -14.5625q0 3.203125 1.296875 4.734375q1.296875 1.53125 3.140625 1.53125q1.875 0 3.203125 -1.578125q1.34375 -1.59375 1.34375 -4.921875q0 -3.171875 -1.3125 -4.75q-1.296875 -1.578125 -3.109375 -1.578125q-1.796875 0 -3.1875 1.6875q-1.375 1.671875 -1.375 4.875zm26.609375 2.859375l2.90625 0.359375q-0.6875 2.546875 -2.546875 3.953125q-1.859375 1.40625 -4.75 1.40625q-3.640625 0 -5.78125 -2.234375q-2.125 -2.25 -2.125 -6.296875q0 -4.1875 2.15625 -6.5q2.15625 -2.3125 5.59375 -2.3125q3.328125 0 5.4375 2.265625q2.109375 2.265625 2.109375 6.375q0 0.25 -0.015625 0.75l-12.375 0q0.15625 2.734375 1.546875 4.1875q1.390625 1.453125 3.46875 1.453125q1.546875 0 2.640625 -0.8125q1.09375 -0.8125 1.734375 -2.59375zm-9.234375 -4.546875l9.265625 0q-0.1875 -2.09375 -1.0625 -3.140625q-1.34375 -1.625 -3.484375 -1.625q-1.9375 0 -3.265625 1.296875q-1.3125 1.296875 -1.453125 3.46875zm15.671875 9.890625l0 -16.59375l2.53125 0l0 2.359375q1.828125 -2.734375 5.28125 -2.734375q1.5 0 2.75 0.546875q1.265625 0.53125 1.890625 1.40625q0.625 0.875 0.875 2.078125q0.15625 0.78125 0.15625 2.734375l0 10.203125l-2.8125 0l0 -10.09375q0 -1.71875 -0.328125 -2.5625q-0.328125 -0.859375 -1.171875 -1.359375q-0.828125 -0.515625 -1.953125 -0.515625q-1.796875 0 -3.109375 1.140625q-1.296875 1.140625 -1.296875 4.328125l0 9.0625l-2.8125 0zm37.515625 -2.046875q-1.5625 1.328125 -3.015625 1.875q-1.4375 0.546875 -3.09375 0.546875q-2.734375 0 -4.203125 -1.328125q-1.46875 -1.34375 -1.46875 -3.421875q0 -1.21875 0.546875 -2.21875q0.5625 -1.015625 1.453125 -1.625q0.90625 -0.609375 2.03125 -0.921875q0.828125 -0.21875 2.5 -0.421875q3.40625 -0.40625 5.015625 -0.96875q0.015625 -0.578125 0.015625 -0.734375q0 -1.71875 -0.796875 -2.421875q-1.078125 -0.953125 -3.203125 -0.953125q-1.984375 0 -2.9375 0.703125q-0.9375 0.6875 -1.390625 2.453125l-2.75 -0.375q0.375 -1.765625 1.234375 -2.84375q0.859375 -1.09375 2.484375 -1.671875q1.625 -0.59375 3.765625 -0.59375q2.125 0 3.453125 0.5q1.328125 0.5 1.953125 1.265625q0.625 0.75 0.875 1.90625q0.140625 0.71875 0.140625 2.59375l0 3.75q0 3.921875 0.171875 4.96875q0.1875 1.03125 0.71875 1.984375l-2.9375 0q-0.4375 -0.875 -0.5625 -2.046875zm-0.234375 -6.28125q-1.53125 0.625 -4.59375 1.0625q-1.734375 0.25 -2.453125 0.5625q-0.71875 0.3125 -1.109375 0.921875q-0.390625 0.59375 -0.390625 1.328125q0 1.125 0.84375 1.875q0.859375 0.75 2.5 0.75q1.625 0 2.890625 -0.703125q1.265625 -0.71875 1.859375 -1.953125q0.453125 -0.953125 0.453125 -2.8125l0 -1.03125zm18.03125 2.25l2.765625 0.359375q-0.453125 2.859375 -2.328125 4.484375q-1.859375 1.609375 -4.578125 1.609375q-3.40625 0 -5.484375 -2.21875q-2.0625 -2.234375 -2.0625 -6.390625q0 -2.6875 0.890625 -4.703125q0.890625 -2.015625 2.703125 -3.015625q1.828125 -1.015625 3.96875 -1.015625q2.703125 0 4.421875 1.375q1.71875 1.359375 2.203125 3.875l-2.734375 0.421875q-0.390625 -1.671875 -1.390625 -2.515625q-0.984375 -0.84375 -2.390625 -0.84375q-2.125 0 -3.453125 1.53125q-1.328125 1.515625 -1.328125 4.8125q0 3.34375 1.28125 4.859375q1.28125 1.515625 3.34375 1.515625q1.65625 0 2.765625 -1.015625q1.109375 -1.015625 1.40625 -3.125zm16.0 0l2.765625 0.359375q-0.453125 2.859375 -2.328125 4.484375q-1.859375 1.609375 -4.578125 1.609375q-3.40625 0 -5.484375 -2.21875q-2.0625 -2.234375 -2.0625 -6.390625q0 -2.6875 0.890625 -4.703125q0.890625 -2.015625 2.703125 -3.015625q1.828125 -1.015625 3.96875 -1.015625q2.703125 0 4.421875 1.375q1.71875 1.359375 2.203125 3.875l-2.734375 0.421875q-0.390625 -1.671875 -1.390625 -2.515625q-0.984375 -0.84375 -2.390625 -0.84375q-2.125 0 -3.453125 1.53125q-1.328125 1.515625 -1.328125 4.8125q0 3.34375 1.28125 4.859375q1.28125 1.515625 3.34375 1.515625q1.65625 0 2.765625 -1.015625q1.109375 -1.015625 1.40625 -3.125zm16.53125 0.734375l2.906189 0.359375q-0.68743896 2.546875 -2.546814 3.953125q-1.859375 1.40625 -4.75 1.40625q-3.640625 0 -5.78125 -2.234375q-2.125 -2.25 -2.125 -6.296875q0 -4.1875 2.15625 -6.5q2.15625 -2.3125 5.59375 -2.3125q3.328125 0 5.4375 2.265625q2.109314 2.265625 2.109314 6.375q0 0.25 -0.015625 0.75l-12.374939 0q0.15625 2.734375 1.546875 4.1875q1.390625 1.453125 3.46875 1.453125q1.546875 0 2.640625 -0.8125q1.09375 -0.8125 1.734375 -2.59375zm-9.234375 -4.546875l9.265625 0q-0.1875 -2.09375 -1.0625 -3.140625q-1.34375 -1.625 -3.484375 -1.625q-1.9375 0 -3.265625 1.296875q-1.3125 1.296875 -1.453125 3.46875zm14.546814 4.9375l2.78125 -0.4375q0.234375 1.671875 1.296875 2.5625q1.078125 0.890625 3.0 0.890625q1.9375 0 2.875 -0.78125q0.9375 -0.796875 0.9375 -1.859375q0 -0.953125 -0.828125 -1.5q-0.578125 -0.375 -2.875 -0.953125q-3.09375 -0.78125 -4.296875 -1.34375q-1.1875 -0.578125 -1.8125 -1.578125q-0.609375 -1.015625 -0.609375 -2.234375q0 -1.109375 0.5 -2.046875q0.515625 -0.953125 1.390625 -1.578125q0.65625 -0.484375 1.78125 -0.8125q1.140625 -0.34375 2.4375 -0.34375q1.953125 0 3.421875 0.5625q1.484375 0.5625 2.1875 1.53125q0.703125 0.953125 0.96875 2.5625l-2.75 0.375q-0.1875 -1.28125 -1.09375 -2.0q-0.890625 -0.71875 -2.53125 -0.71875q-1.9375 0 -2.765625 0.640625q-0.828125 0.640625 -0.828125 1.5q0 0.546875 0.34375 0.984375q0.34375 0.453125 1.078125 0.75q0.421875 0.15625 2.484375 0.71875q2.984375 0.796875 4.15625 1.3125q1.1875 0.5 1.859375 1.46875q0.671875 0.96875 0.671875 2.40625q0 1.40625 -0.828125 2.65625q-0.8125 1.234375 -2.359375 1.921875q-1.546875 0.671875 -3.5 0.671875q-3.234375 0 -4.9375 -1.34375q-1.6875 -1.34375 -2.15625 -3.984375zm16.0 0l2.78125 -0.4375q0.234375 1.671875 1.296875 2.5625q1.078125 0.890625 3.0 0.890625q1.9375 0 2.875 -0.78125q0.9375 -0.796875 0.9375 -1.859375q0 -0.953125 -0.828125 -1.5q-0.578125 -0.375 -2.875 -0.953125q-3.09375 -0.78125 -4.296875 -1.34375q-1.1875 -0.578125 -1.8125 -1.578125q-0.609375 -1.015625 -0.609375 -2.234375q0 -1.109375 0.5 -2.046875q0.515625 -0.953125 1.390625 -1.578125q0.65625 -0.484375 1.78125 -0.8125q1.140625 -0.34375 2.4375 -0.34375q1.953125 0 3.421875 0.5625q1.484375 0.5625 2.1875 1.53125q0.703125 0.953125 0.96875 2.5625l-2.75 0.375q-0.1875 -1.28125 -1.09375 -2.0q-0.890625 -0.71875 -2.53125 -0.71875q-1.9375 0 -2.765625 0.640625q-0.828125 0.640625 -0.828125 1.5q0 0.546875 0.34375 0.984375q0.34375 0.453125 1.078125 0.75q0.421875 0.15625 2.484375 0.71875q2.984375 0.796875 4.15625 1.3125q1.1875 0.5 1.859375 1.46875q0.671875 0.96875 0.671875 2.40625q0 1.40625 -0.828125 2.65625q-0.8125 1.234375 -2.359375 1.921875q-1.546875 0.671875 -3.5 0.671875q-3.234375 0 -4.9375 -1.34375q-1.6875 -1.34375 -2.15625 -3.984375zm25.953125 4.953125l0 -22.90625l2.8125 0l0 22.90625l-2.8125 0zm18.53125 -5.34375l2.90625 0.359375q-0.6875 2.546875 -2.546875 3.953125q-1.859375 1.40625 -4.75 1.40625q-3.640625 0 -5.78125 -2.234375q-2.125 -2.25 -2.125 -6.296875q0 -4.1875 2.15625 -6.5q2.15625 -2.3125 5.59375 -2.3125q3.328125 0 5.4375 2.265625q2.109375 2.265625 2.109375 6.375q0 0.25 -0.015625 0.75l-12.375 0q0.15625 2.734375 1.546875 4.1875q1.390625 1.453125 3.46875 1.453125q1.546875 0 2.640625 -0.8125q1.09375 -0.8125 1.734375 -2.59375zm-9.234375 -4.546875l9.265625 0q-0.1875 -2.09375 -1.0625 -3.140625q-1.34375 -1.625 -3.484375 -1.625q-1.9375 0 -3.265625 1.296875q-1.3125 1.296875 -1.453125 3.46875zm26.5 7.84375q-1.5625 1.328125 -3.015625 1.875q-1.4375 0.546875 -3.09375 0.546875q-2.734375 0 -4.203125 -1.328125q-1.46875 -1.34375 -1.46875 -3.421875q0 -1.21875 0.546875 -2.21875q0.5625 -1.015625 1.453125 -1.625q0.90625 -0.609375 2.03125 -0.921875q0.828125 -0.21875 2.5 -0.421875q3.40625 -0.40625 5.015625 -0.96875q0.015625 -0.578125 0.015625 -0.734375q0 -1.71875 -0.796875 -2.421875q-1.078125 -0.953125 -3.203125 -0.953125q-1.984375 0 -2.9375 0.703125q-0.9375 0.6875 -1.390625 2.453125l-2.75 -0.375q0.375 -1.765625 1.234375 -2.84375q0.859375 -1.09375 2.484375 -1.671875q1.625 -0.59375 3.765625 -0.59375q2.125 0 3.453125 0.5q1.328125 0.5 1.953125 1.265625q0.625 0.75 0.875 1.90625q0.140625 0.71875 0.140625 2.59375l0 3.75q0 3.921875 0.171875 4.96875q0.1875 1.03125 0.71875 1.984375l-2.9375 0q-0.4375 -0.875 -0.5625 -2.046875zm-0.234375 -6.28125q-1.53125 0.625 -4.59375 1.0625q-1.734375 0.25 -2.453125 0.5625q-0.71875 0.3125 -1.109375 0.921875q-0.390625 0.59375 -0.390625 1.328125q0 1.125 0.84375 1.875q0.859375 0.75 2.5 0.75q1.625 0 2.890625 -0.703125q1.265625 -0.71875 1.859375 -1.953125q0.453125 -0.953125 0.453125 -2.8125l0 -1.03125zm7.171875 8.328125l0 -16.59375l2.53125 0l0 2.515625q0.96875 -1.765625 1.78125 -2.328125q0.828125 -0.5625 1.8125 -0.5625q1.421875 0 2.890625 0.90625l-0.96875 2.609375q-1.03125 -0.609375 -2.0625 -0.609375q-0.921875 0 -1.65625 0.5625q-0.734375 0.546875 -1.046875 1.53125q-0.46875 1.5 -0.46875 3.28125l0 8.6875l-2.8125 0zm10.6875 0l0 -16.59375l2.53125 0l0 2.359375q1.828125 -2.734375 5.28125 -2.734375q1.5 0 2.75 0.546875q1.265625 0.53125 1.890625 1.40625q0.625 0.875 0.875 2.078125q0.15625 0.78125 0.15625 2.734375l0 10.203125l-2.8125 0l0 -10.09375q0 -1.71875 -0.328125 -2.5625q-0.328125 -0.859375 -1.171875 -1.359375q-0.828125 -0.515625 -1.953125 -0.515625q-1.796875 0 -3.109375 1.140625q-1.296875 1.140625 -1.296875 4.328125l0 9.0625l-2.8125 0zm17.8125 -19.671875l0 -3.234375l2.8125 0l0 3.234375l-2.8125 0zm0 19.671875l0 -16.59375l2.8125 0l0 16.59375l-2.8125 0zm7.09375 0l0 -16.59375l2.53125 0l0 2.359375q1.828125 -2.734375 5.28125 -2.734375q1.5 0 2.75 0.546875q1.265625 0.53125 1.890625 1.40625q0.625 0.875 0.875 2.078125q0.15625 0.78125 0.15625 2.734375l0 10.203125l-2.8125 0l0 -10.09375q0 -1.71875 -0.328125 -2.5625q-0.328125 -0.859375 -1.171875 -1.359375q-0.828125 -0.515625 -1.953125 -0.515625q-1.796875 0 -3.109375 1.140625q-1.296875 1.140625 -1.296875 4.328125l0 9.0625l-2.8125 0zm17.28125 1.375l2.734375 0.40625q0.171875 1.265625 0.953125 1.84375q1.046875 0.78125 2.859375 0.78125q1.953125 0 3.015625 -0.78125q1.0625 -0.78125 1.4375 -2.1875q0.21875 -0.859375 0.203125 -3.609375q-1.84375 2.171875 -4.59375 2.171875q-3.421875 0 -5.296875 -2.46875q-1.875 -2.46875 -1.875 -5.921875q0 -2.375 0.859375 -4.375q0.859375 -2.015625 2.484375 -3.109375q1.640625 -1.09375 3.84375 -1.09375q2.9375 0 4.84375 2.375l0 -2.0l2.59375 0l0 14.34375q0 3.875 -0.796875 5.484375q-0.78125 1.625 -2.5 2.5625q-1.703125 0.9375 -4.203125 0.9375q-2.96875 0 -4.796875 -1.34375q-1.828125 -1.328125 -1.765625 -4.015625zm2.328125 -9.96875q0 3.265625 1.296875 4.765625q1.296875 1.5 3.25 1.5q1.9375 0 3.25 -1.484375q1.3125 -1.5 1.3125 -4.6875q0 -3.046875 -1.359375 -4.59375q-1.34375 -1.546875 -3.25 -1.546875q-1.875 0 -3.1875 1.53125q-1.3125 1.515625 -1.3125 4.515625z" fill-rule="nonzero"/><path fill="#ffffff" d="m872.8958 557.38226l0 -16.59375l2.53125 0l0 2.515625q0.96875 -1.765625 1.78125 -2.328125q0.828125 -0.5625 1.8125 -0.5625q1.421875 0 2.890625 0.90625l-0.96875 2.609375q-1.03125 -0.609375 -2.0625 -0.609375q-0.921875 0 -1.65625 0.5625q-0.734375 0.546875 -1.046875 1.53125q-0.46875 1.5 -0.46875 3.28125l0 8.6875l-2.8125 0zm22.046875 -5.34375l2.90625 0.359375q-0.6875 2.546875 -2.546875 3.953125q-1.859375 1.40625 -4.75 1.40625q-3.640625 0 -5.78125 -2.234375q-2.125 -2.25 -2.125 -6.296875q0 -4.1875 2.15625 -6.5q2.15625 -2.3125 5.59375 -2.3125q3.328125 0 5.4375 2.265625q2.109375 2.265625 2.109375 6.375q0 0.25 -0.015625 0.75l-12.375 0q0.15625 2.734375 1.546875 4.1875q1.390625 1.453125 3.46875 1.453125q1.546875 0 2.640625 -0.8125q1.09375 -0.8125 1.734375 -2.59375zm-9.234375 -4.546875l9.265625 0q-0.1875 -2.09375 -1.0625 -3.140625q-1.34375 -1.625 -3.484375 -1.625q-1.9375 0 -3.265625 1.296875q-1.3125 1.296875 -1.453125 3.46875zm14.546875 4.9375l2.78125 -0.4375q0.234375 1.671875 1.296875 2.5625q1.078125 0.890625 3.0 0.890625q1.9375 0 2.875 -0.78125q0.9375 -0.796875 0.9375 -1.859375q0 -0.953125 -0.828125 -1.5q-0.578125 -0.375 -2.875 -0.953125q-3.09375 -0.78125 -4.296875 -1.34375q-1.1875 -0.578125 -1.8125 -1.578125q-0.609375 -1.015625 -0.609375 -2.234375q0 -1.109375 0.5 -2.046875q0.515625 -0.953125 1.390625 -1.578125q0.65625 -0.484375 1.78125 -0.8125q1.140625 -0.34375 2.4375 -0.34375q1.953125 0 3.421875 0.5625q1.484375 0.5625 2.1875 1.53125q0.703125 0.953125 0.96875 2.5625l-2.75 0.375q-0.1875 -1.28125 -1.09375 -2.0q-0.890625 -0.71875 -2.53125 -0.71875q-1.9375 0 -2.765625 0.640625q-0.828125 0.640625 -0.828125 1.5q0 0.546875 0.34375 0.984375q0.34375 0.453125 1.078125 0.75q0.421875 0.15625 2.484375 0.71875q2.984375 0.796875 4.15625 1.3125q1.1875 0.5 1.859375 1.46875q0.671875 0.96875 0.671875 2.40625q0 1.40625 -0.828125 2.65625q-0.8125 1.234375 -2.359375 1.921875q-1.546875 0.671875 -3.5 0.671875q-3.234375 0 -4.9375 -1.34375q-1.6875 -1.34375 -2.15625 -3.984375zm16.078125 -3.34375q0 -4.609375 2.5625 -6.828125q2.140625 -1.84375 5.21875 -1.84375q3.421875 0 5.59375 2.25q2.171875 2.234375 2.171875 6.1875q0 3.203125 -0.96875 5.046875q-0.953125 1.828125 -2.796875 2.84375q-1.828125 1.015625 -4.0 1.015625q-3.484375 0 -5.640625 -2.234375q-2.140625 -2.234375 -2.140625 -6.4375zm2.890625 0q0 3.1875 1.390625 4.78125q1.390625 1.578125 3.5 1.578125q2.09375 0 3.484375 -1.59375q1.390625 -1.59375 1.390625 -4.859375q0 -3.078125 -1.40625 -4.65625q-1.390625 -1.59375 -3.46875 -1.59375q-2.109375 0 -3.5 1.578125q-1.390625 1.578125 -1.390625 4.765625zm26.828125 8.296875l0 -2.4375q-1.9375 2.8125 -5.265625 2.8125q-1.46875 0 -2.75 -0.5625q-1.265625 -0.5625 -1.890625 -1.40625q-0.609375 -0.859375 -0.859375 -2.09375q-0.171875 -0.828125 -0.171875 -2.625l0 -10.28125l2.8125 0l0 9.203125q0 2.203125 0.171875 2.96875q0.265625 1.109375 1.125 1.75q0.859375 0.625 2.125 0.625q1.265625 0 2.375 -0.640625q1.109375 -0.65625 1.5625 -1.765625q0.46875 -1.125 0.46875 -3.25l0 -8.890625l2.8125 0l0 16.59375l-2.515625 0zm6.890625 0l0 -16.59375l2.53125 0l0 2.515625q0.96875 -1.765625 1.78125 -2.328125q0.828125 -0.5625 1.8125 -0.5625q1.421875 0 2.890625 0.90625l-0.96875 2.609375q-1.03125 -0.609375 -2.0625 -0.609375q-0.921875 0 -1.65625 0.5625q-0.734375 0.546875 -1.046875 1.53125q-0.46875 1.5 -0.46875 3.28125l0 8.6875l-2.8125 0zm21.515625 -6.078125l2.765625 0.359375q-0.453125 2.859375 -2.328125 4.484375q-1.859375 1.609375 -4.578125 1.609375q-3.40625 0 -5.484375 -2.21875q-2.0625 -2.234375 -2.0625 -6.390625q0 -2.6875 0.890625 -4.703125q0.890625 -2.015625 2.703125 -3.015625q1.828125 -1.015625 3.96875 -1.015625q2.703125 0 4.421875 1.375q1.71875 1.359375 2.203125 3.875l-2.734375 0.421875q-0.390625 -1.671875 -1.390625 -2.515625q-0.984375 -0.84375 -2.390625 -0.84375q-2.125 0 -3.453125 1.53125q-1.328125 1.515625 -1.328125 4.8125q0 3.34375 1.28125 4.859375q1.28125 1.515625 3.34375 1.515625q1.65625 0 2.765625 -1.015625q1.109375 -1.015625 1.40625 -3.125zm16.53125 0.734375l2.90625 0.359375q-0.6875 2.546875 -2.546875 3.953125q-1.859375 1.40625 -4.75 1.40625q-3.640625 0 -5.78125 -2.234375q-2.125 -2.25 -2.125 -6.296875q0 -4.1875 2.15625 -6.5q2.15625 -2.3125 5.59375 -2.3125q3.328125 0 5.4375 2.265625q2.109375 2.265625 2.109375 6.375q0 0.25 -0.015625 0.75l-12.375 0q0.15625 2.734375 1.546875 4.1875q1.390625 1.453125 3.46875 1.453125q1.546875 0 2.640625 -0.8125q1.09375 -0.8125 1.734375 -2.59375zm-9.234375 -4.546875l9.265625 0q-0.1875 -2.09375 -1.0625 -3.140625q-1.34375 -1.625 -3.484375 -1.625q-1.9375 0 -3.265625 1.296875q-1.3125 1.296875 -1.453125 3.46875zm14.546875 4.9375l2.78125 -0.4375q0.234375 1.671875 1.296875 2.5625q1.078125 0.890625 3.0 0.890625q1.9375 0 2.875 -0.78125q0.9375 -0.796875 0.9375 -1.859375q0 -0.953125 -0.828125 -1.5q-0.578125 -0.375 -2.875 -0.953125q-3.09375 -0.78125 -4.296875 -1.34375q-1.1875 -0.578125 -1.8125 -1.578125q-0.609375 -1.015625 -0.609375 -2.234375q0 -1.109375 0.5 -2.046875q0.515625 -0.953125 1.390625 -1.578125q0.65625 -0.484375 1.78125 -0.8125q1.140625 -0.34375 2.4375 -0.34375q1.953125 0 3.421875 0.5625q1.484375 0.5625 2.1875 1.53125q0.703125 0.953125 0.96875 2.5625l-2.75 0.375q-0.1875 -1.28125 -1.09375 -2.0q-0.890625 -0.71875 -2.53125 -0.71875q-1.9375 0 -2.765625 0.640625q-0.828125 0.640625 -0.828125 1.5q0 0.546875 0.34375 0.984375q0.34375 0.453125 1.078125 0.75q0.421875 0.15625 2.484375 0.71875q2.984375 0.796875 4.15625 1.3125q1.1875 0.5 1.859375 1.46875q0.671875 0.96875 0.671875 2.40625q0 1.40625 -0.828125 2.65625q-0.8125 1.234375 -2.359375 1.921875q-1.546875 0.671875 -3.5 0.671875q-3.234375 0 -4.9375 -1.34375q-1.6875 -1.34375 -2.15625 -3.984375z" fill-rule="nonzero"/></g></svg>